<svg width="72" height="72" xmlns="http://www.w3.org/2000/svg"><g fill="none" fill-rule="evenodd"><path d="M20.224 14.341C7.496 7.531-5.3 23.738 4.558 34.184l31.686 33.573c5.005 5.303 13.561 5.281 18.684-.047l10.548-10.973c5.832-6.066 4.338-15.86-3.017-19.797L20.224 14.341z" fill="#FAE041" style="mix-blend-mode:multiply"/><circle fill="#FFF" cx="38.5" cy="30.5" r="17.5"/><path d="M49.77 18.667c1.307-1.291 2.605-2.554 3.871-3.853.165-.17.228-.51.213-.764-.053-1.107-.162-2.212-.23-3.319-.029-.462-.109-.953.017-1.38.097-.328.455-.771.734-.8.261-.026.738.379.828.678.227.76.295 1.565.416 2.353.051.326.073.654.121 1.117 1.085-.997 2.068-1.9 3.056-2.801.288-.264.569-.535.877-.77.675-.517 1.368-.536 1.755-.074.37.443.28 1.093-.29 1.66-.679.679-1.395 1.319-2.093 1.977-.372.353-.738.707-1.28 1.227.91 0 1.595-.01 2.283.005.39.007.833-.053 1.152.108.34.17.746.541.792.87.075.541-.404.79-.937.786-1.382-.015-2.765-.008-4.143-.084-.61-.034-1.01.163-1.43.572-4.87 4.74-9.764 9.455-14.628 14.197-.237.233-.37.642-.412.985-.104.853-.581 1.54-1.373 1.81-.792.267-1.51.107-2.08-.485-.622-.647-.658-1.438-.35-2.238.241-.635.76-.918 1.43-1.047.424-.081.896-.247 1.206-.527.804-.729 1.53-1.538 2.283-2.312-3.627-2.614-8.428-.25-9.227 3.692-.458 2.255-.216 4.34 1.668 5.933 1.097.93 2.448 1.306 3.867 1.437.535.05 1.092.125 1.615.041 2.576-.412 4.56-2.439 4.855-5.008.104-.91.04-1.842.012-2.765-.017-.57.085-1.066.695-1.224.649-.168 1.043.201 1.237.783.884 2.646.552 5.176-1.264 7.27-2.106 2.427-4.913 3.379-8.155 2.89-1.436-.216-2.785-.69-3.952-1.555-.47-.348-.922-.786-1.215-1.282-1.448-2.451-2.085-5.018-1.087-7.833.641-1.811 1.772-3.172 3.394-4.19 3.129-1.966 6.184-1.405 9.32.224 1.492-1.586 3.017-3.203 4.603-4.888-.675-.783-1.69-1.605-2.896-2.07-1.496-.575-3.036-1.183-4.608-1.378-1.673-.206-3.477-.222-5.092.187-2.223.566-4.358 1.496-6.218 2.962-3.162 2.494-5.043 5.667-5.724 9.613-.43 2.504-.288 4.931.526 7.318 1.104 3.242 3.39 5.52 6.118 7.51 5.848 4.257 15.926 2.76 20.686-3.724 2.15-2.926 3.005-6.288 2.79-9.927-.12-1.987-.53-3.865-1.453-5.638-.257-.492-.264-1.05.336-1.333.589-.278.99.06 1.286.549.053.089.1.182.152.27 1.059 1.762 1.586 3.696 1.783 5.71.42 4.285-1.904 9.406-6.976 15.364-6.94 2.99-12.288 3.785-16.044 2.382-5.332-1.991-9.175-5.882-10.833-11.37-1.58-5.22-.671-10.228 2.573-14.702 2.584-3.563 6.054-5.906 10.395-6.865 1.981-.436 4.037-.774 6.046-.34 3.088.666 6.03 1.75 8.558 3.721.135.108.273.218.44.345z" stroke="#000" fill="#060606" fill-rule="nonzero"/></g></svg>