<svg width="72" height="72" xmlns="http://www.w3.org/2000/svg"><g fill="none" fill-rule="evenodd"><path d="M15.196 9.595C3.762 3.477-7.734 18.036 1.123 27.42L29.586 57.58c4.497 4.764 12.183 4.744 16.785-.042l9.475-9.857c5.238-5.45 3.897-14.248-2.71-17.784l-37.94-20.3z" fill="#FAE041" style="mix-blend-mode:multiply" transform="rotate(-107 28.52 34.64)"/><path fill="#FFF" d="M.795 25.654H40.16l.477 5.557 1.652-.438 8.76 5.111-4.364 8.417-2.926 4.161-7.582-4.562L.795 42.876z"/><path d="M15.168 37.004c-1.403-.392-2.378-1.495-2.473-3.336-.115-1.995.344-3.799 2.06-5.032 1.119-.823 2.457-.6 3.22.449.083.12.186.188.28.282 1.958 1.509 2.075 5.048.289 7.07-.993 1.104-2.077 1.095-3.376.567zm2.317-2.866c.468-1.422.603-2.447.23-3.434-.284-.809-.865-.915-1.534-.386-1.254.975-1.831 3.286-1.215 4.716.25.562.695.82 1.173.45.585-.444 1.074-1.043 1.346-1.346z" fill="#000" fill-rule="nonzero"/><path d="M14.877 35.715c2.064-.116 3.636.515 4.88 1.967.782.897 1.422 1.892 1.723 3.07.083.317.053.65.098.973.021.287.023.578.082.86.083.453-.079.67-.521.673-.904.011-1.077-.12-1.413-1.002-.602-1.542-1.66-2.632-3.192-3.25-1.208-.507-2.715-.121-3.534.904-.538.695-.95 1.47-1.077 2.34-.074.436-.15.717-.673.694-.524-.023-.634-.26-.663-.74-.112-2.578.96-4.55 3.034-5.964.381-.305.926-.401 1.256-.525z" fill="#000" fill-rule="nonzero"/><path d="M35.113 43.543c-1.018-2.246-2.589-4.028-4.57-5.472a490.495 490.495 0 0 0-2.847-2.065c-.734-.53-1.439-1.09-2.047-1.758-.47-.518-.848-1.09-1.017-1.782-.223-.933.193-1.62 1.132-1.794.776-.144 1.559-.144 2.323.06.578.151 1.156.32 1.722.524 1.523.554 3.046 1.114 4.551 1.704 1.204.47 2.36 1.047 3.443 1.758.807.523 1.614 1.035 2.523 1.366.505.452 1.168.59 1.752.885.319.163.656.295.963.482.33.198.475.493.361.644-.187.247-.458.27-.734.24a3.493 3.493 0 0 1-.614-.138 9.072 9.072 0 0 1-.68-.235c-1.56-.572-3.017-1.354-4.437-2.19a21.391 21.391 0 0 0-3.33-1.596 416.984 416.984 0 0 0-4.821-1.776 12.46 12.46 0 0 0-1.379-.41c-.56-.132-1.03-.084-1.553.097.18.656.277.843.716 1.306.56.596 1.21 1.084 1.885 1.535a210.24 210.24 0 0 1 2.697 1.806c2.094 1.433 3.798 3.22 4.978 5.49a10.487 10.487 0 0 0 2.245 2.92c1.668 1.53 3.564 2.54 5.9 2.558.542.006 1.077.079 1.62.115.24.018.48.048.697.168.332.181.416.566.157.831-.187.193-.41.337-.632.518.38.524.758 1.03 1.114 1.547 1.348 1.956 2.558 4.003 3.696 6.086.156.289.337.566.505.843l-.794.92c-.102.121-.042.314-.193.302-.445-.813-1.083-1.776-1.529-2.589-.072-.132-1.463-2.492-1.788-2.967-.277-.639-.662-1.204-1.107-1.734-.404-.632-.807-1.264-1.204-1.902-.145-.235-.344-.29-.608-.283-2.354.078-4.329-.85-6.08-2.336-1.018-.861-1.86-1.878-2.595-2.986a16.324 16.324 0 0 0-.421-.692zM40.59 25.905c-.33.355-.732.379-1.16.39-4.261.085-8.522-.095-12.777.073a65.207 65.207 0 0 1-3.758.024c-1.386-.03-2.771.018-4.156.03l-10.973.109c-.314 0-.628-.024-.941-.03-.481 0-.93-.139-1.333-.446-.225-.83-.068-1.192.611-1.415.513-.168 1.035-.15 1.558-.156 1.595-.012 3.189-.012 4.783-.006 3.372.024 6.744.072 10.11.072 1.804 0 3.603 0 5.406.066 1.882.073 3.764.03 5.646.012 1.751-.018 3.502-.084 5.254.012.313.018.627-.018.94-.012.649.018.858.307.821 1.09-.005.066-.02.126-.031.187z" stroke="#000" fill="#191524" fill-rule="nonzero"/><path d="M36.625 43.978c-.292.355-.65.38-1.03.392-3.78.084-7.56-.097-11.337.072a51.346 51.346 0 0 1-3.335.024c-1.23-.03-2.458.018-3.688.03l-9.736.108c-.279 0-.557-.024-.835-.03-.427 0-.826-.138-1.183-.445-.2-.83-.06-1.192.543-1.415.454-.168.918-.15 1.382-.156 1.415-.012 2.83-.012 4.244-.006 2.992.024 5.984.072 8.972.072 1.6 0 3.196 0 4.796.066 1.67.072 3.34.03 5.01.012 1.554-.018 3.108-.084 4.662.012.278.018.556-.018.835-.012.575.018.76.307.728 1.09-.005.066-.019.126-.028.186zM6.422 28.003c.262.12.28.265.29.42.062 1.54-.072 3.079.053 4.617.035.453.035.905.018 1.358-.023.5.013 1.001.022 1.502l.08 3.965c0 .113-.018.227-.022.34 0 .174-.103.336-.33.482-.615.081-.882.024-1.047-.221-.125-.185-.112-.374-.116-.563a74.501 74.501 0 0 1-.005-1.729c.018-1.218.054-2.437.054-3.653 0-.652 0-1.302.049-1.954.053-.68.022-1.36.009-2.04-.014-.633-.063-1.266.009-1.899.013-.113-.014-.226-.01-.34.014-.234.228-.31.807-.296.05.002.094.007.139.011zM40.374 25.225c.263.108.281.24.29.381.062 1.4-.071 2.8.053 4.198.036.413.036.823.018 1.235-.022.456.014.91.023 1.366l.08 3.605c0 .104-.018.207-.022.31 0 .158-.103.305-.33.438-.615.074-.883.022-1.048-.201-.124-.169-.11-.34-.115-.512a61.595 61.595 0 0 1-.005-1.572c.018-1.108.054-2.216.054-3.322 0-.593 0-1.184.049-1.776.053-.619.022-1.237.009-1.855-.014-.576-.063-1.151.008-1.727.014-.103-.013-.206-.008-.309.013-.213.227-.281.806-.27.05.002.094.007.138.01z" stroke="#000" fill="#191524" fill-rule="nonzero"/><path d="M55.586 39.028c.163.21.32.427.5.626.198.223.397.451.638.626.036.016.313.283.83.8.567.603 1.054 1.199 1.656 1.692 7.05 7.344 3.341 5.635 3.203 6.195-.024.102-3.715-4.31-3.78-4.214-.23-.235-.464-.464-.693-.705-3.341-3.527-6.827-6.91-10.51-10.089a29.765 29.765 0 0 0-2.342-1.824c-1.349-.945-2.848-1.505-4.45-1.836-.101-.06-.216-.108-.306-.193-.385-.36-.38-.668.006-1.065.06-.06.138-.114.205-.169 2.034.024 3.888.596 5.55 1.782.903.644 1.776 1.33 2.618 2.047 2.15 1.824 4.19 3.768 6.2 5.737.218.21.398.457.675.59z" stroke="#000" fill="#191524" fill-rule="nonzero"/><g fill="#191524" fill-rule="nonzero" stroke="#000"><path d="M23.569 52.438c.11.025.267.058.424.091 2.186.412 2.773 2.601 1.807 4.293-.26.454-.634.818-1.064 1.123-.394.28-.78.56-1.158.849-.581.436-.731 1.022-.587 1.703.052.236.155.455.19.696.029.232.03.484-.015.713-.063.348-.3.562-.65.62-.351.058-.63-.083-.827-.375-.231-.337-.296-.745-.383-1.125-.344-1.468.028-2.685 1.284-3.591.421-.3.858-.596 1.273-.904.36-.268.654-.587.758-1.042.134-.588-.065-1.026-.601-1.281-1.149-.548-2.286-.346-3.205.532-.441.426-.713.96-1.007 1.482-.136.247-.327.477-.664.399-.236-.054-.394-.339-.38-.678.015-.404.1-.789.265-1.16.816-1.822 2.5-2.709 4.54-2.345zM22.384 65.204c.501.063.876.52.824 1a.892.892 0 0 1-1.004.8c-.543-.062-.91-.567-.805-1.127.084-.426.522-.73.985-.673z"/></g><g fill="#191524" fill-rule="nonzero" stroke="#000"><path d="M33.774 2.95c.146.044.354.104.563.163 2.905.76 3.49 3.763 2.029 5.95-.392.588-.93 1.042-1.538 1.413a54.42 54.42 0 0 0-1.64 1.033c-.824.533-1.08 1.308-.95 2.238.048.323.166.628.19.956.017.315-.006.655-.087.958-.118.463-.458.729-.935.774-.478.046-.839-.171-1.078-.582-.279-.476-.328-1.032-.409-1.551-.325-2.01.29-3.614 2.067-4.716.596-.363 1.212-.72 1.8-1.097.508-.327.935-.729 1.118-1.331.236-.78.01-1.388-.689-1.783-1.495-.845-3.045-.68-4.366.416-.634.531-1.05 1.225-1.495 1.9-.207.32-.486.611-.932.475-.312-.095-.498-.493-.448-.949.058-.542.21-1.052.466-1.538 1.271-2.375 3.623-3.411 6.334-2.73z" stroke-width=".5"/><path d="M30.976 20.029c.67.132 1.131.784 1.017 1.424a1.204 1.204 0 0 1-1.428.983c-.725-.134-1.172-.849-.977-1.594.152-.565.771-.933 1.388-.813z"/></g><g fill="#191524" fill-rule="nonzero"><path d="M55.504 6.675c.211.015.513.03.814.045 4.176.12 5.91 4.01 4.613 7.432-.346.92-.934 1.704-1.643 2.397a75.72 75.72 0 0 0-1.9 1.915c-.949.98-1.055 2.11-.587 3.331.166.423.422.8.558 1.237.12.422.196.889.18 1.326-.015.663-.392 1.13-1.025 1.342-.633.21-1.19.03-1.643-.452-.527-.558-.769-1.297-1.04-1.975-1.07-2.623-.739-4.99 1.327-7.04.693-.679 1.417-1.357 2.095-2.05.588-.604 1.04-1.282 1.1-2.156.076-1.13-.422-1.885-1.492-2.201-2.291-.679-4.342.03-5.789 1.93-.693.919-1.04 1.99-1.432 3.045-.18.497-.467.98-1.115.934-.453-.03-.83-.512-.905-1.145a5.866 5.866 0 0 1 .15-2.232c.98-3.618 3.845-5.758 7.734-5.683z"/><path d="M57.057 30.706c.95-.03 1.779.709 1.824 1.613.045.965-.663 1.734-1.628 1.78-1.025.045-1.855-.785-1.824-1.855.03-.814.753-1.507 1.628-1.538z" stroke="#000"/></g></g></svg>