<svg width="72" height="72" xmlns="http://www.w3.org/2000/svg"><g fill="none" fill-rule="evenodd"><path d="M62.04 30.888 23.534 10.204C11.928 3.97.26 18.804 9.25 28.365l28.89 30.728c4.564 4.854 12.365 4.834 17.036-.043l9.617-10.043c5.317-5.552 3.955-14.517-2.751-18.12" fill="#FAE041" style="mix-blend-mode:multiply"/><path d="M36.864 22.994c-7.656-2.032-12.816-1.285-15.724-.156-2.908 1.129-6.165 1.976-6.819 3.578-.435 1.069-.857 11.36-1.265 30.871 11.825 5.728 22.482 5.906 31.974.533.105-2.08-.103-11.682-.625-28.807.077-2.658-2.437-4.664-7.541-6.02z" fill="#FFF"/><path d="M43.906 51.158c-4.652 2.862-9.611 3.861-14.825 3.767-5.125-.095-10.094-.963-14.931-3.419 0 1.864-.045 3.52.037 5.173.014.327.469.72.816.927 4.977 2.96 10.375 3.76 16.087 3.036 4.18-.53 8.171-1.638 11.96-3.458 1.214-.581 2.156-.425 2.565.403.407.821-.007 1.733-1.174 2.318a38.51 38.51 0 0 1-14.344 3.985c-5.358.421-10.438-.327-15.142-2.975-.88-.494-1.835-.985-2.47-1.718-.532-.61-.868-1.566-.901-2.383-.163-3.96-.178-7.923-.281-11.886-.066-2.478-.188-4.959-.299-7.436-.037-.829.173-1.544 1.104-1.653.975-.113 1.503.523 1.499 1.41-.004.995.528 1.336 1.359 1.732 6.062 2.866 12.435 3.618 19.045 2.837a22.121 22.121 0 0 0 8.787-2.99c.576-.341.857-.722.824-1.416-.056-1.294-.015-2.59-.015-3.746-2.57.61-5.129 1.3-7.724 1.817-6.233 1.235-12.373.588-18.388-1.243-1.4-.425-2.777-1.202-3.91-2.121-2.408-1.944-2.16-4.777.399-6.535 2.17-1.49 4.608-2.329 7.181-2.816 5.383-1.02 10.778-1.006 16.169-.065.8.142 1.595.44 2.337.781.69.32 1.38.807 1.023 1.718-.34.861-1.138.676-1.854.592-2.725-.316-5.439-.759-8.171-.915-3.467-.203-6.945-.01-10.29 1.003-1.525.461-2.995 1.173-4.394 1.94-1.24.679-1.263 1.416-.052 2.16 1.134.695 2.385 1.32 3.67 1.636 4.246 1.046 8.57 1.798 12.96 1.282 2.64-.309 5.247-.941 7.846-1.533 1.37-.312 2.463-.995 2.673-2.63.056-.436.816-1.068 1.285-1.097.48-.03 1.278.476 1.44.926.466 1.272.912 2.627.946 3.956.158 6.553.18 13.11.24 19.667.003.33.048.756-.133.97-.37.44-.92 1.105-1.326 1.061-.51-.058-1.1-.65-1.38-1.155-.267-.483-.17-1.152-.248-1.907zM14.02 42c0 1.627.04 3.244-.018 4.855-.03.805.341 1.186 1.104 1.517 5.08 2.19 10.45 2.87 15.976 2.555 3.543-.202 6.96-.997 9.979-2.826.733-.444 1.701-1.074 1.83-1.74.252-1.31-.007-2.704-.057-4.093-9.792 4.239-19.328 3.636-28.814-.268z" fill="#000" fill-rule="nonzero"/></g></svg>