<?xml version="1.0" encoding="UTF-8"?>
<svg width="72px" height="72px" viewBox="0 0 72 72" version="1.1" xmlns="http://www.w3.org/2000/svg" xmlns:xlink="http://www.w3.org/1999/xlink">
    <title>Programming@1x</title>
    <g id="Programming" stroke="none" stroke-width="1" fill="none" fill-rule="evenodd">
        <path d="M56.8450468,18.0369984 L30.4357021,13.6134632 C27.8720361,13.1846238 25.2560336,13.9856168 23.3764515,15.7753228 L14.8488932,23.8953381 C12.4216319,26.2067164 11.6431775,29.7544993 12.881122,32.8648168 L23.8042099,60.3125882 C25.28282,64.0279635 29.2290771,66.1438173 33.1543172,65.3247506 L61.9707303,59.3115523 C65.4031003,58.5955878 68.0050915,55.7933445 68.4555154,52.3268932 L70.2316607,38.6705785 C70.462436,36.8952493 70.1051464,35.0932204 69.214189,33.5388832 L62.6350334,22.0629126 C61.4086277,19.9232343 59.2834348,18.4452995 56.8450468,18.0369984" id="Fill-4" fill="#20BEFF" style="mix-blend-mode: multiply;" transform="translate(41.300000, 39.500000) rotate(24.000000) translate(-41.300000, -39.500000) "></path>
        <g id="Icon" transform="translate(4.523929, 9.052133)">
            <g id="white-fill" transform="translate(0.594938, 1.036448)" fill="#FFFFFF">
                <rect id="Rectangle" x="4.0937804" y="0" width="49.316211" height="33.2552185" rx="4"></rect>
                <path d="M57.3293948,29.3618339 L57.3293948,30.8732307 C57.3293948,33.0823697 55.5385338,34.8732307 53.3293948,34.8732307 L4,34.8732307 C1.790861,34.8732307 2.705415e-16,33.0823697 0,30.8732307 L0,29.6815766 L0,29.6815766 L57.3293948,29.3618339 Z" id="Rectangle-Copy"></path>
            </g>
            <path d="M44.9441066,0.0526160699 C46.7831691,0.117144579 48.6222317,0.213937343 50.4612942,0.536579889 C51.5582788,0.730165416 52.5262065,1.18186498 53.3650771,1.95620709 C53.9135694,2.47243516 54.1716834,3.05319175 54.2039477,3.7952696 C54.5588545,12.1194473 54.9782898,20.4113607 55.0750826,28.7355384 C55.1073468,30.2519584 54.9137613,30.1229013 56.526974,30.1551656 L57.0432021,30.1551656 C58.172451,30.1874299 58.7209433,30.7359222 58.5596221,31.8651711 C58.4950936,32.4459277 58.3337723,33.0589485 58.0111297,33.6074408 C56.9464093,35.3497106 55.6881034,36.4789595 53.3650771,36.543488 C46.9122262,36.672545 40.427111,36.7370735 33.9742601,36.8338663 C30.0057568,36.8983948 26.0372534,36.7370735 22.1010144,36.7370735 C17.7130758,36.7370735 13.2928729,36.801602 8.90493427,36.8338663 C8.03379939,36.8338663 7.13040026,36.7693378 6.25926539,36.7370735 C6.00115135,36.7370735 5.71077306,36.672545 5.77530157,36.285374 C5.80756583,35.9949957 5.90435859,35.7691459 6.22700113,35.7368816 C6.58190794,35.7046174 6.93681474,35.6723531 7.29172154,35.6723531 C13.1315516,35.5432961 19.003646,35.2206536 24.843476,35.2529178 C28.392544,35.2851821 31.9738763,35.3819748 35.5229443,35.3174463 C41.0401318,35.1883893 46.5250551,35.4142391 52.0422426,35.3174463 L53.106963,35.3174463 C55.4622536,35.2851821 56.4624455,34.639897 57.3658447,32.5104562 C57.7530157,31.6070571 57.4949017,31.2521503 56.4624455,31.2844145 C50.2999729,31.5747928 44.1375003,31.6715856 37.9750276,31.8329068 C37.136157,31.8651711 36.4921523,32.0830245 35.9613568,32.5278525 C35.4305613,32.9726805 34.129159,33.1772578 32.9676458,33.209522 C29.8057489,33.3063148 27.7750236,33.3744891 24.6131267,33.0841108 C23.9033131,33.0195823 21.933689,33.0311376 21.8106361,32.6072489 C21.6493148,32.1878136 21.3912008,31.9296996 20.8427085,31.9296996 C14.3575933,31.9619639 7.90474237,31.9296996 1.4196272,31.9296996 C1.38736295,31.9296996 1.32283444,31.9619639 1.29057018,31.9619639 C1.48415571,33.2847983 1.48415571,33.2847983 3.77491779,35.6078246 C3.58133226,35.9949957 3.16189695,35.9949957 2.90378291,35.8336744 C1.32283444,34.8334825 0.0322642546,33.6719693 0,31.5425285 C0,30.8327149 0.258114037,30.5746009 0.871134874,30.5423367 C1.90359102,30.5100724 2.96831142,30.4455439 3.93623906,30.4132796 C3.93623906,28.6064814 4.00076757,26.8964759 3.93623906,25.1864704 C3.71038928,19.4111688 3.96850331,13.6681315 4.00076757,7.89282993 L4.00076757,7.6347159 C4.03303182,7.31207335 3.96850331,6.86037379 4.48473139,6.86037379 C5.00095946,6.86037379 4.9041667,7.34433761 4.93643095,7.66698015 C5.03322372,10.2481205 5.09775222,12.8615251 5.22680924,15.4426655 C5.42039477,19.6692829 5.38813052,23.8959002 5.38813052,28.1225176 C5.38813052,28.7355384 5.29133775,29.3485592 5.2590735,29.9615801 C5.03322372,30.2842226 4.9041667,30.4778081 5.35586626,30.4455439 C5.9688871,30.4455439 6.58190794,30.4455439 7.19492877,30.4132796 C7.3885143,30.4778081 8.5879679,30.4455439 8.62023215,30.2196941 C8.91061044,27.670818 8.68476066,25.1219419 8.5879679,22.5730658 C8.45891088,19.2821118 8.03947557,15.9911578 7.97494706,12.7002039 C7.91041855,10.441706 8.16853259,8.21547248 8.29758961,5.98923891 C8.36211812,5.24716106 8.99360602,5.31804176 9.76794813,5.18898474 C11.4752892,5.06598023 12.0023027,5.09151596 13.7123082,5.05925171 C18.4228894,4.96245895 23.1334705,4.93019469 27.8440517,4.83340193 C30.0057568,4.80113767 32.1674618,4.96245895 34.2969026,5.02698745 C38.652577,5.18830873 43.0082514,5.22057298 47.3639257,5.09151596 C47.7188325,5.09151596 48.0737393,5.05925171 48.4286461,5.12378022 C49.3965738,5.25283724 48.8424053,5.73680106 48.939198,6.70472869 C49.5199546,11.7379524 49.8748614,15.7007795 49.5522189,20.7662675 C49.3586333,23.6055219 49.3908976,26.4770406 49.4876904,29.3485592 C49.4876904,29.8970516 50.7194082,30.1551656 51.3001648,30.1229013 C52.1390354,30.0583728 53.1714916,30.4778081 53.7199839,29.9615801 C54.2684762,29.4130877 53.8490409,28.3806316 53.8167766,27.5740252 C53.4296056,19.8951326 53.0746988,12.1839758 53.0746988,4.47281895 C53.0746988,3.40809855 52.5584707,2.92413473 51.5905431,2.34337815 C50.1063874,1.47224327 48.5254389,1.47224327 46.9122262,1.34318625 C43.8148577,1.10492714 40.7297077,1.15991001 37.6492571,1.25248801 L35.3396827,1.32497611 C34.1852187,1.36075023 33.0311511,1.39282357 31.8770835,1.40771476 C24.6498905,1.47224327 17.4549617,1.82715007 10.2277687,1.73035731 C9.06625554,1.73035731 7.90474237,1.69809305 6.74322921,2.11752836 C6.03341561,2.3756424 5.51718753,2.76281346 5.32360201,3.47262706 C5.22680924,3.89206237 5.16228073,4.34376193 5.00095946,4.73093298 C4.83963819,5.11810404 4.80737393,5.73112488 4.12982459,5.79565339 C3.93623906,4.73093298 4.03303182,3.56941982 4.38793862,2.7305492 C4.80737393,1.76262156 5.77530157,0.988279453 7.06587175,0.859222435 C10.1309759,0.504315634 13.1960801,0.439787125 16.2934486,0.342994361 C21.5847863,0.213937343 26.8438598,0.213937343 32.1351976,0.181673088 C36.3940792,0.149408834 40.6529608,-0.108705203 44.9441066,0.0526160699 Z M46.6648745,5.82709762 C44.1879116,5.95334644 41.6799867,6.14271967 39.2030238,6.14271967 C31.9269453,6.17428188 24.6818289,6.11115747 17.4057505,6.11115747 L10.067748,6.11115747 L10.067748,6.11115747 C9.57235538,6.11115747 9.23177299,6.23740629 9.29369706,6.80552597 C9.44850724,8.09957637 9.20081095,9.39362677 9.20081095,10.6876772 C9.13888688,13.5282756 9.35562113,16.368874 9.3246591,19.2094725 C9.29369706,22.681315 9.69620353,26.1847198 9.47946928,29.6565623 C9.44850724,30.2878064 9.63427946,30.4771796 10.2535202,30.4456174 C12.2350905,30.382493 14.2166608,30.3509308 16.1982311,30.3193686 C25.0224113,30.1615576 33.8465916,29.8774977 42.6707718,30.0984332 C44.7142662,30.1299954 46.7887226,30.0984332 48.9560651,30.0984332 C48.9560651,29.5618757 49.0179892,29.151567 48.9560651,28.7096961 C48.6464448,26.4687796 48.6774068,24.2278631 48.7393309,22.0185087 C48.894141,17.0001181 48.4916346,12.044852 48.1510522,7.05802361 C48.0581661,5.7008488 48.027204,5.73241101 46.6648745,5.82709762 Z" id="Combined-Shape" stroke="#000000" fill="#151515" fill-rule="nonzero"></path>
        </g>
        <path d="M46.4463549,20.860736 C47.0473737,21.3695729 47.7773169,21.925651 48.3197586,22.7310816 C50.1378803,25.3998747 48.4146715,29.1211262 46.5681948,30.1997371 C46.2667427,30.3778853 45.9275267,30.5657556 45.5876516,30.6532551 C41.9330296,31.73488 38.3861529,28.4856358 39.1326808,24.6538814 C39.557694,22.5537628 40.9099452,21.0996862 42.8182939,20.2263355 C43.7161519,19.8544289 45.2690844,20.1584154 46.4463549,20.860736 Z M45.5228142,22.5196729 C45.0386811,22.1802417 44.2974459,21.8278004 43.4390492,22.1403736 C41.7792753,22.7273273 40.8814577,24.2702506 40.9042367,25.6132899 C40.923893,27.5449582 41.7480492,28.6136171 43.613068,29.0776962 C45.030234,29.4095708 46.4132134,28.5758342 46.9326339,27.0548411 C47.6013447,25.2949335 47.1255326,23.6688076 45.5228142,22.5196729 Z" id="Shape" fill="#2D2C2E" fill-rule="nonzero"></path>
        <g id="Group" transform="translate(33.663180, 26.085476) rotate(-288.000000) translate(-33.663180, -26.085476) translate(30.128197, 22.549721)" fill="#2B2B2D" fill-rule="nonzero">
            <path d="M4.33401023,4.17770659 C4.16303796,4.20080822 3.87465823,4.26205785 3.57711193,4.24515932 C2.40123223,4.22159297 1.22535253,4.19802662 0.0546117604,4.14033991 C-0.272286406,4.13297837 -0.608351139,4.04746866 -0.929739938,3.95719046 C-1.21700837,3.87205119 -1.40483203,3.54367129 -1.36372056,3.27070835 C-1.32737759,2.98306949 -1.12117366,2.81871789 -0.876821723,2.77177376 C-0.549182689,2.6815427 -0.212006654,2.6206635 0.105354513,2.59867317 C1.26729915,2.52941542 2.45345671,2.48474103 3.62493835,2.44483515 C3.86415135,2.43201139 4.12243835,2.47789136 4.36604941,2.52853982 C4.77035488,2.6243274 5.05100264,2.93877223 5.07262254,3.3049297 C5.1235943,3.66155017 4.87225126,3.98659616 4.33401023,4.17770659 Z" id="Path" transform="translate(1.854861, 3.345363) rotate(288.000000) translate(-1.854861, -3.345363) "></path>
            <path d="M2.20523079,4.26797219 C2.02254606,3.90547192 2.1821763,3.44797209 2.50027833,3.32838916 C2.81838037,3.20880623 3.1507879,3.1332511 3.4780565,3.09181634 C4.65027901,2.95431785 5.82176064,2.91441197 6.99764034,2.93797832 C7.24162184,2.93983049 7.49514034,2.97103452 7.74351991,3.03635893 C8.13791794,3.15159093 8.39875083,3.50492463 8.38625036,3.86594317 C8.37412033,4.1781654 8.13745322,4.4984429 7.78046232,4.59821096 C7.54087889,4.65983102 7.28185102,4.71154365 7.03786952,4.70969148 C5.76916572,4.7000602 4.51513785,4.68566042 3.25634148,4.6565847 C3.01235998,4.65473253 2.76398042,4.58940813 2.52550829,4.5046393 C2.37948982,4.45473169 2.26833259,4.31237043 2.20523079,4.26797219 Z" id="Path" transform="translate(5.257429, 3.820680) rotate(288.000000) translate(-5.257429, -3.820680) "></path>
        </g>
        <path d="M22.954832,28.1209743 C22.5104852,28.1913092 22.3344176,28.5339204 22.0957789,28.8045518 C21.5418174,29.4756612 20.8760044,30.0544436 20.1945486,30.6152311 C19.9089816,30.8318777 19.6077719,31.0305293 19.2932715,31.1775483 C18.7698884,31.4113674 18.2833176,31.3604419 17.8719012,30.9598487 C17.4761277,30.5772505 17.4668342,29.9850622 17.7782751,29.3984007 C18.0106797,28.9752235 18.3682265,28.6960058 18.6944877,28.3807983 C19.344658,27.7840209 19.9768333,27.2028862 20.5957181,26.570119 C20.9243315,26.2212737 20.9228018,26.0014524 20.5943036,25.6235585 C19.890379,24.8137859 19.1528167,24.0016611 18.4668871,23.1762457 C18.2322455,22.9063215 17.9819612,22.6184024 17.8529372,22.2882593 C17.6769849,21.9041313 17.723206,21.484836 18.0338244,21.1516335 C18.3264479,20.8340737 18.8897029,20.7551527 19.3105279,21.021195 C19.5702209,21.1745633 19.7915719,21.3928548 20.0129228,21.6111464 C20.7395467,22.3380008 21.4661706,23.0648552 22.1927945,23.7917096 C22.4610738,24.063986 22.6965378,24.0804513 22.9844569,23.830167 C23.4883155,23.3921694 24.0078168,22.9721669 24.5116753,22.5341693 C24.8715742,22.2213139 25.2604065,21.9780862 25.7227483,21.8921086 C26.1514524,21.8037788 26.5504006,21.8992804 26.8296183,22.2568271 C27.0619076,22.5603891 27.064967,23.0000315 26.7496442,23.4005095 C26.3036524,23.9777622 25.8287273,24.4853874 25.3670927,25.0446452 C25.184791,25.2347106 24.9868466,25.406781 24.8225399,25.5812037 C24.4939265,25.9300489 24.493104,26.1835079 24.8263065,26.4941264 C25.5529304,27.2209808 26.2975493,27.9321924 27.0241732,28.6590468 C27.3080952,28.9493182 27.5896651,29.2732272 27.8039595,29.5924319 C28.1386917,30.1228716 28.0243727,30.7909216 27.6441266,31.1530574 C27.2842277,31.4659128 26.6560495,31.5064918 26.2039389,31.2044596 C25.8347465,30.9251267 25.501544,30.6145082 25.1863364,30.288247 C24.4127842,29.5074077 23.776135,28.7023395 22.954832,28.1209743 Z" id="Path" fill="#2D2C2E" fill-rule="nonzero"></path>
    </g>
</svg>