<svg width="72" height="72" xmlns="http://www.w3.org/2000/svg"><g fill="none" fill-rule="evenodd"><path d="M4.27 55.081c7.164.005 13.6-7.288 20.766-7.289 7.178 0 15.087 7.279 22.264 7.283 9.591.007 15.627-10.547 10.826-18.988 0 0-17.212-27.015-33.697-27.006-16.486.01-30.915 27.09-30.915 27.09-4.82 8.38 1.165 18.904 10.755 18.91z" fill="#20BEFF" style="mix-blend-mode:multiply" transform="rotate(-62 25.81 32.081)"/><circle fill="#FFF" cx="60.5" cy="14.5" r="3.5"/><circle fill="#FFF" cx="60.5" cy="34.5" r="3.5"/><circle fill="#FFF" cx="60.5" cy="53.5" r="3.5"/><circle fill="#FFF" cx="36.5" cy="44.5" r="3.5"/><circle fill="#FFF" cx="36.5" cy="24.5" r="3.5"/><circle fill="#FFF" cx="13.5" cy="35.5" r="3.5"/><g fill-rule="nonzero" stroke="#000"><path d="M19.012 35.4c.807-.638 1.453-.046 2.07.335a532.493 532.493 0 0 1 9.145 5.726c.6.388.877.41 1.376-.192 2.778-3.344 7.716-2.716 9.517 1.172.112.24.186.449.44.589 4.585 2.515 8.756 5.658 12.903 8.827.058.042.129.068.341.176.363-1.279 1.132-2.262 2.222-2.984 1.993-1.318 4.054-1.392 6.131-.263 1.753.953 2.685 2.95 2.367 4.867-.386 2.323-2.016 4.116-4.045 4.432-.582.09-1.177.107-1.714-.195-.399-.225-.717-.524-.624-1.061.084-.482.431-.683.85-.735a4.072 4.072 0 0 0 2.015-.804c.923-.7 1.392-2.099 1.055-3.072-.318-.924-1.363-1.61-2.52-1.666-1.776-.081-3.4 1.243-3.387 2.747.007.719.39 1.252.772 1.796.48.676.669 1.412-.093 1.949-.704.494-1.434.126-1.781-.528-.553-1.05-1.528-1.522-2.399-2.17-4.074-3.013-8.427-5.629-12.36-9.022-.266.553-.479 1.04-.736 1.506-.868 1.578-2.697 2.597-4.28 2.366-.633-.092-1.282-.297-1.334-1.07-.054-.801.582-.873 1.19-.993 1.563-.313 2.566-1.299 2.784-2.626.177-1.084-.225-1.887-1.128-2.444-1.116-.686-2.614-.53-3.807.375-1.125.852-1.344 2-.617 3.211.077.127.157.25.247.368.528.709.904 1.526.007 2.115-.865.569-1.495-.088-1.99-.798-.36-.517-.792-1.038-.856-1.659-.11-1.057-.775-1.5-1.588-1.998-3.257-1.991-6.47-4.05-9.685-6.11-1.173-.752-1.276-1.266-.562-2.184.003.013.074.017.074.017zM41.895 23.291c2.487-2.14 5.196-3.829 7.781-5.689.812-.585 1.676-1.098 2.514-1.643.383-.25.844-.516 1.247-.335 1.117.506 1.166-.027 1.217-.97.137-2.445 2.608-4.552 5.31-4.65 2.774-.099 5.187 1.696 5.563 4.144.396 2.554-1.276 5.232-3.702 5.919-.766.217-1.536.26-2.25-.17-.37-.224-.605-.55-.507-1.03.088-.43.4-.647.776-.693.676-.089 1.3-.292 1.867-.654 1.075-.684 1.663-2.103 1.338-3.198-.318-1.074-1.604-1.85-2.932-1.761-1.643.108-3.024 1.337-3.06 2.691-.019.73.332 1.289.731 1.83.49.665.754 1.414.02 1.986-.796.618-1.471.095-1.968-.585-.393-.532-.715-1.117-1.15-1.808-.441 1.177-1.387 1.686-2.254 2.281-3.306 2.268-6.608 4.539-9.93 6.78-.517.348-.871.746-1.124 1.315-.783 1.761-2.173 2.681-4.066 2.826-.413.033-.819-.033-1.18-.24-.402-.23-.723-.532-.623-1.075.088-.486.442-.686.861-.736a4.16 4.16 0 0 0 1.949-.746c.96-.683 1.474-2.034 1.185-3.063-.286-1.009-1.432-1.771-2.692-1.788-1.76-.02-3.32 1.302-3.306 2.78.006.727.396 1.266.782 1.815.484.684.676 1.426-.1 1.965-.712.497-1.332.063-1.825-.522-1.498-1.782-1.741-4.141-.62-5.936 1.233-1.978 3.945-3.079 6.205-2.53 1.887.453 3.209 1.584 3.943 3.49zm12.772-7.187c-.058-.073-.12-.148-.178-.224-.049.043-.15.118-.143.128.062.102.14.194.211.29.03-.06.062-.116.11-.194z" fill="#060606"/><path d="M52.633 34.731c-2.886-2.024-5.775-4.047-8.664-6.07-.177-.128-.364-.241-.539-.371-.656-.494-1.157-1.069-.682-1.956.397-.737 1.18-.85 2.071-.247 1.567 1.06 3.099 2.17 4.643 3.262 1.605 1.133 3.225 2.244 4.805 3.414.542.402.754.412 1.094-.26 1.078-2.14 3.43-3.31 5.813-3.002 2.318.3 4.255 2.222 4.398 4.366.175 2.608-1.383 4.954-3.717 5.57-.675.18-1.363.215-2.007-.126-.4-.211-.707-.523-.615-1.056.082-.48.425-.682.837-.734a4.027 4.027 0 0 0 1.988-.799c.91-.698 1.373-2.092 1.04-3.063-.313-.92-1.34-1.611-2.483-1.663-1.75-.084-3.352 1.238-3.345 2.735.003.718.38 1.254.758 1.793.472.672.666 1.407-.083 1.946-.691.497-1.268.042-1.792-.494-.472-.48-.52-1.556-1.198-1.51-.571.039-1.075.802-1.646 1.182a1236.57 1236.57 0 0 1-8.176 5.428c-.732.484-1.541.688-2.093-.198-.542-.874-.057-1.547.682-2.044 2.743-1.851 5.49-3.696 8.233-5.544.244-.163.551-.234.678-.559zM19.98 35.941h-.07c-.856-.217-1.178.325-1.408.992-.575 1.652-1.646 2.8-3.371 3.269-.68.185-1.364.239-2.022-.08-.413-.198-.745-.469-.687-.995.057-.533.434-.733.894-.79a4.022 4.022 0 0 0 1.997-.808c.872-.676 1.323-1.98 1.032-2.92-.284-.913-1.307-1.624-2.46-1.688-1.166-.06-2.14.39-2.914 1.231-.76.83-.7 1.837.163 3.074.476.683.792 1.362.054 2.029-.546.494-1.358.185-2.013-.696-1.9-2.557-1.418-5.402 1.218-7.165 2.61-1.748 6.246-1.085 7.76 1.511.438.753.703.72 1.336.29 2.613-1.782 5.259-3.517 7.898-5.265.454-.3.923-.583 1.402-.838.764-.405 1.588-.62 2.09.306.47.864-.115 1.419-.821 1.856-.959.596-1.904 1.205-2.86 1.805-2.31 1.45-4.62 2.899-6.923 4.356-.17.102-.572.143-.294.526z" fill="#060606"/><path d="M55.278 16.297c-.045.08-.077.132-.109.186-.07-.093-.147-.183-.208-.282-.006-.01.09-.084.141-.125.058.077.119.15.176.221z" fill="#FEFEFE"/></g></g></svg>