<svg width="72" height="72" xmlns="http://www.w3.org/2000/svg" xmlns:xlink="http://www.w3.org/1999/xlink"><defs><path d="M2.464.156c-.188.068-.412.34-.414.516-.001.175.231.395.419.508.163.097.407.064.612.1.742.135 1.145.64 1.113 1.391-.031.739-.437 1.273-1.029 1.356-.597.084-1.35-.437-1.553-1.06-.18-.55-.102-1.088 0-1.64.029-.161-.07-.448-.195-.506C1.26.748.953.783.817.893a1.39 1.39 0 0 0-.44.666c-.11.398-.125.821-.18 1.233.206 1.622 1.79 2.856 3.3 2.528 1.073-.233 1.846-1.08 2.007-2.202.166-1.15-.327-2.209-1.273-2.7-.388-.2-.794-.36-1.216-.36-.18 0-.364.029-.55.098z" id="a"/><path d="M2.464.156c-.188.068-.412.34-.414.516-.001.175.231.395.419.508.163.097.407.064.612.1.742.135 1.145.64 1.113 1.391-.031.739-.437 1.273-1.029 1.356-.597.084-1.35-.437-1.553-1.06-.18-.55-.102-1.088 0-1.64.029-.161-.07-.448-.195-.506C1.26.748.953.783.817.893a1.39 1.39 0 0 0-.44.666c-.11.398-.125.821-.18 1.233.206 1.622 1.79 2.856 3.3 2.528 1.073-.233 1.846-1.08 2.007-2.202.166-1.15-.327-2.209-1.273-2.7-.388-.2-.794-.36-1.216-.36-.18 0-.364.029-.55.098z" id="c"/><path d="M2.464.156c-.188.068-.412.34-.414.516-.001.175.231.395.419.508.163.097.407.064.612.1.742.135 1.145.64 1.113 1.391-.031.739-.437 1.273-1.029 1.356-.597.084-1.35-.437-1.553-1.06-.18-.55-.102-1.088 0-1.64.029-.161-.07-.448-.195-.506C1.26.748.953.783.817.893a1.39 1.39 0 0 0-.44.666c-.11.398-.125.821-.18 1.233.206 1.622 1.79 2.856 3.3 2.528 1.073-.233 1.846-1.08 2.007-2.202.166-1.15-.327-2.209-1.273-2.7-.388-.2-.794-.36-1.216-.36-.18 0-.364.029-.55.098z" id="e"/><path d="M1.68.17c-.254.057-.522.209-.693.398-.275.308-.478.68-.71 1.024-.54 1.543.326 3.354 1.824 3.734 1.063.271 2.134-.142 2.779-1.074.661-.955.692-2.122.065-2.983C4.577.766 4.141.317 3.482.244c-.2-.023-.521.12-.602.278-.078.155.03.456.149.641.102.16.335.24.502.363.604.452.74 1.084.376 1.741-.357.648-.96.945-1.526.755-.572-.192-1.012-.994-.917-1.641.084-.573.395-1.02.732-1.469.098-.131.138-.432.052-.54-.094-.116-.32-.21-.49-.21a.358.358 0 0 0-.079.008z" id="g"/><path d="M1.68.17c-.254.057-.522.209-.693.398-.275.308-.478.68-.71 1.024-.54 1.543.326 3.354 1.824 3.734 1.063.271 2.134-.142 2.779-1.074.661-.955.692-2.122.065-2.983C4.577.766 4.141.317 3.482.244c-.2-.023-.521.12-.602.278-.078.155.03.456.149.641.102.16.335.24.502.363.604.452.74 1.084.376 1.741-.357.648-.96.945-1.526.755-.572-.192-1.012-.994-.917-1.641.084-.573.395-1.02.732-1.469.098-.131.138-.432.052-.54-.094-.116-.32-.21-.49-.21a.358.358 0 0 0-.079.008z" id="i"/><path d="M1.68.17c-.254.057-.522.209-.693.398-.275.308-.478.68-.71 1.024-.54 1.543.326 3.354 1.824 3.734 1.063.271 2.134-.142 2.779-1.074.661-.955.692-2.122.065-2.983C4.577.766 4.141.317 3.482.244c-.2-.023-.521.12-.602.278-.078.155.03.456.149.641.102.16.335.24.502.363.604.452.74 1.084.376 1.741-.357.648-.96.945-1.526.755-.572-.192-1.012-.994-.917-1.641.084-.573.395-1.02.732-1.469.098-.131.138-.432.052-.54-.094-.116-.32-.21-.49-.21a.358.358 0 0 0-.079.008z" id="k"/><path d="M2.5.275C2.103.391 1.734.6 1.355.768.08 1.792-.142 3.788.928 4.903c.76.792 1.887 1.007 2.927.558C4.92 5 5.565 4.026 5.489 2.963c-.047-.622-.18-1.233-.7-1.643-.158-.125-.507-.175-.658-.083-.15.09-.216.404-.213.623.002.19.158.38.234.574.274.703.055 1.31-.602 1.676-.646.36-1.314.295-1.694-.166-.384-.465-.334-1.379.09-1.878.374-.442.874-.658 1.398-.86.152-.06.345-.293.33-.43C3.651.603 3.461.36 3.296.303A1.403 1.403 0 0 0 2.844.23c-.12 0-.238.014-.344.045z" id="m"/><path d="M2.5.275C2.103.391 1.734.6 1.355.768.08 1.792-.142 3.788.928 4.903c.76.792 1.887 1.007 2.927.558C4.92 5 5.565 4.026 5.489 2.963c-.047-.622-.18-1.233-.7-1.643-.158-.125-.507-.175-.658-.083-.15.09-.216.404-.213.623.002.19.158.38.234.574.274.703.055 1.31-.602 1.676-.646.36-1.314.295-1.694-.166-.384-.465-.334-1.379.09-1.878.374-.442.874-.658 1.398-.86.152-.06.345-.293.33-.43C3.651.603 3.461.36 3.296.303A1.403 1.403 0 0 0 2.844.23c-.12 0-.238.014-.344.045z" id="o"/><path d="M2.5.275C2.103.391 1.734.6 1.355.768.08 1.792-.142 3.788.928 4.903c.76.792 1.887 1.007 2.927.558C4.92 5 5.565 4.026 5.489 2.963c-.047-.622-.18-1.233-.7-1.643-.158-.125-.507-.175-.658-.083-.15.09-.216.404-.213.623.002.19.158.38.234.574.274.703.055 1.31-.602 1.676-.646.36-1.314.295-1.694-.166-.384-.465-.334-1.379.09-1.878.374-.442.874-.658 1.398-.86.152-.06.345-.293.33-.43C3.651.603 3.461.36 3.296.303A1.402 1.402 0 0 0 2.844.23c-.12 0-.238.014-.344.045z" id="q"/><path d="M1.568.25C1.315.307 1.046.46.876.65.6.957.398 1.329.165 1.673c-.54 1.543.327 3.353 1.824 3.734 1.064.271 2.134-.142 2.78-1.074.661-.955.692-2.123.065-2.984C4.466.846 4.03.398 3.371.325c-.2-.023-.522.12-.602.278-.079.155.03.456.149.64.102.16.335.24.502.364.604.452.74 1.084.375 1.741-.357.648-.959.945-1.525.755-.572-.192-1.013-.994-.917-1.642.084-.572.395-1.02.732-1.468.098-.131.138-.432.052-.54-.094-.116-.32-.21-.49-.21a.36.36 0 0 0-.08.007z" id="s"/><path d="M1.568.25C1.315.307 1.046.46.876.65.6.957.398 1.329.165 1.673c-.54 1.543.327 3.353 1.824 3.734 1.064.271 2.134-.142 2.78-1.074.661-.955.692-2.123.065-2.984C4.466.846 4.03.398 3.371.325c-.2-.023-.522.12-.602.278-.079.155.03.456.149.64.102.16.335.24.502.364.604.452.74 1.084.375 1.741-.357.648-.959.945-1.525.755-.572-.192-1.013-.994-.917-1.642.084-.572.395-1.02.732-1.468.098-.131.138-.432.052-.54-.094-.116-.32-.21-.49-.21a.36.36 0 0 0-.08.007z" id="u"/><path d="M1.568.25C1.315.307 1.046.46.876.65.6.957.398 1.329.165 1.673c-.54 1.543.327 3.353 1.824 3.734 1.064.271 2.134-.142 2.78-1.074.661-.955.692-2.123.065-2.984C4.466.846 4.03.398 3.371.325c-.2-.023-.522.12-.602.278-.079.155.03.456.149.64.102.16.335.24.502.364.604.452.74 1.084.375 1.741-.357.648-.959.945-1.525.755-.572-.192-1.013-.994-.917-1.642.084-.572.395-1.02.732-1.468.098-.131.138-.432.052-.54-.094-.116-.32-.21-.49-.21a.36.36 0 0 0-.08.007z" id="w"/><path d="M.4 1.465c-.582 1.005-.52 2.172.174 2.98.408.472.879.884 1.541.903.2.007.51-.16.577-.325.067-.161-.066-.452-.198-.627-.115-.151-.354-.211-.53-.322-.639-.402-.825-1.02-.514-1.705.304-.674.88-1.019 1.46-.874.585.144 1.089.908 1.045 1.562-.037.577-.311 1.048-.612 1.523-.087.138-.102.441-.008.542.12.126.417.208.584.156.247-.077.502-.25.657-.453.25-.329.422-.716.627-1.077C5.617 2.166 4.608.43 3.084.172a2.651 2.651 0 0 0-.443-.038C1.726.134.89.62.4 1.465z" id="y"/><path d="M.4 1.465c-.582 1.005-.52 2.172.174 2.98.408.472.879.884 1.541.903.2.007.51-.16.577-.325.067-.161-.066-.452-.198-.627-.115-.151-.354-.211-.53-.322-.639-.402-.825-1.02-.514-1.705.304-.674.88-1.019 1.46-.874.585.144 1.089.908 1.045 1.562-.037.577-.311 1.048-.612 1.523-.087.138-.102.441-.008.542.12.126.417.208.584.156.247-.077.502-.25.657-.453.25-.329.422-.716.627-1.077C5.617 2.166 4.608.43 3.084.172a2.651 2.651 0 0 0-.443-.038C1.726.134.89.62.4 1.465z" id="A"/><path d="M.4 1.465c-.582 1.005-.52 2.172.174 2.98.408.472.879.884 1.541.903.2.007.51-.16.577-.325.067-.161-.066-.452-.198-.627-.115-.151-.354-.211-.53-.322-.639-.402-.825-1.02-.514-1.705.304-.674.88-1.019 1.46-.874.585.144 1.089.908 1.045 1.562-.037.577-.311 1.048-.612 1.523-.087.138-.102.441-.008.542.12.126.417.208.584.156.247-.077.502-.25.657-.453.25-.329.422-.716.627-1.077C5.617 2.166 4.608.43 3.084.172a2.651 2.651 0 0 0-.443-.038C1.726.134.89.62.4 1.465z" id="C"/><path d="M1.571.448C.587.935.044 1.945.161 3.073c.119 1.155.855 2.062 1.892 2.308.606.142 1.23.198 1.777-.175.167-.112.318-.43.276-.602-.041-.17-.32-.328-.53-.39-.181-.056-.41.036-.618.05-.752.05-1.266-.341-1.418-1.077-.15-.724.113-1.342.667-1.566.56-.227 1.416.095 1.765.65.31.489.364 1.03.4 1.59.011.164.176.418.312.444.17.032.46-.076.564-.216.155-.208.26-.498.266-.753.008-.413-.08-.827-.127-1.24C4.938.946 3.781.202 2.645.202c-.368 0-.734.078-1.074.246z" id="E"/><path d="M1.571.448C.587.935.044 1.945.161 3.073c.119 1.155.855 2.062 1.892 2.308.606.142 1.23.198 1.777-.175.167-.112.318-.43.276-.602-.041-.17-.32-.328-.53-.39-.181-.056-.41.036-.618.05-.752.05-1.266-.341-1.418-1.077-.15-.724.113-1.342.667-1.566.56-.227 1.416.095 1.765.65.31.489.364 1.03.4 1.59.011.164.176.418.312.444.17.032.46-.076.564-.216.155-.208.26-.498.266-.753.008-.413-.08-.827-.127-1.24C4.938.946 3.781.202 2.645.202c-.368 0-.734.078-1.074.246z" id="G"/><path d="M1.571.448C.587.935.044 1.945.161 3.073c.119 1.155.855 2.062 1.892 2.308.606.142 1.23.198 1.777-.175.167-.112.318-.43.276-.602-.041-.17-.32-.328-.53-.39-.181-.056-.41.036-.618.05-.752.05-1.266-.341-1.418-1.077-.15-.724.113-1.342.667-1.566.56-.227 1.416.095 1.765.65.31.489.364 1.03.4 1.59.011.164.176.418.312.444.17.032.46-.076.564-.216.155-.208.26-.498.266-.753.008-.413-.08-.827-.127-1.24C4.938.946 3.781.202 2.645.202c-.368 0-.734.078-1.074.246z" id="I"/></defs><g fill="none" fill-rule="evenodd"><path d="m52.541 12.148-29.964-5.02a9.373 9.373 0 0 0-8.01 2.454l-9.675 9.213a9.3 9.3 0 0 0-2.233 10.177l12.394 31.142c1.678 4.216 6.155 6.616 10.609 5.687l32.695-6.823a9.332 9.332 0 0 0 7.358-7.924l2.015-15.495a9.297 9.297 0 0 0-1.154-5.823l-7.465-13.02a9.35 9.35 0 0 0-6.57-4.568" fill="#20BEFF" style="mix-blend-mode:multiply"/><g transform="translate(10.651 17.19)"><ellipse fill="#FFF" cx="30.928" cy="19.518" rx="28.128" ry="17.394"/><g fill="#231F20"><path d="M28.645.478c-8.778.673-15.863 9.342-16.839 17.768-.403 3.483.193 7.749 1.712 10.923 1.924 4.019 5.618 6.437 9.648 8.055 4.622 1.855 10.02 2.514 14.703.481 7.995-3.468 12.298-13.927 10.64-22.206C47.056 8.243 40.262.98 32.556.592c-1.34-.068-2.077 2.57-.424 2.653 5.628.283 11.054 5.468 13.127 10.394 2.912 6.924.402 16.728-6.136 20.797-4.011 2.497-9.083 2.194-13.408.743-3.027-1.014-6.152-2.56-8.282-5-2.156-2.468-2.894-5.577-3.201-8.763-.4-4.15.683-7.906 3.032-11.362 2.533-3.728 6.37-6.571 10.957-6.923 1.337-.102 2.065-2.778.424-2.653"/><path d="M.35 20.304c1.937 5.805 6.338 11.13 11.398 14.465 5.07 3.34 11.007 4.85 17.053 4.787 6.867-.072 13.973-1.018 20.142-4.206 4.152-2.147 7.567-5.398 9.86-9.47.504-.895.95-1.82 1.34-2.769.37-.901 1.022-2.147.906-3.128-.07-.594-.362-1.182-.586-1.73-3.015-7.392-9.395-13.268-16.85-15.993C37.187-.089 30.12-.335 23.404.73 17.04 1.736 11.117 4.42 6.62 9.103c-1.212 1.262-2.284 2.64-3.263 4.089-.743 1.1.725 3.478 1.634 2.132 3.26-4.825 7.727-8.497 13.26-10.402 5.73-1.972 12.188-2.446 18.175-1.638 8.351 1.126 16.001 5.46 20.456 12.722a24.241 24.241 0 0 1 1.68 3.28c.11.261.564 1.064.264.652.064.087.09.259.121.366l.064-1.053c-1.261 3.964-3.357 7.629-6.527 10.377-4.456 3.864-10.223 5.702-15.974 6.539-6.812.99-14.044 1.017-20.419-1.88-4.212-1.916-7.791-4.974-10.487-8.72a27.479 27.479 0 0 1-2.492-4.198c-.21-.442-.407-.89-.593-1.343-.158-.387-.196-.537-.094-.231-.554-1.66-2.643-1.191-2.076.509"/><path d="M1.438 21.451c1.53 0 1.253-2.804-.102-2.804-1.53 0-1.253 2.804.102 2.804"/></g><g transform="translate(19.661 10.278)"><mask id="b" fill="#fff"><use xlink:href="#a"/></mask><path fill="#000" mask="url(#b)" d="M-2.172 8.684-3.13-2.26l11.044-.968.96 10.945z"/></g><g transform="translate(19.661 10.278)"><mask id="d" fill="#fff"><use xlink:href="#c"/></mask><path stroke="#000" stroke-width=".5" mask="url(#d)" d="M-2.172 8.684-3.13-2.26l11.044-.968.96 10.945z"/></g><g transform="translate(19.661 10.278)"><mask id="f" fill="#fff"><use xlink:href="#e"/></mask><path stroke="#000" stroke-width=".5" mask="url(#f)" d="M18.46 36.927 14.892-3.792-26.336-.179l3.568 40.718z"/></g><path d="M19.858 13.07c.055-.411.07-.835.18-1.233.067-.245.24-.501.44-.665.136-.11.442-.146.6-.073.126.059.224.345.195.506-.102.552-.18 1.092 0 1.641.204.623.956 1.144 1.554 1.06.591-.083.997-.618 1.028-1.356.032-.751-.371-1.256-1.113-1.391-.205-.037-.45-.003-.612-.1-.188-.113-.42-.334-.419-.508.001-.178.226-.449.415-.517.622-.23 1.212-.023 1.766.263.946.49 1.439 1.55 1.273 2.7-.16 1.12-.934 1.969-2.007 2.201-1.51.328-3.094-.905-3.3-2.527z" stroke="#000" stroke-width=".5"/><g transform="translate(27.924 10.278)"><mask id="h" fill="#fff"><use xlink:href="#g"/></mask><path fill="#000" mask="url(#h)" d="M-4.474 5.807-.446-4.415 9.869-.35 5.842 9.87z"/></g><g transform="translate(27.924 10.278)"><mask id="j" fill="#fff"><use xlink:href="#i"/></mask><path stroke="#000" stroke-width=".5" mask="url(#j)" d="M-4.474 5.807-.446-4.415 9.869-.35 5.842 9.87z"/></g><g transform="translate(27.924 10.278)"><mask id="l" fill="#fff"><use xlink:href="#k"/></mask><path stroke="#000" stroke-width=".5" mask="url(#l)" d="m1.381 40.289 14.984-38.03-38.505-15.17-14.984 38.029z"/></g><path d="M28.2 11.87c.233-.344.436-.716.711-1.024.171-.189.44-.341.692-.398.17-.038.46.067.57.203.086.108.045.408-.052.54-.338.448-.649.895-.733 1.468-.095.648.345 1.45.918 1.641.566.19 1.168-.107 1.525-.754.364-.658.229-1.29-.375-1.741-.167-.124-.4-.203-.503-.364-.118-.184-.227-.485-.148-.64.08-.159.402-.301.602-.278.658.072 1.095.521 1.463 1.024.627.861.596 2.029-.066 2.984-.645.931-1.715 1.345-2.78 1.074-1.497-.38-2.364-2.192-1.824-3.735z" stroke="#000" stroke-width=".5"/><g transform="translate(35.903 9.993)"><mask id="n" fill="#fff"><use xlink:href="#m"/></mask><path fill="#000" mask="url(#n)" d="m-4.906 1.834 8.824-6.546 6.605 8.905L1.7 10.738z"/></g><g transform="translate(35.903 9.993)"><mask id="p" fill="#fff"><use xlink:href="#o"/></mask><path stroke="#000" stroke-width=".5" mask="url(#p)" d="m-4.906 1.834 8.824-6.546 6.605 8.905L1.7 10.738z"/></g><g transform="translate(35.903 9.993)"><mask id="r" fill="#fff"><use xlink:href="#q"/></mask><path stroke="#000" stroke-width=".5" mask="url(#r)" d="M-18.171 34.196 14.656 9.843-10-23.396-42.829.957z"/></g><path d="M37.257 10.762c.38-.17.749-.378 1.145-.493a1.39 1.39 0 0 1 .798.027c.165.058.355.3.376.473.016.137-.177.371-.33.431-.523.202-1.024.418-1.398.86-.423.499-.474 1.413-.089 1.877.38.461 1.048.527 1.694.167.656-.366.875-.974.602-1.676-.076-.194-.232-.385-.235-.575-.002-.219.064-.532.214-.622.151-.092.5-.043.657.083.52.41.654 1.02.7 1.642.077 1.063-.567 2.038-1.634 2.498-1.04.45-2.167.235-2.926-.558-1.07-1.115-.848-3.11.426-4.134z" stroke="#000" stroke-width=".5"/><g transform="translate(19.946 24.24)"><mask id="t" fill="#fff"><use xlink:href="#s"/></mask><path fill="#000" mask="url(#t)" d="M-4.585 5.888-.558-4.334 9.758-.269 5.73 9.952z"/></g><g transform="translate(19.946 24.24)"><mask id="v" fill="#fff"><use xlink:href="#u"/></mask><path stroke="#000" stroke-width=".5" mask="url(#v)" d="M-4.585 5.888-.558-4.334 9.758-.269 5.73 9.952z"/></g><g transform="translate(19.946 24.24)"><mask id="x" fill="#fff"><use xlink:href="#w"/></mask><path stroke="#000" stroke-width=".5" mask="url(#x)" d="M1.27 40.37 16.253 2.34-22.25-12.83l-14.984 38.028z"/></g><path d="M20.111 25.913c.233-.344.436-.716.71-1.024.171-.189.44-.341.693-.398.17-.039.46.067.569.203.086.108.046.408-.052.54-.337.448-.648.895-.732 1.468-.096.648.345 1.45.917 1.641.566.19 1.168-.107 1.525-.754.364-.658.229-1.29-.375-1.741-.167-.124-.4-.204-.503-.364-.117-.184-.227-.485-.147-.64.08-.159.402-.302.6-.278.66.072 1.096.521 1.464 1.024.627.861.596 2.028-.066 2.984-.644.931-1.715 1.345-2.779 1.074-1.497-.38-2.364-2.192-1.824-3.735z" stroke="#000" stroke-width=".5"/><g transform="translate(27.924 24.24)"><mask id="z" fill="#fff"><use xlink:href="#y"/></mask><path fill="#000" mask="url(#z)" d="M9.599-.835 6.405 9.677-4.203 6.453-1.01-4.058z"/></g><g transform="translate(27.924 24.24)"><mask id="B" fill="#fff"><use xlink:href="#A"/></mask><path stroke="#000" stroke-width=".5" mask="url(#B)" d="M9.599-.835 6.405 9.677-4.203 6.453-1.01-4.058z"/></g><g transform="translate(27.924 24.24)"><mask id="D" fill="#fff"><use xlink:href="#C"/></mask><path stroke="#000" stroke-width=".5" mask="url(#D)" d="m.995-34.736-11.883 39.11 39.599 12.031 11.883-39.11z"/></g><path d="M33.127 27.988c-.205.362-.377.749-.626 1.078-.155.202-.41.376-.658.453-.167.052-.464-.03-.584-.157-.094-.1-.078-.403.009-.542.3-.474.574-.945.612-1.523.043-.653-.46-1.417-1.046-1.562-.58-.144-1.156.2-1.46.875-.31.684-.124 1.303.514 1.705.176.11.415.17.53.322.132.175.265.466.199.627-.067.164-.377.332-.578.325-.662-.02-1.133-.432-1.54-.904-.695-.808-.757-1.974-.174-2.98.568-.98 1.602-1.477 2.684-1.293 1.523.26 2.532 1.995 2.118 3.576z" stroke="#000" stroke-width=".5"/><g><g transform="translate(35.903 24.24)"><mask id="F" fill="#fff"><use xlink:href="#E"/></mask><path fill="#000" mask="url(#F)" d="M6.25-4.196 9.845 6.186-.632 9.814-4.227-.568z"/></g><g transform="translate(35.903 24.24)"><mask id="H" fill="#fff"><use xlink:href="#G"/></mask><path stroke="#000" stroke-width=".5" mask="url(#H)" d="M6.25-4.196 9.845 6.186-.632 9.814-4.227-.568z"/></g></g><g transform="translate(35.903 24.24)"><mask id="J" fill="#fff"><use xlink:href="#I"/></mask><path stroke="#000" stroke-width=".5" mask="url(#J)" d="M-20.638-26.564-7.262 12.06 31.845-1.483 18.47-40.107z"/></g><g><path d="M41.29 26.336c.047.413.135.828.126 1.24-.006.255-.11.545-.265.753-.105.14-.393.249-.565.217-.135-.026-.3-.28-.312-.444-.035-.56-.09-1.102-.4-1.591-.348-.554-1.205-.876-1.764-.65-.554.225-.817.842-.667 1.566.152.736.666 1.128 1.418 1.078.208-.014.436-.106.618-.051.21.063.489.22.53.39.042.172-.11.49-.276.602-.548.374-1.17.317-1.777.175-1.037-.245-1.773-1.152-1.893-2.308-.117-1.127.427-2.138 1.411-2.624 1.385-.686 3.221.124 3.816 1.647z" stroke="#000" stroke-width=".5"/><path d="m36.141 14.764-5.507 9.945c-.54.975.956 1.025 1.378.264l5.508-9.945c.54-.975-.957-1.025-1.379-.264M29.355 15.162l-5.72 9.95c-.556.968.897 1.19 1.34.42l5.72-9.95c.556-.969-.897-1.19-1.34-.42" fill="#231F20"/><path d="M23.188 14.949c2.02 3.332 4.038 6.665 6.057 9.998.415.684 2.068.434 1.56-.404l-6.056-9.998c-.415-.685-2.068-.434-1.56.404M30.938 15.465l5.624 10.527c.39.729 1.75-.296 1.347-1.053l-5.624-10.526c-.39-.729-1.751.296-1.347 1.052" fill="#231F20"/></g></g></g></svg>