<svg width="72" height="72" xmlns="http://www.w3.org/2000/svg"><g fill="none" fill-rule="evenodd"><path d="M61.459 35.94 19.224 13.341C6.496 6.531-6.3 22.738 3.558 33.184l31.686 33.573c5.005 5.303 13.561 5.281 18.684-.047l10.548-10.973c5.832-6.066 4.338-15.86-3.017-19.797" fill="#FAE041" style="mix-blend-mode:multiply" transform="rotate(120 34.056 41.22)"/><path fill="#FFF" d="M9 5h58v41H9z"/><g transform="translate(-1 -2)" fill-rule="nonzero"><path d="M38.91 50.827c-9.138.36-18.274.067-27.41-.061-.478-.006-.964-.01-1.43-.093-1.745-.319-2.186-.861-2.046-2.61.32-4.03.333-8.063.282-12.1-.09-7.288-.272-14.576-.147-21.867.006-.383.041-.785.169-1.14.204-.573.355-1.282 1.259-1.068.77.182 1.201.635 1.208 1.449.016 1.739.05 3.475.05 5.214 0 .574.129.842.8.842 3.655-.016 7.31 0 10.963.054.796.013 1.035-.194 1.003-1.018a78.156 78.156 0 0 1-.012-5.995c.032-.846-.032-2.122 1.137-2.129 1.045-.003 1.045 1.26 1.122 2.04.201 2.029.265 4.074.316 6.116.016.712.205.97.955.967 3.09-.01 6.18.013 9.27.096.86.022.99-.29.988-1.047-.01-3.344.01-6.691.092-10.032.023-.874-.463-.744-.978-.74-4.352.022-8.704.063-13.056.054-3.783-.01-7.563-.09-11.34.182-.85.06-1.684.019-2.528-.29-.677-.25-1.025-.55-.94-1.274.087-.753.57-1.005 1.257-1.018 2.566-.054 5.131-.134 7.7-.166 5.308-.07 10.615-.15 15.923-.169 10.724-.038 21.444-.057 32.168.15 2.163.042 2.364.37 2.537 2.46.786 9.58.665 19.181.744 28.776.013 1.388.036 2.773.026 4.161-.003.367.067.724-.157 1.114-.377.654-.725 1.397-1.572 1.228-.783-.156-1.144-.842-1.128-1.675.023-1.044-.003-2.087.051-3.127.032-.622-.041-.922-.808-.92-3.438.01-6.876-.012-10.311-.12-1.045-.036-1.205.331-1.186 1.25.051 2.432-.022 4.867 0 7.301.006.865-.217 1.446-1.185 1.433-.898-.01-1.208-.625-1.218-1.385-.032-2.476-.077-4.952-.006-7.425.025-.964-.22-1.27-1.205-1.264-3.131.016-6.266-.035-9.397-.13-.761-.023-.854.264-.844.893.032 2.214.022 4.432.022 6.647 0 .261-.006.523-.032.781-.095.922-.156 2.02-1.396 1.963-1.24-.06-1.195-1.159-1.198-2.084-.003-2.476-.032-4.952.013-7.428.012-.747-.215-.945-.946-.954-3-.039-6.004-.112-9.005-.24-.757-.032-.843.252-.843.884.003 3.303 0 6.605-.07 9.905-.02.855.44.766.974.76 3.307-.052 6.617-.033 9.921-.164 8.05-.316 16.099-.172 24.151-.07 1.732.023 3.467.102 5.199.192.904.048 1.467.552 1.435 1.48-.03.852-.601 1.009-1.403 1.066-9.311.645-18.632-.086-27.937.345zM17.314 48.07v-.02c1.911-.015 3.822-.05 5.73-.035.572.004.856-.083.856-.759-.006-3.382.025-6.762.077-10.144.01-.613-.17-.826-.802-.833-3.774-.038-7.554-.067-11.315-.44-.668-.067-.786.163-.786.775.01 3.552.057 7.11-.313 10.652-.07.686.108.893.818.867 1.914-.067 3.824-.047 5.735-.063zm42.745-25.821c-1.739.013-3.474.032-5.212.041-.495.003-.923-.032-.923.712a723.44 723.44 0 0 1-.08 10.533c-.01.648.15.925.869.913 3.473-.055 6.95-.09 10.42.115.754.044 1.109-.14 1.1-.98-.036-3.555-.033-7.11-.01-10.664.003-.638-.215-.814-.825-.798-1.78.045-5.34.102-5.34.128zM17.463 33.695v.028c1.873-.016 3.742-.06 5.615-.032.696.01.885-.204.86-.89-.113-3.3-.205-6.602-.237-9.901-.007-.753-.33-.827-.933-.84-3.611-.076-7.222-.156-10.83-.3-.824-.031-1.031.192-1.012.993.083 3.386.134 6.774.134 10.163 0 .744.284.852.917.836 1.831-.048 3.659-.041 5.486-.057zm42.518-14.206c1.738-.013 3.477-.074 5.212-.023.834.026 1.041-.245.971-1.037a79.828 79.828 0 0 1-.252-9.617c.022-.696-.205-.88-.873-.88a567.207 567.207 0 0 1-10.42-.097c-.732-.012-.847.262-.834.9.064 3.338.102 6.676.109 10.017 0 .673.179.896.879.87 1.735-.066 5.208-.108 5.208-.133zM40.218 7.669c-.547-.003-.783.115-.703.725.45 3.411.243 6.848.32 10.271.015.795.223 1.04 1.028 1.025 3.173-.06 6.346-.096 9.516-.051.93.012 1.147-.265 1.15-1.159.02-3.337-.249-6.681.176-10.01.093-.727-.374-.631-.799-.628-1.78.013-8.905-.16-10.688-.173zM51.48 23.532c.032-.916-.15-1.296-1.188-1.267-3.167.09-6.34.086-9.51.06-.77-.006-.926.256-.914.964.055 3.252.083 6.503.067 9.755-.003.791.163 1.168 1.049 1.17 3.256.01 6.512.065 9.768.138.668.016.67-.329.664-.804-.025-1.74.007-8.418.064-10.016zm-14.184 4.63h.067c-.013-1.65-.067-3.303-.022-4.953.022-.8-.23-1.05-1.032-1.046-3 .012-6.004-.02-9.005-.093-.811-.019-1.032.217-1 1.021.134 3.255.224 6.513.278 9.77.013.722.214.977.955.984 3 .028 6.001.095 9.002.188.63.019.83-.157.811-.791-.05-1.692-.041-3.386-.054-5.08z" fill="#070707"/><path d="M17.03 32.944c-1.966.016-3.932.01-5.898.055-.68.016-.986-.093-.986-.837A400.86 400.86 0 0 0 10 21.996c-.02-.798.203-1.025 1.09-.993 3.88.144 7.765.223 11.65.3.649.013.996.083 1.003.84.034 3.303.134 6.604.254 9.904.024.687-.179.904-.925.89-2.01-.028-4.025.017-6.039.033-.003-.007-.003-.016-.003-.026zM54.957 19.998c-.678.026-.848-.198-.85-.887A622.152 622.152 0 0 0 54 8.917c-.013-.65.099-.933.807-.916 3.364.068 6.727.094 10.09.097.647 0 .867.188.845.896a85.407 85.407 0 0 0 .245 9.79c.068.802-.133 1.08-.94 1.055-1.681-.052-3.364.01-5.048.023 0 .026-3.363.068-5.043.136zM51.914 34.201c.007.472.004.814-.685.798-3.36-.076-6.719-.126-10.078-.136-.913-.003-1.084-.377-1.081-1.162a430.96 430.96 0 0 0-.07-9.683c-.012-.7.15-.963.944-.956 3.27.025 6.54.028 9.81-.06 1.071-.029 1.26.351 1.226 1.257-.06 1.59.007 3.183.02 4.773-.043.003-.112 3.446-.086 5.17z" fill="#FEFEFE"/><path d="M57.5 28c-.826 0-1.5-.603-1.5-1.341v-2.318c0-.738.674-1.341 1.5-1.341s1.5.603 1.5 1.341v2.318c0 .738-.674 1.341-1.5 1.341zM28.5 28c-.826 0-1.5-.603-1.5-1.341v-2.318c0-.738.674-1.341 1.5-1.341s1.5.603 1.5 1.341v2.318c0 .738-.674 1.341-1.5 1.341zM20.5 44c-.826 0-1.5-.524-1.5-1.166v-3.668c0-.642.674-1.166 1.5-1.166s1.5.524 1.5 1.166v3.668c0 .642-.674 1.166-1.5 1.166z" fill="#070707"/><circle fill="#070707" cx="20.5" cy="44.5" r="1.5"/><path d="M43.5 15c-.826 0-1.5-.524-1.5-1.166v-3.668C42 9.524 42.674 9 43.5 9s1.5.524 1.5 1.166v3.668c-.004.642-.678 1.166-1.5 1.166z" fill="#070707"/><circle fill="#070707" cx="43.5" cy="18.5" r="1.5"/><circle fill="#070707" cx="57.5" cy="31.5" r="1.5"/><circle fill="#070707" cx="28.5" cy="29.5" r="1.5"/></g></g></svg>