<svg width="72" height="72" xmlns="http://www.w3.org/2000/svg"><g fill="none" fill-rule="evenodd"><path d="M30.737 13.507 11.04 25.534c-10.841 6.618-10.69 22.3.277 28.712L32.53 66.649c11.662 6.818 26.268-2.063 25.436-15.47l-1.515-24.428c-.782-12.629-14.852-19.875-25.714-13.244" fill="#20BEFF" style="mix-blend-mode:multiply"/><path d="M48.44 7c1.961.246 3.26.651 3.899 1.215.957.847 2.607 4.743 2.657 6.58.026.953-.081 2.686-.193 4.367l.112-.162c3.476.03 5.815.262 7.017.696 1.802.652 4.115 2.245 4.734 3.337.62 1.091.791 4.585.928 7.251.137 2.667.84 3.455 0 5.364-.84 1.91-3.592 5.662-7.495 5.423-3.904-.238-4.28-.171-4.583.434-.138.276-.401 1.859-.681 3.56l-.106.64c-.3 1.818-.604 3.6-.781 3.922-.365.66-1.627 2.576-2.16 2.653-.532.078-6.301.825-9.043.708-2.743-.117-4.091-.073-5.478-.333-1.386-.26-2.758-.345-3.432-.69-.331-.169-.57-.443-.715-.823-.303.44-.456.71-.427.768.224.45-.737-.792-2.882-3.726.212-3.545-.09-5.929-.903-7.154l-4.125-.416a78.925 78.925 0 0 0-3.25-.543c-1.604-.234-1.688-1.925-1.902-2.223-.142-.198-.352-2.054-.631-5.567l1.308-9.69 3.557-2.305 6.813-.85.758-1.337c-.583-6.656.18-10.086 2.286-10.29 2.107-.206 7.013-.475 14.718-.809z" fill="#FFF"/><g fill="#000" fill-rule="nonzero"><path d="M29.839 18.054c.113-2.25.053-4.324.35-6.348.655-4.421 3.071-6.756 7.59-7.34 3.915-.507 7.862-.473 11.777.015 4 .5 5.876 2.46 6.116 7.026.244 4.608.133 9.25-.114 13.863-.174 3.267-3.064 5.994-6.385 6.27-3.655.305-7.333.377-11.002.541-.515.025-1.034.003-1.546.028-2.584.134-3.706 1.01-3.852 3.572-.183 3.218-.082 6.451-.07 9.678.004.818.143 1.633.219 2.45.2 2.127 1.176 3.277 3.358 3.473 4.34.385 8.694.504 13.036-.028 1.77-.218 2.805-1.374 3.09-2.985.334-1.887.388-3.824.575-5.863-.531-.028-.867-.065-1.202-.062-1.742.018-3.482.056-5.224.074-.418.007-.844.01-1.256-.05-.645-.096-1.312-.4-1.214-1.097.063-.45.55-1.066.98-1.206.965-.31 2.012-.46 3.03-.513 3.317-.174 6.638-.236 9.955-.42a27.348 27.348 0 0 0 4.108-.56c1.455-.304 2.365-1.13 2.4-2.763.076-3.734.323-7.468.323-11.201 0-1.912-1.477-3.237-3.435-3.529-1.46-.218-2.121-.78-1.998-1.704.133-.979 1.151-1.486 2.533-1.256 3.577.591 5.977 2.963 6.015 6.498.04 4.048-.225 8.102-.48 12.146-.121 1.915-1.297 3.252-3.05 4.104-2.112 1.03-4.392 1.185-6.682 1.318-.47.028-.945.003-1.356.003-.089 1.735-.124 3.311-.266 4.878-.073.78-.294 1.558-.534 2.31-.974 3.056-3.077 4.797-6.325 5.242-4.247.581-8.51.413-12.748.065-3.934-.323-6.388-2.683-6.802-6.933-.408-4.178-.48-8.425-.269-12.619.2-3.97 2.356-5.882 6.401-6.342 1.436-.165 2.9-.075 4.348-.127 2.802-.103 5.6-.299 8.403-.314 1.843-.013 3.671-1.9 3.766-3.504.282-4.744.566-9.489-.243-14.226-.288-1.682-1.218-2.603-2.821-2.764-4.045-.41-8.1-.6-12.15.028-2.267.351-3.479 1.81-3.893 3.82-.408 1.972-.468 4.011-.693 6.14.516.025.854.06 1.193.053 1.935-.021 3.87-.059 5.806-.077.417-.003.901-.075 1.236.102.434.23 1.01.653 1.04 1.032.032.38-.451 1.051-.84 1.17a13.566 13.566 0 0 1-3.217.562c-3.282.18-6.574.233-9.857.42-1.407.08-2.824.28-4.2.578-1.413.305-2.295 1.132-2.327 2.717-.076 3.734-.326 7.468-.329 11.202 0 1.92 1.47 3.258 3.41 3.55.063.01.129.01.192.019 1.275.186 1.936.783 1.834 1.66-.104.901-1.015 1.445-2.223 1.33-3.545-.342-6.277-2.91-6.315-6.423-.044-4.078.215-8.167.465-12.242.117-1.916 1.277-3.262 3.026-4.12 2.078-1.02 4.326-1.187 6.584-1.324.601-.028 1.208.003 1.759.003z"/><path d="M39.442 15c-.846-.009-1.463-.634-1.441-1.46.022-.858.678-1.529 1.505-1.54A1.482 1.482 0 0 1 41 13.527c-.022.848-.692 1.481-1.558 1.473zM48.997 46.53c-.05.918-.67 1.504-1.559 1.468-.892-.035-1.493-.694-1.434-1.573.056-.838.773-1.459 1.644-1.424.867.039 1.396.636 1.35 1.53z"/></g></g></svg>