<svg width="72" height="72" xmlns="http://www.w3.org/2000/svg"><g fill="none" fill-rule="evenodd"><path d="m44.545 21.537-26.41-4.424a8.261 8.261 0 0 0-7.059 2.162l-8.527 8.12a8.196 8.196 0 0 0-1.968 8.97l10.923 27.448a8.247 8.247 0 0 0 9.35 5.012l28.817-6.013a8.225 8.225 0 0 0 6.485-6.985l1.776-13.656a8.194 8.194 0 0 0-1.018-5.132l-6.579-11.476a8.24 8.24 0 0 0-5.79-4.026" fill="#20BEFF" style="mix-blend-mode:multiply"/><circle fill="#FFF" cx="43.5" cy="44.5" r="28.5"/><g fill="#060606" fill-rule="nonzero"><path d="M29.327 19.664c-.745-.658-1.337-1.166-1.914-1.692-1.6-1.464-1.446-2.779.5-3.855 2.31-1.28 4.83-2.012 7.402-2.57 1.26-.273 2.55-.526 3.832-.575 1.213-.046 1.034-.7.986-1.454-.051-.792-.307-1.08-1.209-.952-1.25.178-2.444.519-3.638.874-.49.146-.906.22-1.18-.291-.252-.473.102-.782.409-1.027.413-.334.858-.658 1.34-.87 4.026-1.781 8.023-1.643 11.953.294.683.338 1.144.903.8 1.695-.347.803-1.077 1.034-1.877.757-.899-.313-1.747-.775-2.634-1.123-.35-.138-.833-.497-1.122-.074-.325.472-.244 1.105-.208 1.67.033.575.57.351.884.38 3.624.33 7.24.686 10.689 1.915.427.153.862.302 1.275.487 1.472.661 1.658 1.166.96 2.651-.482 1.034-.967 2.068-1.508 3.074-.245.458-.216.679.274.938.807.426 1.56.942 2.342 1.418.47.288.821.686 1.085 1.155.193.348.445.71.164 1.123-.3.437-.786.487-1.235.384a11.562 11.562 0 0 1-3.098-1.202c-4.23-2.341-8.888-3.578-13.662-3.482-5.286.103-10.236 1.777-14.506 5.035-4.892 3.735-7.533 8.799-9.027 14.492-.884 3.369-.742 6.784-.08 10.223.76 3.948 2.202 7.609 4.708 10.746 4.048 5.068 9.454 7.964 16.026 8.831 6.627.874 12.83-.231 18.518-3.66 6.159-3.717 9.973-9.008 11.518-15.977 1.44-6.496-.8-12.06-3.953-17.494-.77-1.326-1.848-2.484-2.195-4.034-.088-.394-.318-.764.087-1.108.391-.33.727.025 1.03.138.541.196 1.02.53 1.41.978 4.25 4.864 6.605 10.557 6.525 16.865-.062 4.796-1.138 9.194-3.32 13.094-1.697 3.033-4.062 5.764-7.139 8.145-6.868 5.317-14.678 7.527-23.248 5.878C23.862 68.881 15.98 59.98 14.273 47.726c-1.008-7.238.796-13.649 5.067-19.516 2.564-3.543 5.717-6.46 9.987-8.546zm-.065-3.355c.292.37.515.654.741.935.23.288.519.547.683.867.33.636.716.732 1.389.44 5.943-2.576 12-2.416 18.108-.64 2.199.64 2.144.62 3.364-1.275.534-.824.274-.988-.518-1.28-3.255-1.207-6.675-1.477-10.087-1.73-4.767-.352-9.227.91-13.68 2.683z"/><path d="M41.859 63.107c0-.912-.023-1.781.007-2.654.03-.916.525-1.556 1.487-1.563.94-.007 1.15.724 1.166 1.498.007.29.011.582.015.873.026 2.232.053 2.337 2.287 1.825 6.557-1.502 11.776-4.756 14.67-10.86.92-1.941 1.245-4.046 1.532-6.151.09-.655-.249-.673-.75-.607-.906.12-1.804.189-2.582-.455-.305-.254-.619-.48-.554-.909.067-.461.392-.716.837-.854.664-.21 1.355-.32 2.042-.236.871.105.992-.248.894-.993-.355-2.72-1.487-5.162-2.815-7.536-.608-1.091-1.29-2.145-1.94-3.214-.407-.673-.233-.986.597-1.018.792-.033 1.396.24 1.913.803 7.222 7.806 7.444 20.548-1.381 28.587-3.845 3.5-8.366 5.704-13.497 6.224-4.472.454-9.015-.23-13.026-2.44-4.988-2.744-9.12-6.38-10.863-11.863-1.038-3.268-1.113-6.66-.547-10.074.95-5.755 3.694-10.525 8.43-14.102 4.731-3.574 10.251-4.817 16.19-4.26 3.185.297 6.31.897 9.011 2.744.502.342.985.698 1.302 1.189.204.312.54.709.162 1.123-.404.447-.841.27-1.271.026-2.427-1.375-5.102-2.04-7.838-2.516-.252-.044-.509-.11-.766-.12-.773-.037-1.705-.317-2.282-.004-.638.346.007 1.265-.09 1.938-.107.72-.148 1.49-1.125 1.556-.959.065-1.189-.654-1.363-1.374-.03-.12-.041-.248-.056-.371-.245-1.869-.245-1.869-2.211-1.483-8.056 1.577-14.06 7.772-15.207 15.683-.245 1.695-.245 1.69 1.585 1.676.476-.003.955-.029 1.423.033.664.087 1.132.447 1.15 1.134.02.618-.37 1-.965 1.171-.883.255-1.808.273-2.702.2-.932-.073-1.072.313-1.011 1.065.2 2.596 1.162 4.952 2.633 7.075 3.68 5.333 8.641 8.73 15.509 9.234z"/><path d="M51.843 45.918c-.335 0-.677.036-1.003-.007-1.2-.157-1.947.143-2.578 1.145-1.061 1.68-3.03 2.24-5.29 1.8-2.089-.406-3.589-1.7-3.881-3.344-.364-2.037.334-3.224 2.645-4.262.601-.271.793-.567.81-1.127.054-2-.15-3.99-.242-5.988-.042-.874-.163-2.069 1.228-2.133 1.295-.06 1.254 1.092 1.42 1.93.385 1.893.59 3.798.465 5.72-.038.578.062.902.848 1.152 1.065.339 1.976 1.041 2.431 1.965.33.67.757.738 1.513.692 1.329-.082 2.674-.05 4.01-.004.937.032 1.768.39 1.78 1.274.017.977-.893 1.28-1.871 1.312-.76.025-1.525-.06-2.29-.096.005-.011.005-.018.005-.029zm-5.445-1.598c-.158-.71-.539-1.366-1.7-1.348-1.6.025-2.837.813-2.783 1.766.059.988 1.12 1.744 2.373 1.687 1.078-.05 2.14-1.045 2.11-2.105zM41.198 0c1.407 0 2.785.082 4.006.58.548.223 1.06.522.644.97-.385.412-1.01.375-1.644.187-2.185-.646-4.367-.66-6.54.035-.513.164-1.105.431-1.538-.026-.378-.399.176-.632.58-.867C37.985.13 39.558-.002 41.198 0z"/></g></g></svg>
