<svg width="72" height="72" xmlns="http://www.w3.org/2000/svg"><g fill="none" fill-rule="evenodd"><path d="m44.545 21.537-26.41-4.424a8.261 8.261 0 0 0-7.059 2.162l-8.527 8.12a8.196 8.196 0 0 0-1.968 8.97l10.923 27.448a8.247 8.247 0 0 0 9.35 5.012l28.817-6.013a8.225 8.225 0 0 0 6.485-6.985l1.776-13.656a8.194 8.194 0 0 0-1.018-5.132l-6.579-11.476a8.24 8.24 0 0 0-5.79-4.026" fill="#20BEFF" style="mix-blend-mode:multiply"/><path d="M41.493 4.144c-7.207-1.899-12.063-1.2-14.8-.146-2.738 1.054-5.804 1.846-6.42 3.343-.41.998-.162 16.626.743 46.884 9.45 5.018 18.642 5.018 27.576 0 .1-1.943.1-16.762 0-44.458.072-2.484-2.294-4.358-7.099-5.623z" fill="#FFF"/><g fill="#060606" fill-rule="nonzero"><path d="M22.235 48.086c0 1.066.103 1.94-.02 2.774-.249 1.66.412 2.512 1.892 3.19 3.848 1.76 7.877 2.193 12.005 2.05 3.606-.122 7.086-.922 10.46-2.215.77-.293 1.548-.37 1.943.538.386.888-.136 1.506-.859 1.897-2.464 1.328-5.157 1.911-7.873 2.295-4.817.685-9.613.503-14.306-.932-1.64-.5-3.204-1.178-4.523-2.372-.737-.668-1.152-1.415-1.214-2.404-.17-2.847-.221-5.69-.211-8.545.017-5.586-.16-11.168-.426-16.75-.154-3.253-.038-6.516-.051-9.775-.004-.856-.068-1.712-.048-2.568.017-.803.337-1.498 1.2-1.568.862-.07 1.278.552 1.408 1.359.081.52.194 1.065.126 1.579-.157 1.195.419 1.733 1.418 2.166 5.337 2.316 10.873 2.55 16.518 1.774 2.17-.297 4.301-.737 6.275-1.785.814-.433 1.206-.999 1.148-2.019-.098-1.666-.027-3.343-.027-5.18-2.14 1.023-4.332 1.687-6.63 1.917-5.293.531-10.566.65-15.757-.831-1.122-.318-2.185-.758-3.12-1.478-2.45-1.883-2.399-4.86.11-6.634 1.51-1.069 3.258-1.488 5.014-1.84 6.139-1.23 12.182-.965 18.09 1.274.892.34 2.04.657 1.628 1.953-.415 1.303-1.544.88-2.44.573-6.258-2.159-12.56-2.222-18.91-.493a7.098 7.098 0 0 0-1.65.678c-1.255.713-1.292 1.6-.082 2.39 1.68 1.103 3.613 1.509 5.542 1.74 4.285.513 8.58.569 12.85-.168 2.168-.374 4.244-.947 5.84-2.704.817-.902 1.601-.51 1.945.684.648 2.236.512 4.514.426 6.778-.347 9.421.225 18.843.01 28.265-.044 1.998-.057 3.996-.217 5.987-.065.804-.219 1.653-1.207 1.66-1.012.007-1.115-.863-1.183-1.663a3.775 3.775 0 0 1-.013-.734c.085-.768-.212-.75-.798-.506-4.779 1.973-9.752 2.497-14.858 2.043-3.225-.28-6.37-.86-9.425-2.4zM47.21 29.847c-.968.42-1.698.825-2.482 1.059-7.372 2.19-14.71 2.337-21.978-.482-.528-.206-.716-.164-.685.45.04.772.024 1.548.037 2.323.051 3.106.031 3.162 2.949 4.15 5.41 1.831 10.92 1.898 16.48.85 1.762-.332 3.477-.787 5.021-1.775.399-.255.665-.528.661-1.052-.013-1.785-.003-3.566-.003-5.523zm-24.944 9.345c0 1.066.003 2.12 0 3.176-.007 3.032-.027 3.088 2.795 4.041 5.413 1.828 10.931 1.894 16.494.839 1.762-.335 3.484-.78 5.017-1.792.338-.224.675-.412.672-.915-.014-1.747-.003-3.49-.003-5.276-12.79 3.13-13.38 3.127-24.975-.073zm24.76-17.865c-8.443 3.158-16.723 3.252-25.033-.045 0 1.1-.007 2.197 0 3.29.024 2.798.01 2.85 2.59 3.72 5.414 1.824 10.925 1.89 16.488.84 1.922-.364 3.787-.867 5.416-2.048.341-.248.566-.475.552-.968-.037-1.582-.013-3.168-.013-4.79zM65.385 7.155c-.371.536-.242.992-.245 1.42-.035 4.333-.053 8.668-.08 13.002-.004.368.017.74-.029 1.104-.091.722-.47 1.25-1.223 1.314-.71.06-1.152-.414-1.355-1.034-.28-.858-.34-1.762-.358-2.663-.077-3.76-.242-7.52-.066-11.279.017-.368.252-.914-.235-1.08-.358-.122-.564.372-.813.614-.907.887-1.8 1.787-2.834 2.526-.568.407-1.181.666-1.777.095-.595-.575-.389-1.268.032-1.78a50.085 50.085 0 0 1 5.903-6.04c.81-.702 1.85-.239 2.604.343 2.14 1.66 3.92 3.7 5.72 5.711.502.56.52 1.254-.1 1.735-.617.48-1.252.234-1.746-.295-1.12-1.195-2.217-2.407-3.398-3.693z"/></g></g></svg>