<svg width="48" height="48" viewBox="0 0 48 48" fill="none" xmlns="http://www.w3.org/2000/svg">
<g style="mix-blend-mode:multiply">
<path d="M22.9176 5.23433L12.2726 8.40019C10.6666 8.878 9.34434 10.0462 8.65213 11.5995L5.51473 18.6398C4.74752 20.3609 4.84245 22.3538 5.76945 23.9908L14.8739 40.0712C16.1691 42.359 18.8059 43.4793 21.3109 42.8062L36.6671 38.6805C38.7954 38.1087 40.416 36.3466 40.8396 34.1443L42.8926 23.4675C43.2845 21.4288 42.5879 19.3309 41.0619 17.9543L28.3306 6.47001C26.8539 5.13787 24.8104 4.67143 22.9176 5.23433Z" fill="#FAE041"/>
</g>
<rect x="15" y="12.75" width="20" height="18.75" fill="white"/>
<path fill-rule="evenodd" clip-rule="evenodd" d="M37.4875 14C37.4875 12.625 36.375 11.5 35 11.5H15C13.625 11.5 12.5 12.625 12.5 14V29C12.5 30.375 13.625 31.5 15 31.5H32.5L37.5 36.5L37.4875 14ZM15 29V14H35V29H15ZM32.5 24H17.5V26.5H32.5V24ZM17.5 20.25H32.5V22.75H17.5V20.25ZM32.5 16.5H17.5V19H32.5V16.5Z" fill="#202124"/>
</svg>
