<svg width="72" height="72" xmlns="http://www.w3.org/2000/svg" xmlns:xlink="http://www.w3.org/1999/xlink"><defs><path d="M.019 2.554c.11.866.736 1.537 1.624 1.742.91.21 1.793-.106 2.253-.82.268-.42.475-.873.336-1.381-.042-.154-.244-.352-.385-.364-.14-.014-.334.155-.437.296-.09.123-.08.318-.124.477-.16.58-.594.863-1.193.785-.59-.075-.99-.433-1.014-.908-.026-.479.444-1.038.957-1.156.454-.106.88-.006 1.316.113.127.034.364-.023.42-.12A.545.545 0 0 0 3.756.74a1.121 1.121 0 0 0-.503-.396C2.941.23 2.603.189 2.276.116.962.166-.138 1.335.02 2.554z" id="a"/><path d="M1.332.29C.469.68-.028 1.54.04 2.526c.07 1.01.68 1.827 1.567 2.076.519.145 1.055.216 1.537-.09.147-.092.287-.364.255-.516-.03-.149-.266-.296-.445-.358-.156-.054-.355.018-.535.023-.65.018-1.082-.341-1.193-.988-.109-.636.136-1.165.62-1.34.489-.18 1.218.131 1.503.626.254.437.286.91.3 1.4.006.143.141.37.258.397.147.034.398-.05.492-.168.14-.176.238-.425.25-.647.02-.36-.044-.723-.074-1.085C4.211.808 3.186.11 2.177.11c-.288 0-.575.057-.845.18z" id="c"/><path d="M.683 1.15c-.462.731-.409 1.639.14 2.357.562.736 1.438 1.052 2.24.796.47-.15.914-.366 1.129-.843.065-.144.035-.422-.065-.521-.099-.099-.352-.092-.52-.05-.146.037-.262.193-.397.287-.487.34-.998.284-1.407-.154-.403-.43-.482-.957-.201-1.335.282-.382.995-.512 1.462-.278.413.206.676.552.933.918.076.106.294.211.396.174a.538.538 0 0 0 .29-.376 1.106 1.106 0 0 0-.133-.62c-.166-.284-.399-.53-.602-.791a2.406 2.406 0 0 0-1.46-.486c-.724 0-1.424.318-1.805.922z" id="e"/><path d="M1.839.158c-.31.157-.585.386-.874.585-.904 1.043-.798 2.723.248 3.476.743.535 1.706.538 2.5.005.813-.546 1.203-1.45.985-2.315-.128-.505-.327-.988-.817-1.245-.148-.079-.443-.065-.555.034-.11.097-.12.366-.086.546.03.157.187.29.278.438.327.536.235 1.072-.254 1.476-.481.397-1.043.447-1.424.126-.385-.324-.476-1.085-.198-1.563.244-.422.626-.678 1.03-.926C2.789.722 2.914.5 2.88.39c-.043-.14-.234-.31-.38-.332a1.16 1.16 0 0 0-.663.102z" id="g"/><path d="M3.592.3C3.068.357 2.556.538 2.04.665.2 1.665-.542 4.108.542 5.735c.77 1.155 2.134 1.67 3.545 1.336C5.534 6.728 6.57 5.653 6.72 4.309c.086-.785.062-1.579-.497-2.204-.168-.19-.594-.329-.806-.247-.209.08-.365.456-.413.73-.041.238.11.51.161.769.18.937-.237 1.648-1.147 1.96-.894.31-1.717.081-2.088-.577-.374-.665-.098-1.795.55-2.326.573-.47 1.251-.629 1.956-.767.205-.04.501-.29.513-.466.015-.22-.168-.564-.361-.672A1.81 1.81 0 0 0 3.74.292c-.05 0-.1.003-.149.008z" id="i"/><path d="M2.17.119a1.648 1.648 0 0 0-.797.492C1.057.983.824 1.43.557 1.844-.06 3.685.953 5.8 2.687 6.206c1.231.289 2.466-.232 3.206-1.354.76-1.15.79-2.532.059-3.532C5.524.737 5.017.22 4.255.153 4.025.132 3.653.31 3.561.5c-.09.186.038.538.175.753.12.187.39.273.583.415.7.516.86 1.26.443 2.049-.408.776-1.102 1.146-1.758.937-.662-.209-1.176-1.144-1.07-1.913.094-.68.45-1.219.839-1.76.111-.157.156-.515.056-.64-.106-.132-.36-.234-.554-.234a.421.421 0 0 0-.105.012z" id="k"/><path d="M2.728.603c-.327.074-.673.27-.893.514-.355.397-.616.877-.918 1.322-.696 1.99.422 4.327 2.355 4.818 1.373.35 2.754-.184 3.586-1.386.854-1.232.894-2.739.085-3.85C6.468 1.372 5.904.793 5.055.7c-.258-.03-.673.154-.776.358-.102.2.038.588.19.827.132.206.434.309.649.469.78.583.954 1.398.484 2.246-.461.836-1.237 1.219-1.968.974-.738-.247-1.307-1.282-1.183-2.118.108-.74.509-1.316.945-1.895.125-.17.177-.557.066-.696-.121-.15-.414-.272-.633-.272a.454.454 0 0 0-.1.01z" id="m"/><path d="M3.823.357c-.248.022-.601.275-.657.485-.056.207.153.541.343.734.165.167.467.203.701.31.847.392 1.172 1.117.9 2-.266.868-.918 1.377-1.652 1.29-.741-.084-1.48-.939-1.53-1.741-.046-.71.216-1.327.51-1.951.084-.183.055-.555-.076-.662-.167-.136-.544-.19-.74-.101a1.715 1.715 0 0 0-.736.654c-.254.44-.403.937-.597 1.41C.03 4.777 1.543 6.736 3.453 6.817c1.357.058 2.546-.71 3.087-1.992.556-1.315.295-2.727-.685-3.605C5.327.75 4.74.348 4.015.348c-.064 0-.127.003-.192.009z" id="o"/><path d="M4.406.31C3.796.375 3.2.585 2.6.734.459 1.898-.406 4.742.856 6.635c.896 1.346 2.485 1.945 4.127 1.556 1.684-.398 2.89-1.65 3.066-3.214.1-.915.07-1.838-.58-2.566-.195-.222-.691-.383-.938-.288-.242.093-.425.532-.48.85-.049.277.128.594.187.895.21 1.091-.276 1.918-1.335 2.283-1.041.36-2 .094-2.43-.673-.437-.773-.116-2.089.64-2.707.666-.547 1.456-.732 2.275-.893.24-.048.585-.339.599-.542.016-.257-.196-.658-.421-.783A2.106 2.106 0 0 0 4.58.3c-.059 0-.117.003-.174.01z" id="q"/><path d="M.841 4.69c.008 1.901 1.18 3.52 3.044 4.203 1.91.7 3.906.253 5.093-1.169.691-.833 1.26-1.758 1.095-2.895-.049-.344-.432-.823-.736-.89-.298-.065-.76.246-1.022.524-.227.24-.259.666-.396.999-.502 1.207-1.515 1.704-2.79 1.376-1.256-.322-2.024-1.205-1.95-2.236.073-1.042 1.241-2.126 2.382-2.243 1.009-.105 1.905.225 2.814.6.265.106.793.045.939-.146.182-.24.234-.772.095-1.04a2.442 2.442 0 0 0-.981-.991c-.643-.33-1.363-.51-2.05-.754a4.892 4.892 0 0 0-.43-.019C3.258.009.83 2.149.84 4.69z" id="s"/><path d="M.081 4.818C.088 6.746 1.276 8.387 3.166 9.08c1.937.71 3.96.257 5.163-1.185.702-.844 1.279-1.782 1.111-2.934-.049-.349-.438-.835-.745-.903-.303-.066-.772.25-1.037.53-.23.245-.263.676-.402 1.013-.509 1.224-1.535 1.73-2.829 1.396-1.273-.326-2.052-1.221-1.976-2.268.074-1.056 1.258-2.154 2.415-2.273 1.023-.106 1.931.228 2.853.608.269.109.804.046.952-.147.184-.245.237-.783.095-1.056A2.474 2.474 0 0 0 7.772.856C7.12.522 6.39.338 5.694.092a5.144 5.144 0 0 0-.437-.02C2.53.074.07 2.243.081 4.819z" id="u"/><path d="M.117 4.758c.007 1.91 1.184 3.536 3.056 4.222 1.92.704 3.924.253 5.117-1.174.694-.838 1.266-1.766 1.1-2.908-.049-.346-.434-.827-.738-.894-.3-.066-.766.247-1.028.525-.228.242-.26.67-.398 1.004-.504 1.213-1.521 1.713-2.802 1.382-1.262-.323-2.034-1.21-1.96-2.246.074-1.047 1.248-2.135 2.394-2.252 1.013-.106 1.913.226 2.827.601.266.108.796.047.942-.145.183-.242.235-.776.095-1.046a2.449 2.449 0 0 0-.984-.995C7.092.5 6.368.32 5.678.075a5.096 5.096 0 0 0-.432-.019C2.544.056.106 2.206.117 4.758z" id="w"/><path d="M1.894.36a1.319 1.319 0 0 0-.68.33c-.28.273-.497.61-.74.92-.617 1.423.073 3.191 1.457 3.65.984.328 2.02.008 2.694-.829.69-.858.8-1.96.27-2.815-.312-.5-.692-.953-1.307-1.065-.187-.035-.5.078-.586.222-.086.141-.004.433.094.616.086.158.3.248.449.376.537.468.62 1.074.231 1.67-.381.589-.97.83-1.489.612-.526-.22-.885-1.006-.75-1.612.12-.536.443-.937.793-1.339.101-.118.16-.399.087-.506C2.33.466 2.104.357 1.94.357a.349.349 0 0 0-.047.003z" id="y"/><path d="M.387 3.009c.282.827.966 1.368 1.774 1.4.83.035 1.524-.443 1.765-1.231.141-.46.222-.945-.008-1.416-.069-.144-.286-.299-.41-.284-.124.013-.254.215-.313.372-.05.138 0 .328-.004.493-.013.596-.325.957-.858.994-.525.038-.947-.237-1.07-.698-.126-.464.16-1.102.576-1.315.368-.189.758-.172 1.158-.138.117.01.309-.092.336-.196a.614.614 0 0 0-.117-.467A1.019 1.019 0 0 0 2.697.23a3.505 3.505 0 0 0-.624-.035c-.089 0-.177 0-.266-.003C.685.491-.01 1.845.387 3.01z" id="A"/><path d="M.23 2.819c.109.986.722 1.752 1.592 1.986.892.24 1.757-.12 2.208-.936.262-.477.465-.994.328-1.573-.04-.176-.239-.402-.378-.416-.137-.015-.325.177-.427.337-.088.14-.078.364-.121.545-.157.66-.582.984-1.169.896-.579-.086-.97-.495-.994-1.036-.026-.546.436-1.184.938-1.318.445-.12.862-.007 1.29.129.124.038.356-.028.41-.136.068-.137.062-.416-.015-.547a1.134 1.134 0 0 0-.494-.451C3.094.169 2.763.122 2.442.04 1.154.097.078 1.428.231 2.82z" id="C"/><path d="M.214 2.586c.09.832.598 1.477 1.319 1.675.738.203 1.455-.102 1.828-.79.218-.402.386-.838.272-1.327-.034-.148-.198-.337-.312-.35-.114-.013-.271.15-.355.285-.072.117-.064.306-.1.46-.13.555-.481.829-.969.754-.478-.072-.803-.417-.823-.874-.02-.46.36-.998.778-1.112.367-.1.714-.005 1.068.11.103.032.295-.024.34-.115A.607.607 0 0 0 3.246.84a.957.957 0 0 0-.408-.38C2.586.35 2.312.31 2.046.24.98.29.087 1.413.214 2.586z" id="E"/><path d="M.587 3.066c.11.867.731 1.538 1.613 1.744.904.21 1.783-.106 2.24-.822.265-.42.47-.873.333-1.382-.042-.155-.242-.351-.383-.365-.14-.012-.332.156-.434.298-.09.121-.08.318-.123.478-.16.578-.59.863-1.185.785-.587-.075-.984-.435-1.01-.91-.024-.479.443-1.039.953-1.157.452-.105.875-.006 1.308.114.126.034.361-.024.416-.12a.549.549 0 0 0-.016-.48A1.113 1.113 0 0 0 3.8.853C3.49.74 3.154.698 2.83.626 1.524.676.43 1.846.587 3.066z" id="G"/></defs><g fill="none" fill-rule="evenodd"><path d="M26.956 12.428C15.522 6.31 4.026 20.869 12.883 30.253l28.463 30.159c4.497 4.764 12.182 4.744 16.784-.043l9.476-9.856c5.238-5.45 3.897-14.248-2.71-17.784l-37.94-20.301z" fill="#FAE041" style="mix-blend-mode:multiply" transform="rotate(-45 40.28 37.472)"/><g transform="rotate(-27 32.012 43.71)"><ellipse fill="#FFF" cx="52.469" cy="34.785" rx="2.126" ry="2.112"/><ellipse fill="#FFF" cx="64.69" cy="31.785" rx="2.126" ry="2.112"/><ellipse fill="#FFF" cx="46.001" cy="27.199" rx="1.911" ry="1.899"/><ellipse fill="#FFF" cx="36.141" cy="26.628" rx="1.911" ry="1.899"/><ellipse fill="#FFF" cx="28.746" cy="33.065" rx="1.911" ry="1.899"/><ellipse fill="#FFF" cx="15.494" cy="46.293" rx="2.638" ry="2.621"/><ellipse fill="#FFF" cx="62.641" cy="50.945" rx="2.638" ry="2.621"/><ellipse fill="#FFF" cx="17.337" cy="26.7" rx="1.747" ry="1.735"/><ellipse fill="#FFF" cx="32.362" cy="14.302" rx="1.747" ry="1.735"/><ellipse fill="#FFF" cx="39.975" cy="38.819" rx="1.747" ry="1.735"/><ellipse fill="#FFF" cx="51.19" cy="44.6" rx="1.96" ry="1.947"/><ellipse fill="#FFF" cx="43.493" cy="51.147" rx="1.96" ry="1.947"/><ellipse fill="#FFF" cx="33.856" cy="49.526" rx="1.96" ry="1.947"/><ellipse fill="#FFF" cx="27.366" cy="42.655" rx="1.96" ry="1.947"/><ellipse fill="#FFF" cx="52.23" cy="16.189" rx="1.788" ry="1.776"/><g transform="rotate(28 -46.005 70.63)"><mask id="b" fill="#fff"><use xlink:href="#a"/></mask><path fill="#000" mask="url(#b)" d="M-1.921 6.286h8.123V-1.81h-8.123z"/></g><g transform="rotate(28 -28.99 82.068)"><mask id="d" fill="#fff"><use xlink:href="#c"/></mask><path fill="#000" mask="url(#d)" d="M5.136-2.903 7.62 5.212-.468 7.688-2.952-.427z"/></g><g transform="rotate(28 -26.082 101.97)"><mask id="f" fill="#fff"><use xlink:href="#e"/></mask><path fill="#000" mask="url(#f)" d="m1.909-3.91 6.755 5.585-5.567 6.733-6.755-5.586z"/></g><g transform="rotate(28 -38.075 118.345)"><mask id="h" fill="#fff"><use xlink:href="#g"/></mask><path fill="#000" mask="url(#h)" d="m-4.051 2.597 6.336-6.773L9.036 2.14 2.699 8.912z"/></g><g transform="rotate(28 -54.811 120.052)"><mask id="j" fill="#fff"><use xlink:href="#i"/></mask><path fill="#000" mask="url(#j)" d="M-6.07.627 6.534-5.616l6.223 12.562L.153 13.189z"/></g><g transform="rotate(28 -73.178 108.426)"><mask id="l" fill="#fff"><use xlink:href="#k"/></mask><path fill="#000" mask="url(#l)" d="M-4.91 6.972-.312-5.239 11.635-.742 7.037 11.47z"/></g><g transform="rotate(28 -73.051 86.285)"><mask id="n" fill="#fff"><use xlink:href="#m"/></mask><path fill="#000" mask="url(#n)" d="M-3.705 7.248.652-3.812 11.814.586l-4.358 11.06z"/></g><g transform="rotate(28 -62.923 71.85)"><mask id="p" fill="#fff"><use xlink:href="#o"/></mask><path fill="#000" mask="url(#p)" d="m-4.378 9.051 2.253-13.308 13.523 2.29-2.254 13.308z"/></g><g transform="rotate(28 -60.023 144.652)"><mask id="r" fill="#fff"><use xlink:href="#q"/></mask><path fill="#000" mask="url(#r)" d="M-6.84.69 7.83-6.578l7.245 14.624L.403 15.314z"/></g><g transform="rotate(28 -91.931 118.18)"><mask id="t" fill="#fff"><use xlink:href="#s"/></mask><path fill="#000" mask="url(#t)" d="M-.925-3.64 13.75-1.814l-1.818 14.627-14.676-1.824z"/></g><g transform="rotate(28 -97.135 79.287)"><mask id="v" fill="#fff"><use xlink:href="#u"/></mask><path fill="#000" mask="url(#v)" d="m-1.622-3.512 14.676 1.824-1.819 14.627-14.675-1.824z"/></g><g transform="rotate(28 -73.31 46.485)"><mask id="x" fill="#fff"><use xlink:href="#w"/></mask><path fill="#000" mask="url(#x)" d="m-1.63-3.572 14.676 1.825-1.818 14.627-14.676-1.825z"/></g><g transform="rotate(28 -50.846 95.604)"><mask id="z" fill="#fff"><use xlink:href="#y"/></mask><path fill="#000" mask="url(#z)" d="m-4.295 5.277 4.507-9.39L9.645.415l-4.507 9.39z"/></g><g transform="rotate(28 -39.148 44.782)"><mask id="B" fill="#fff"><use xlink:href="#A"/></mask><path fill="#000" mask="url(#B)" d="m-1.797-.59 6.319-1.389 1.575 7.166-6.318 1.39z"/></g><g transform="rotate(28 -6.41 68.7)"><mask id="D" fill="#fff"><use xlink:href="#C"/></mask><path fill="#000" mask="url(#D)" d="M-.935 6.223h6.488v-7.527H-.935z"/></g><g transform="rotate(28 -.79 109.908)"><mask id="F" fill="#fff"><use xlink:href="#E"/></mask><path fill="#000" mask="url(#F)" d="M-1.568 6.42H5.44v-8.276h-7.007z"/></g><g transform="rotate(28 -24.385 141.129)"><mask id="H" fill="#fff"><use xlink:href="#G"/></mask><path fill="#000" mask="url(#H)" d="M-.344 5.801h6.077V-.302H-.344z"/></g></g></g></svg>