<svg width="48" height="48" viewBox="0 0 48 48" fill="none" xmlns="http://www.w3.org/2000/svg">
<g clip-path="url(#clip0)">
<g style="mix-blend-mode:multiply">
<path d="M27.2573 8.8342C16.7826 -1.34338 0.237805 11.0263 7.00206 23.978L12.2787 34.0814C13.9764 37.3319 16.9735 39.7068 20.5174 40.6108L27.4611 42.3811C40.1931 45.627 48.9213 29.8835 39.4774 20.7072L27.2573 8.8342Z" fill="#20BEFF"/>
</g>
<rect x="15" y="15.25" width="18.75" height="18.75" fill="white"/>
<path fill-rule="evenodd" clip-rule="evenodd" d="M33.75 12.75H16.25C14.875 12.75 13.75 13.875 13.75 15.25V32.75C13.75 34.125 14.875 35.25 16.25 35.25H33.75C35.125 35.25 36.25 34.125 36.25 32.75V15.25C36.25 13.875 35.125 12.75 33.75 12.75ZM33.75 15.25V19H16.25V15.25H33.75ZM22.5 32.75H27.5V21.5H22.5V32.75ZM16.25 21.5H20V32.75H16.25V21.5ZM30 21.5V32.75H33.75V21.5H30Z" fill="#202124"/>
</g>
<defs>
<clipPath id="clip0">
<rect width="48" height="48" fill="white"/>
</clipPath>
</defs>
</svg>
