<svg width="72" height="72" xmlns="http://www.w3.org/2000/svg"><g fill="none" fill-rule="evenodd"><path d="M53.157 50.986 51.08 52.77c-2.773 2.44-12.718 13.48-26.147 14.108-12.485-.007-25.94-15.742-27.07-16.957l-1.87-2.007c-6.306-6.887-2.079-18.009 7.207-18.872l2.715-.263c3.68-.348 6.947-2.453 8.74-5.738l1.332-2.402c4.55-8.173 16.392-7.505 20.075 1.08l1.077 2.513c1.432 3.41 4.466 5.863 8.097 6.638l2.687.503c9.157 1.916 12.24 13.465 5.234 19.612z" fill="#20BEFF" style="mix-blend-mode:multiply" transform="rotate(-135 24.994 40.879)"/><path fill="#FFF" d="M10 4h53v40H10z"/><g fill-rule="nonzero"><path d="M37.144 3.115c7.092.058 14.185.214 21.274-.096 1.462-.064 2.933.045 4.398.131 1.374.08 2.305 1.083 2.317 2.472.02 1.987.038 3.976-.025 5.96-.025.754.12 1.019.918.97 1.421-.082 2.852-.04 4.276-.038.283 0 .6-.01.84.115.527.272.927.697.848 1.367-.072.636-.6.754-1.072.773-1.628.064-3.26.112-4.889.09-.773-.01-1.021.2-1.053 1.034-.34 9.23.107 18.46-.031 27.687-.016.943-.28 1.67-1.428 1.866-2.543.428-5.09.23-7.64.21-1.14-.01-2.282-.01-3.42-.09-.729-.05-.996.145-.996.94.003 1.737-.117 3.475-.157 5.212-.016.655-.085 1.246-.89 1.28-.795.033-.906-.619-.946-1.187-.117-1.651-.246-3.306-.233-4.96.01-1.022-.283-1.3-1.305-1.287-8.884.112-17.766.492-26.656.466-3.547-.01-7.09-.096-10.636-.22-.795-.03-1.09-.291-1.239-1.096a18.47 18.47 0 0 1-.308-3.321c-.022-9.566-.226-19.128.06-28.69.04-1.322.129-2.645.217-3.967.053-.83.314-1.594 1.298-1.536.915.054.937.83.921 1.546-.094 4.388-.176 8.773-.298 13.158-.022.763.053.974.965.942 4.766-.172 9.535-.195 14.304-.284 2.811-.054 5.625-.166 8.435-.188.749-.007.972-.211.947-.98-.066-2.029-.06-4.057-.048-6.088.004-.597-.1-.907-.795-.879-3.015.122-6.03.208-9.045.275-.544.013-.723.227-.695.738.048.82-.034 1.622-.003 2.469a10.967 10.967 0 0 1-.27 3.002c-.104.479-.51 1.086-1.207.955-.554-.106-.714-.607-.72-1.112-.025-1.654-.066-3.312-.01-4.966.029-.795-.135-1.076-.984-1.041-1.628.064-3.26-.02-4.888-.035-.585-.007-1.16-.039-1.217-.812-.06-.83.522-.82 1.125-.926 1.576-.268 3.16-.3 4.745-.3 1.009 0 1.452-.262 1.395-1.405-.081-1.61-.015-3.23.082-4.842.047-.763-.207-.904-.883-.875-3.996.172-7.986.025-11.975-.24-.755-.05-1.421-.054-1.424-1.018-.003-.955.723-.933 1.39-.943 8.1-.089 16.203-.44 24.307-.236.774.035 1.55.006 2.324 0zm-25.79 32.27c.073 1.594-.138 4.401-.216 7.215-.022.814.214 1.031 1.018 1.016 3.748-.07 7.499-.052 11.246-.096 8.19-.093 16.38-.198 24.57-.32.436-.006 1.121.326 1.118-.645-.012-2.07.02-4.139.057-6.205.01-.572-.157-.796-.76-.79-3.016.023-6.03.017-9.046-.025-.726-.01-.883.284-.867.949.022 1.031-.029 2.07-.085 3.1-.038.675-.324 1.247-1.057 1.31-.782.07-1.084-.559-1.17-1.181-.131-.98-.207-1.98-.16-2.967.045-.91-.286-1.08-1.112-1.054-2.072.057-4.153.249-6.222-.045-.632-.09-1.465-.166-1.37-1.057.084-.805.876-.696 1.477-.728 2.116-.112 4.231-.22 6.347-.332.45-.023.874.022.865-.694-.032-2.44-.022-4.883.01-7.323.009-.661-.306-.719-.824-.709-1.956.035-3.911.035-5.867.051-5.785.054-11.57.275-17.35-.041-.74-.042-.677.306-.674.779.02 2.855.038 5.71.073 9.792zm51.318-11.204h.037c-.022-2.772-.081-5.544-.044-8.316.01-.79-.207-.965-.946-.98-3.137-.062-6.275-.157-9.406-.317-.792-.038-.994.214-.987.952a196.26 196.26 0 0 1-.029 6.084c-.012.616.211.795.78.76a25.055 25.055 0 0 1 2.078-.022c.777.016 1.56.172 1.59 1.143.035 1-.747 1.15-1.53 1.175-.61.02-1.23.08-1.833.013-.905-.102-1.204.176-1.144 1.15.135 2.188.176 4.385.182 6.576.003.734.17.977.934 1.019 3.137.166 6.278-.01 9.412.102.833.029 1.006-.233.987-1.025-.066-2.766-.06-5.538-.081-8.314zM43.718 33.37v.022c1.465-.013 2.93-.064 4.391-.019.733.022.994-.156.956-.952-.11-2.309-.16-4.624-.179-6.937-.006-.654-.22-.82-.84-.846-2.889-.118-5.772.051-8.658.099-.465.01-.738.064-.745.661-.015 2.395-.069 4.788-.144 7.183-.022.651.182.862.83.837 1.462-.051 2.927-.035 4.389-.048zM62.112 43.41c.676.02.83-.214.805-.846a195.429 195.429 0 0 1-.16-6.068c-.007-.604-.214-.773-.777-.777-3.254-.028-6.508-.07-9.758-.14-.591-.013-.764.185-.755.776.032 1.983.035 3.967-.003 5.95-.013.69.18.942.89.917 1.625-.064 8.133.143 9.758.188zM43.875 22.227v.019c1.383-.013 2.766-.051 4.15-.023.584.013.877-.067.874-.776-.01-2.066.031-4.132.11-6.196.025-.635-.211-.756-.767-.753-2.971.01-5.942-.007-8.91-.039-.54-.006-.805.1-.79.738.051 2.108.064 4.216.048 6.324-.003.597.185.776.77.757 1.503-.051 3.009-.039 4.515-.051zM57.17 5.654v.035c-1.588.013-3.178.051-4.766.026-.623-.01-.868.166-.861.83.018 1.613-.01 3.23-.054 4.845-.016.55.082.811.714.83 3.219.087 6.435.211 9.651.349.588.025.903-.061.887-.776a112 112 0 0 1 .025-5.34c.019-.662-.201-.866-.83-.847-1.588.042-3.178.035-4.766.048zm-26.295-.016c0-.054-2.852-.099-4.276-.14-.694-.02-.915.217-.918.907a81.38 81.38 0 0 1-.144 4.956c-.057.856.157 1.14 1.043 1.09 2.846-.163 5.694-.256 8.542-.336.57-.016.767-.163.774-.766.012-1.613.06-3.226.179-4.833.053-.696-.085-.951-.808-.926-1.462.058-2.927.039-4.392.048zm12.918 6.397v.1c1.503-.013 3.005-.036 4.511-.033.46.004.764-.032.767-.638.01-1.693.057-3.383.12-5.075.022-.553-.204-.713-.714-.713a969.376 969.376 0 0 1-9.142-.08c-.468-.006-.638.154-.644.633-.032 1.69-.073 3.382-.164 5.072-.038.722.305.792.877.776 1.465-.035 2.927-.032 4.389-.042z" fill="#070707"/><path d="M43.433 10.906c-1.508.012-3.018.006-4.526.041-.59.015-.943-.05-.904-.712.094-1.55.136-3.101.168-4.654.01-.44.185-.587.665-.58 3.141.037 6.286.06 9.427.072.525.003.755.147.736.654a123.89 123.89 0 0 0-.123 4.657c-.004.557-.318.587-.791.587-1.55-.006-3.1.017-4.652.029a.453.453 0 0 0 0-.094z" fill="#FEFEFE"/></g></g></svg>