<svg width="72" height="72" xmlns="http://www.w3.org/2000/svg"><g fill="none" fill-rule="evenodd"><path d="M30.737 15.507 11.04 27.534c-10.841 6.618-10.69 22.3.277 28.712L32.53 68.649c11.662 6.818 26.268-2.063 25.436-15.47l-1.515-24.428c-.782-12.629-14.852-19.875-25.714-13.244" fill="#FAE041" style="mix-blend-mode:multiply"/><rect fill="#FFF" x="20.5" y="14" width="40" height="41" rx="10"/><circle fill="#FFF" cx="14" cy="33" r="2"/><path d="M61.673 21.837c.373-.474.577-.76.81-1.024.614-.69.981-1.267.296-2.262-.81-1.174-.283-2.841.987-4.147 1.014-1.04 2.488-1.422 3.625-.956.453.187.906.403.805.974-.1.574-.632.51-1.045.492-1.072-.05-1.892.364-2.453 1.254-.387.613-.307 1.253.153 1.788.566.656 1.352.653 2.088.421.585-.184.916-.637.83-1.327-.084-.685.004-1.356.893-1.409.87-.05 1.159.606 1.294 1.306.383 2.004-1.794 4.106-4.03 3.769-.802-.122-1.141.194-1.607.692-1.842 1.972-2.554 4.163-2.485 6.95.093 3.81.212 16.67.13 18.656-.204 4.914-4.737 8.271-9.704 8.569-6.648.397-13.293.152-19.937.229-1.543.018-3.078.326-4.626.113-4.401-.608-9.41-4.814-9.164-11.139.09-2.283-.048-4.576.066-6.86.063-1.28-1.077-1.253-1.641-1.845-.445-.466-.76-.006-1.106.187-1.053.587-2.152.78-3.31.353-1.7-.625-2.79-2.241-2.493-3.684.436-2.118 2.207-3.682 4.077-3.587.247.013.498.063.73.147.477.172 1.025.364.924.999-.1.64-.688.518-1.13.508-1.029-.027-1.81.392-2.355 1.237-.394.611-.32 1.249.13 1.788.558.67 1.344.667 2.083.443.584-.177.934-.62.852-1.314-.082-.682-.016-1.37.87-1.425.932-.06 1.146.658 1.345 1.385.13.474-.34 1.088.365 1.433.452.221.802.403.799-.361-.01-3.11.384-6.21.257-9.324-.212-5.206 2.54-9.354 7.314-11.068.85-.306 1.733-.432 2.633-.5 4.555-.343 9.12-.153 13.679-.259 1.831-.042 3.665-.031 5.496-.039.286 0 .577.01.86.053.662.102 1.212.384 1.136 1.153-.074.758-.662 1.006-1.329.937-1.656-.163-3.302.024-4.954.035-4.385.026-8.77.047-13.154.037-5.595-.014-9.228 3.289-9.538 8.842-.206 3.708-.227 7.429-.38 11.139-.03.724.232 1.09.84 1.414a93.63 93.63 0 0 1 4.404 2.478c.434.258.656.19 1-.121.985-.888 2.112-1.346 3.451-.867.347.124.495.003.678-.29 1.762-2.82 3.453-5.682 5.42-8.37.208-.287.095-.527.042-.804-.437-2.233 1.752-4.758 4.035-4.655.246.01.5.055.733.14.474.17 1.027.35.942.99-.087.653-.674.537-1.116.523-.937-.026-1.675.324-2.247 1.046-.484.61-.5 1.272-.071 1.885.534.764 1.36.772 2.14.548.643-.184.964-.68.863-1.409-.085-.608.027-1.185.752-1.33.746-.147 1.206.322 1.333.954.13.634.535.934.969 1.316 1.667 1.47 3.305 2.97 4.92 4.498.42.398.751.582 1.272.2.387-.424.916-.416 1.149-.363 1.363.3 1.442-.611 2.04-1.483a61.73 61.73 0 0 1 4.314-5.617c.577-.663.746-1.353.733-2.233-.05-3.189-1.175-5.767-3.951-7.52-.736-.464-1.509-.846-2.35-1.033-.63-.142-1.342-.223-1.173-1.037.165-.774.93-.819 1.59-.75 1.896.19 3.42 1.11 4.807 2.364 1.802 1.622 2.847 3.634 3.395 6.167zm-1.807 6.271-.44-.108c-1.382 1.812-2.809 3.59-4.126 5.447-.583.824-1.14 1.373-2.24 1.286-.888-.071-1.519.496-1.976 1.247-.39.639-.31 1.254.152 1.78.568.644 1.349.642 2.082.401.581-.192.9-.652.807-1.341-.084-.645 0-1.287.802-1.39.865-.108 1.196.52 1.343 1.228.079.376.081.796.005 1.173-.376 1.83-2.71 3.112-4.652 2.589-2.077-.56-3.247-2.494-2.59-4.414.187-.544.103-.824-.286-1.194a199.247 199.247 0 0 1-4.54-4.414c-.368-.37-.53-.35-.914-.005-1.17 1.06-2.55 1.492-4.04.819-.702-.317-.9-.037-1.22.47a385.4 385.4 0 0 1-4.526 7.04c-.913 1.38-1.333 1.484-2.887 1.03-.951-.278-1.687.14-2.25.853-.441.56-.623 1.23-.215 1.899.433.71 1.143.805 1.884.69.9-.14 1.265-.682 1.152-1.596-.071-.584.105-1.099.767-1.218.618-.11 1.007.225 1.246.78.352.818.268 1.61-.147 2.374-.76 1.395-2.542 2.2-4.103 1.875-1.746-.361-2.939-1.648-3.094-3.373-.026-.29.005-.55-.281-.747-1.399-.964-2.802-1.923-4.424-2.75-.179 2.533-.21 4.937-.055 7.359.25 3.89 3.036 6.762 6.045 7.85.763.275 1.039.256 1.03-.694-.015-1.863.095-3.727.198-5.587.066-1.183 3.27-1.178 3.29.024.038 1.933.082 3.875-.204 5.795-.092.615.11.716.665.703 1.963-.043 3.927-.08 5.888-.027.794.021.888-.253.894-.967.055-5.377.157-10.755.263-16.133.015-.824.081-1.648.178-2.467.092-.771 2.674-.956 2.82-.114.074.42.114.853.122 1.281.105 5.846.031 11.691-.195 17.534-.026.708.147.919.852.903 2.355-.045 4.71-.047 7.068-.029.707.005.817-.22.812-.935-.031-3.513.04-7.026.082-10.54.008-.575 3.03-.892 3.036.656.008 3.365.002 6.733.002 10.227 2.377-.874 4.17-2.35 5.302-4.574.384-.75.757-1.561.752-2.43-.008-1.683-.121-3.366-.129-5.046-.018-4.413-.005-8.817-.005-13.22z" stroke="#000" fill="#060606" fill-rule="nonzero"/></g></svg>