<svg width="72" height="72" xmlns="http://www.w3.org/2000/svg"><g fill="none" fill-rule="evenodd"><path d="M19.084 10.251C6.354 3.441-6.442 19.648 3.417 30.094l31.686 33.573c5.005 5.303 13.561 5.281 18.684-.047l10.548-10.973c5.832-6.066 4.338-15.86-3.017-19.797L19.084 10.251z" fill="#FAE041" style="mix-blend-mode:multiply" transform="rotate(120 33.915 38.13)"/><g transform="translate(6.655 -4.59)" fill="#FFF"><circle cx="4.761" cy="4.761" r="4.761"/><circle cx="26.981" cy="4.761" r="3.174"/><ellipse cx="40.266" cy="54.143" rx="2.869" ry="2.364"/><circle cx="46.026" cy="4.761" r="1.587"/><circle cx="40.049" cy="22.404" r="2.439"/><circle cx="40.134" cy="33.629" r="2.439"/><circle cx="40.067" cy="43.853" r="2.439"/><circle cx="22.711" cy="54.129" r="2.003"/><circle cx="7.234" cy="54.483" r="1.904"/><circle cx="56.229" cy="22.504" r="2.25"/><circle cx="56.229" cy="33.213" r="2.25"/><circle cx="56.229" cy="43.613" r="2.25"/><circle cx="56.229" cy="54.327" r="3.17"/><circle cx="23.798" cy="22.379" r="2.286"/><circle cx="23.448" cy="32.812" r="2.442"/><circle cx="23.356" cy="43.221" r="2.442"/><ellipse cx="7.114" cy="32.917" rx="2.779" ry="2.35"/><ellipse cx="7.384" cy="43.827" rx="2.779" ry="2.35"/><ellipse cx="4.493" cy="21.088" rx="3.262" ry="2.292"/><circle cx="64.309" cy="5.598" r="1.587"/><circle cx="63.963" cy="50.962" r="4.761"/></g><g fill="#000" fill-rule="nonzero"><path d="M14.15 12.565c.812.18 1.653.283 2.428.565.477.177.957.56 1.25.984.196.286.212.894.04 1.193-.139.237-.728.38-1.044.296-1.082-.296-2.144-.543-3.271-.282-1.276.293-2.447 1.685-2.383 2.875.061 1.18 1.056 2.071 2.523 2.259 1.492.192 2.569-.514 2.967-1.952.109-.397.085-.883.308-1.187.257-.351.737-.77 1.085-.737.353.033.854.522.958.905.347 1.264-.167 2.392-.833 3.433-1.144 1.777-3.341 2.565-5.604 2.04-2.208-.51-3.763-2.18-4.039-4.331-.39-3.03 2.346-5.936 5.615-6.06zM30.238 13.62c.65.144 1.322.226 1.942.453.382.14.767.447 1 .787.157.228.17.715.032.954-.11.19-.582.304-.834.237-.866-.237-1.715-.435-2.618-.226-1.02.235-1.957 1.348-1.906 2.3.05.944.845 1.657 2.019 1.807 1.193.154 2.055-.411 2.373-1.561.087-.318.068-.707.246-.95.206-.28.59-.616.868-.59.283.027.684.418.767.725.278 1.01-.134 1.913-.667 2.745-.915 1.422-2.672 2.053-4.483 1.633-1.766-.408-3.01-1.743-3.23-3.465-.313-2.424 1.876-4.749 4.491-4.849zM30.238 24.26c.65.143 1.322.226 1.942.452.382.141.767.448 1 .787.157.228.17.715.032.954-.11.19-.582.305-.834.237-.866-.237-1.715-.435-2.618-.226-1.02.235-1.957 1.348-1.906 2.3.05.944.845 1.657 2.019 1.807 1.193.154 2.055-.41 2.373-1.56.087-.318.068-.708.246-.951.206-.28.59-.615.868-.59.283.027.684.418.767.725.278 1.01-.134 1.913-.667 2.746-.915 1.422-2.672 2.052-4.483 1.632-1.766-.408-3.01-1.743-3.23-3.465-.313-2.424 1.876-4.748 4.491-4.848zM13.781 24.26c.65.143 1.323.226 1.943.452.382.141.766.448 1 .787.156.228.17.715.031.954-.11.19-.581.305-.834.237-.866-.237-1.715-.435-2.617-.226-1.021.235-1.957 1.348-1.906 2.3.048.944.844 1.657 2.018 1.807 1.193.154 2.055-.41 2.373-1.56.087-.318.068-.708.247-.951.205-.28.59-.615.868-.59.282.027.683.418.766.725.278 1.01-.134 1.913-.666 2.746-.915 1.422-2.673 2.052-4.484 1.632-1.766-.408-3.01-1.743-3.23-3.465-.312-2.424 1.876-4.748 4.491-4.848zM46.697 14.148c.568.126 1.157.198 1.7.396.333.123.67.392.874.688.137.2.149.626.028.835-.097.166-.51.267-.73.208-.758-.208-1.5-.38-2.29-.198-.894.205-1.713 1.18-1.668 2.013.043.825.74 1.45 1.766 1.58 1.044.136 1.798-.359 2.077-1.365.076-.278.06-.619.215-.832.18-.245.516-.538.76-.515.247.023.598.365.67.633.244.885-.117 1.674-.583 2.403-.8 1.244-2.338 1.796-3.923 1.429-1.545-.358-2.633-1.526-2.826-3.033-.273-2.12 1.641-4.155 3.93-4.242zM13.875 35.514c.569.126 1.157.198 1.7.396.334.123.67.392.875.688.137.2.148.626.027.836-.096.165-.508.266-.73.207-.757-.207-1.5-.38-2.29-.198-.893.206-1.712 1.18-1.667 2.013.042.825.739 1.45 1.766 1.58 1.044.136 1.798-.359 2.076-1.365.076-.278.06-.618.216-.832.18-.245.516-.538.76-.515.246.023.597.365.67.633.243.885-.117 1.674-.583 2.403-.8 1.244-2.339 1.796-3.923 1.429-1.545-.358-2.634-1.526-2.827-3.033-.273-2.12 1.642-4.154 3.93-4.242zM46.697 24.787c.568.126 1.157.198 1.7.396.333.124.67.392.874.689.137.2.149.625.028.835-.097.165-.51.266-.73.207-.758-.207-1.5-.38-2.29-.198-.894.206-1.713 1.18-1.668 2.013.043.826.74 1.45 1.766 1.58 1.044.136 1.798-.359 2.077-1.365.076-.278.06-.618.215-.831.18-.246.516-.539.76-.516.247.023.598.365.67.633.244.885-.117 1.675-.583 2.403-.8 1.244-2.338 1.796-3.923 1.429-1.545-.358-2.633-1.526-2.826-3.033-.273-2.12 1.641-4.154 3.93-4.242zM62.911 24.787c.569.126 1.157.198 1.7.396.334.124.67.392.875.689.137.2.148.625.027.835-.096.165-.508.266-.73.207-.757-.207-1.5-.38-2.29-.198-.893.206-1.712 1.18-1.667 2.013.042.826.739 1.45 1.766 1.58 1.044.136 1.798-.359 2.076-1.365.077-.278.06-.618.216-.831.18-.246.516-.539.76-.516.246.023.598.365.67.633.243.885-.117 1.675-.583 2.403-.8 1.244-2.339 1.796-3.923 1.429-1.545-.358-2.634-1.526-2.827-3.033-.273-2.12 1.642-4.154 3.93-4.242zM63.155 14.676c.487.107.992.17 1.457.339.287.106.575.336.75.59.118.171.127.536.024.716-.083.142-.436.228-.626.178-.65-.178-1.286-.327-1.963-.17-.766.176-1.468 1.011-1.43 1.725.037.708.634 1.243 1.514 1.355.895.116 1.542-.308 1.78-1.17.066-.239.051-.53.185-.713.154-.21.443-.462.651-.442.212.02.513.313.575.543.208.758-.1 1.435-.5 2.06-.686 1.066-2.004 1.539-3.362 1.224-1.325-.307-2.258-1.308-2.423-2.6-.234-1.817 1.407-3.56 3.368-3.635zM46.697 35.39c.568.125 1.157.197 1.7.395.333.124.67.392.874.689.137.2.149.626.028.835-.097.166-.51.266-.73.207-.758-.207-1.5-.38-2.29-.197-.894.205-1.713 1.179-1.668 2.012.043.826.74 1.45 1.766 1.581 1.044.135 1.798-.36 2.077-1.366.076-.278.06-.618.215-.831.18-.246.516-.538.76-.516.247.023.598.366.67.634.244.884-.117 1.674-.583 2.403-.8 1.244-2.338 1.795-3.923 1.428-1.545-.357-2.633-1.525-2.826-3.032-.273-2.121 1.641-4.155 3.93-4.242zM30.017 35.029c.569.125 1.157.198 1.7.395.334.124.67.392.875.69.137.199.148.625.027.834-.096.166-.509.267-.73.208-.757-.208-1.5-.38-2.29-.198-.893.205-1.712 1.18-1.668 2.012.043.826.74 1.45 1.767 1.581 1.044.135 1.798-.36 2.076-1.366.076-.277.06-.618.216-.83.18-.246.516-.54.76-.516.246.022.597.365.67.633.243.885-.117 1.674-.583 2.403-.8 1.244-2.339 1.796-3.923 1.428-1.545-.357-2.634-1.525-2.827-3.032-.273-2.121 1.642-4.155 3.93-4.242zM62.705 45.533c.715.158 1.455.249 2.137.498.42.155.843.492 1.1.866.173.25.187.787.035 1.05-.121.208-.64.335-.918.26-.953-.26-1.887-.478-2.88-.248-1.123.258-2.153 1.483-2.097 2.53.054 1.04.93 1.824 2.221 1.989 1.313.17 2.261-.452 2.612-1.718.095-.35.074-.777.27-1.045.227-.309.65-.677.956-.649.31.03.752.46.843.797.306 1.112-.147 2.105-.733 3.022-1.007 1.564-2.941 2.258-4.933 1.796-1.944-.45-3.312-1.918-3.555-3.813-.343-2.668 2.065-5.225 4.942-5.335zM46.8 45.464c.65.144 1.323.226 1.942.453.383.14.767.447 1 .787.157.228.17.715.032.954-.11.19-.582.304-.834.237-.866-.237-1.715-.435-2.617-.226-1.021.235-1.957 1.348-1.906 2.3.048.944.844 1.657 2.018 1.807 1.193.154 2.055-.411 2.373-1.561.087-.318.068-.707.247-.95.205-.28.59-.616.868-.59.282.027.683.418.766.725.278 1.01-.134 1.913-.667 2.745-.914 1.422-2.672 2.053-4.483 1.633-1.766-.409-3.01-1.743-3.23-3.465-.312-2.425 1.876-4.749 4.491-4.849zM62.958 34.861c.65.144 1.322.226 1.942.453.382.14.766.447 1 .787.157.228.17.715.032.954-.11.19-.582.304-.835.237-.866-.237-1.715-.435-2.617-.226-1.02.235-1.957 1.348-1.906 2.3.049.944.845 1.657 2.019 1.807 1.193.154 2.054-.411 2.373-1.561.087-.318.068-.707.246-.95.206-.28.59-.616.868-.59.283.027.684.418.767.725.278 1.01-.134 1.913-.667 2.745-.915 1.422-2.672 2.053-4.483 1.633-1.766-.409-3.01-1.743-3.23-3.465-.313-2.425 1.876-4.749 4.49-4.849zM29.784 45.992c.568.125 1.157.198 1.7.396.334.123.67.392.874.688.138.2.149.626.028.835-.096.166-.509.267-.73.208-.758-.208-1.5-.38-2.29-.198-.893.205-1.712 1.18-1.668 2.013.043.825.74 1.45 1.767 1.58 1.043.136 1.798-.359 2.076-1.365.076-.278.06-.619.216-.832.18-.245.516-.538.76-.515.246.023.597.365.67.633.243.885-.117 1.674-.583 2.403-.801 1.244-2.339 1.796-3.923 1.429-1.545-.358-2.634-1.526-2.827-3.033-.273-2.12 1.642-4.155 3.93-4.242zM13.883 46.52c.488.107.992.17 1.457.339.287.106.575.336.75.59.118.171.127.536.024.716-.083.142-.436.228-.626.178-.65-.178-1.286-.327-1.963-.17-.766.176-1.468 1.011-1.43 1.725.037.708.634 1.243 1.515 1.355.894.116 1.54-.308 1.78-1.17.065-.239.05-.53.184-.713.155-.21.443-.462.651-.442.212.02.513.313.575.543.208.758-.1 1.435-.5 2.06-.686 1.066-2.004 1.539-3.362 1.224-1.325-.307-2.258-1.308-2.423-2.6-.234-1.817 1.407-3.56 3.368-3.635z"/></g></g></svg>