<svg width="72" height="72" xmlns="http://www.w3.org/2000/svg"><g fill="none" fill-rule="evenodd"><path d="M31.39 60.005c16.569 0 30-13.458 30-30.06 0-16.603-13.431-20.94-30-20.94-16.568 0-30 4.337-30 20.94 0 16.602 13.432 30.06 30 30.06z" fill="#FAE041" style="mix-blend-mode:multiply" transform="rotate(146 31.39 34.505)"/><path fill="#FFF" d="M24.026 44.5 17 50.64l23 16.258L60.5 50.64 52.424 44z"/><path fill="#FFF" d="m31.386 36.122-8.825 5.665 16.877 12.65 16.142-11.42-10.255-7.957-6.119 6.956z"/><path d="M36.85 5.995c6.715-.133 6.669.987 8.484 1.013 1.816.026 5.599 5.124 6.912 10.02 1.314 4.897-9.916 21.575-10.275 22.617-.359 1.043-3.734 3.811-4.13 3.503-.255-.197-4.246-6.296-7.834-11.88l-.411-.641c-1.844-2.874-3.535-5.543-4.496-7.109-1.92-3.131-.796-7.84 3.374-14.125 1.107-2.177 3.899-3.31 8.376-3.398zM38.5 14a5.5 5.5 0 1 0 0 11 5.5 5.5 0 0 0 0-11z" fill="#FFF"/><g fill="#000" fill-rule="nonzero"><path d="M54.28 17.466c-.378 3.66-1.471 7.712-3.552 11.36-2.366 4.154-5.078 8.118-7.689 12.132-.699 1.072-1.868 1.325-2.784.799-.964-.55-1.33-1.752-.654-2.9 1.052-1.8 2.233-3.527 3.402-5.255 2.788-4.113 5.166-8.363 6.556-13.236 1.747-6.11-1.96-10.352-6.897-12.092-5.705-2.012-10.489-.425-14.526 3.756-2.065 2.138-2.274 4.897-1.884 7.717.446 3.242 1.864 6.098 3.611 8.794 2.913 4.503 5.905 8.954 8.842 13.44.554.848 1.542 1.708.478 2.805-.679.699-1.824.442-2.908-.956-2.808-3.62-5.52-7.315-8.207-11.027-2.222-3.07-4.206-6.311-4.921-10.08-.43-2.265-.72-4.647-.523-6.933.631-7.299 9.79-14.192 18.158-12.529 4.186.832 7.954 2.37 10.794 5.809 1.92 2.33 2.61 4.945 2.703 8.396zM19.23 50.795c4.314 2.977 8.508 5.837 12.666 8.746a167.097 167.097 0 0 1 6.632 4.864c.715.555 1.033.43 1.711-.1 3.676-2.876 7.424-5.66 11.16-8.456 2.185-1.635 4.399-3.234 6.656-4.893-.791-.699-1.554-1.314-2.25-1.996-.586-.575-.984-1.302-.413-2.081.61-.836 1.442-.639 2.197-.19.948.567 1.896 1.142 2.772 1.813 1.53 1.169 1.695 2.599.325 3.989a41.96 41.96 0 0 1-4.334 3.804c-4.58 3.519-9.215 6.961-13.815 10.444-.618.47-1.185 1.009-1.747 1.543-.74.699-1.527.759-2.334.189a6755.876 6755.876 0 0 1-20.572-14.514 12.37 12.37 0 0 1-1.996-1.812c-.68-.763-.812-1.703.024-2.406 1.301-1.093 2.66-2.141 4.11-3.017.413-.249 1.433-.048 1.807.321.619.611.221 1.378-.39 1.913-.67.586-1.373 1.144-2.209 1.84z"/><path d="M24.288 41.725c4.953 3.724 9.793 7.36 14.646 11.007 2.358-1.788 4.712-3.68 7.178-5.407 2.443-1.716 5.006-3.262 7.69-4.998-.455-.305-.808-.53-1.154-.77-1.173-.82-2.378-1.6-3.503-2.483-.747-.587-1.012-1.443-.43-2.29.587-.856 1.45-.856 2.298-.418.723.378 1.414.823 2.101 1.265 1.137.735 2.258 1.487 3.383 2.238 1.763 1.18 2 2.736.385 4.142-1.787 1.554-3.683 3.012-5.68 4.282-3.467 2.197-6.885 4.423-9.902 7.235-1.346 1.257-2.94 1.297-4.5.2-1.907-1.341-3.755-2.771-5.631-4.161-2.864-2.117-5.733-4.23-8.6-6.347-.56-.414-1.142-.804-1.664-1.262-1.466-1.277-1.394-2.35.201-3.414 1.43-.956 2.86-1.908 4.302-2.848.374-.245.784-.579 1.19-.595.542-.024 1.277.06 1.586.406.217.245.02 1.105-.261 1.494-.394.543-1.028.924-1.59 1.33-.7.506-1.419.968-2.045 1.394zM37.845 27.28c-3.808-.013-6.106-1.917-7.102-5.343-1.06-3.66 1.66-8.476 5.307-9.268.666-.144 1.478-.048 2.12.201.756.297.736 1.089.025 1.518-.486.294-1.049.454-1.563.707-3.11 1.539-4.05 5.492-1.8 7.93.523.567 1.426 1 2.198 1.077 2.125.209 3.808-.776 5.053-2.459.996-1.35.88-2.804-.22-4.17-1.134-1.405-1.238-2.378-.33-3.077.916-.707 2.141-.32 3.13.989a6.56 6.56 0 0 1 .24 7.592c-1.807 2.74-4.402 4.186-7.058 4.302z"/></g></g></svg>