<svg width="72" height="72" xmlns="http://www.w3.org/2000/svg"><g fill="none" fill-rule="evenodd"><path d="m39.4 27.926-22.766-3.828a7.104 7.104 0 0 0-6.085 1.871l-7.352 7.027a7.112 7.112 0 0 0-1.696 7.762l9.416 23.753a7.104 7.104 0 0 0 8.06 4.337l24.843-5.203a7.107 7.107 0 0 0 5.59-6.045l1.531-11.818a7.114 7.114 0 0 0-.877-4.44l-5.672-9.932a7.104 7.104 0 0 0-4.991-3.484" fill="#FAE041" style="mix-blend-mode:multiply"/><path d="M41.876 42.541c0-1.74.003-3.475-.003-5.214 0-.171-.01-.392-.111-.5-.4-.434-2.384.037-2.637.596-.563 1.244-1.109 2.499-1.71 3.725-.29.588-.774 1.012-1.462.645-.64-.343-.553-.97-.346-1.526.29-.773.723-1.493.975-2.277.75-2.338 2.122-3.767 4.665-3.607.636.04.726-.314.702-.877a70.897 70.897 0 0 1-.056-4.02c.01-.61-.155-.752-.763-.773-2.689-.09-4.61-.46-6.87 2.765-.121.171-1.276.76-.854 1.615.17.563.221 1.187.097 1.821-.425 2.138-1.396 4.002-2.596 5.763-.283.414-.622.813-1.078 1.016-.262.117-.598.342-.884.085-.336-.303-.142-.641.02-.976.716-1.44 1.431-2.88 2.119-4.334 1.25-2.652.656-4.138-2.036-5.107a13.82 13.82 0 0 0-1.932-.52c-1.033-.21-2.076-.357-3.11-.553-.57-.107-1.175-.285-1.109-1.048.073-.848.746-.845 1.358-.816 1.52.068 2.962.56 4.437.866 1.227.257 2.454 1.369 3.484 1.048 1.116-.346 1.956-1.682 2.878-2.623.685-.699 1.452-1.066 2.43-1.102 1.227-.042 2.45-.238 3.677-.306.535-.029.743-.189.708-.763-.045-.795-.083-1.604.004-2.388.11-1.005-.256-1.187-1.172-1.144-2.879.136-5.76.175-8.643.214-.819.01-1.51-.363-1.517-1.3-.007-.913.657-1.291 1.465-1.401.208-.029.422-.04.633-.047 2.775-.096 5.55-.2 8.325-.281.504-.015.85-.018.795-.756-.242-3.247-.222-6.504-.692-9.744-.356-2.47-1.696-4.02-3.66-5.097-1.52-.834-3.14-.876-4.537.368-1.289 1.147-2.1 2.566-2.232 4.398-.062.88.19 1.258.957 1.607 2.036.927 3.525 2.47 4.368 4.626.221.567.176 1.101-.376 1.415-.512.292-.95.05-1.296-.381a4.323 4.323 0 0 1-.301-.446c-1.362-2.277-3.452-3.482-5.885-4.027-3.87-.873-7.223 2.327-6.656 6.244.093.656.245 1.108 1.085 1.044 1.1-.082 2.157.275 3.138.784.663.342 1.247.863.96 1.704-.31.909-1.091.887-1.862.677-.677-.185-1.34-.46-2.029-.549-3.203-.41-6.835 2.085-7.56 5.147-.837 3.539 1.33 7.947 4.568 9.17 2.315.873 4.669.94 6.994-.014.519-.21.982-.275 1.307.246.314.506.093.969-.263 1.372-.366.417-.84.666-1.351.802-.712.189-1.434.353-2.16.47-.335.054-.58.118-.736.474-.377.856-.895 1.661-1.172 2.545-.916 2.905-.297 5.054 2.354 6.358 2.163 1.066 4.333 1.387 6.528.004.639-.403 1.389-.506 1.79.385.37.823-.177 1.28-.795 1.632-.429.246-.868.474-1.32.663-.564.235-.709.652-.591 1.215.387 1.857 1.99 3.243 3.863 3.429 2.43.239 4.476-.66 6.317-2.178.737-.61 1.082-1.408 1.224-2.42.352-2.612.297-5.214.138-7.823z" fill="#FFF"/><path d="M59.395 25.768c.758.01 1.2-.247 1.623-.901.963-1.493 2.349-2.47 4.199-2.661.556-.06 1.166-.025 1.34.612.18.66-.355.925-.887 1.124-.744.278-1.445.633-2.073 1.116-1.01.78-1.31 1.757-.903 2.908.432 1.218 1.151 1.69 2.54 1.698.585.003 1.149-.066 1.69-.282 1.592-.633 2.145-2.185 1.259-3.642-.45-.741-.893-1.465.064-2.112.613-.417 1.495.063 2.062 1.047 1.85 3.229-.188 6.923-4.043 7.326-3.08.324-4.604-.556-5.776-3.409-.178-.434-.408-.487-.801-.473-5.188.164-10.373.32-15.56.466-.4.01-.706.028-.691.55.039 1.485.063 2.97.063 4.456 0 .588.394.494.734.46 1.584-.168 3.168-.029 4.752-.05 1.013-.013 1.825.279 2.463 1.062 1.417 1.746 3.022 3.322 4.628 4.9.425.422.762.648 1.357.262.546-.352 1.208-.435 1.87-.404.476.025.876.181.993.658.124.5-.223.807-.641.977-.801.327-1.591.658-2.282 1.186-1.07.814-1.379 1.785-.936 2.985.45 1.225 1.134 1.666 2.562 1.66 2.92-.018 4.036-1.823 2.661-4.318-.326-.59-.407-1.158.167-1.62.602-.484 1.141-.21 1.63.236 1.198 1.092 1.609 3.53.872 5.152-1.428 3.134-6.659 3.99-9.019 1.475-1.51-1.607-1.81-3.66-.708-5.545.3-.515.209-.783-.128-1.18-1.442-1.68-3.051-3.203-4.67-4.713-.312-.292-.635-.424-1.06-.414-1.549.038-3.097.087-4.646.073-.623-.007-.712.275-.684.776.16 2.685.057 5.374.078 8.063.01 1.513-.227 3.016-.01 4.543.17 1.207-.33 2.355-1.145 3.225-2.619 2.8-5.79 4.421-9.78 3.844-2.672-.386-5.107-3.183-5.103-5.82 0-.675-.174-.796-.815-.835-1.333-.073-2.64-.348-3.866-.897-3.891-1.753-5.309-5.27-3.675-9.145.312-.745 1.12-1.611.925-2.147-.22-.595-1.453-.424-2.226-.682-3.444-1.147-6.683-5.384-6.793-8.696-.17-5.127 3.207-8.39 6.854-9.604.56-.188.974-.237.797-1.075-1.074-5.09 3.448-9.323 8.498-8.672.747.097.793-.077.761-.728-.163-3.388 1.964-5.555 4.607-7.002 2.187-1.197 4.504-.39 6.577 1.012 3.165 2.14 4.086 5.166 4.065 8.739-.015 2.431.265 4.866.404 7.298.024.42.16.678.641.615a.543.543 0 0 1 .106 0c3.686.192 3.686.188 5.784-2.79.797-1.133 1.58-2.281 2.416-3.384.351-.463.411-.783.043-1.287-.868-1.183-1.297-2.519-1.046-4 .135-.79.458-1.517 1.404-1.448.932.07 1.063.818.996 1.59-.057.647.031 1.26.318 1.854.606 1.249 1.478 1.854 2.563 1.729 1.155-.136 2.324-1.05 2.562-2.01.24-.968-.433-2.662-1.297-3.177-.748-.445-1.545-.74-2.456-.65-.581.059-1.216.083-1.336-.703-.114-.748.376-1.099 1.017-1.273 1.952-.529 3.55.275 4.943 1.458 1.464 1.241 2.002 4.18 1.209 5.791-.954 1.935-3.42 3.25-5.567 2.85-.808-.15-1.237.055-1.68.688-1.45 2.063-3.012 4.056-4.252 6.255-.525.928-1.365 1.214-2.336 1.249-1.045.038-2.09.052-3.136.006-.592-.024-.726.181-.684.724.064.81.117 1.631.036 2.439-.071.727.074.95.871.928 2.456-.059 12.258-.348 14.707-.316zM41.87 42.78c0-1.706.004-3.408-.003-5.114 0-.168-.01-.385-.115-.49-.416-.426-2.473.035-2.734.584-.584 1.22-1.15 2.45-1.774 3.653-.301.577-.803.993-1.516.633-.663-.336-.574-.951-.358-1.496.3-.759.749-1.465 1.01-2.234.778-2.293 2.2-3.695 4.838-3.538.66.039.753-.307.728-.86-.058-1.314-.08-2.628-.058-3.942.011-.598-.16-.738-.792-.759-2.788-.087-4.78-.45-7.124 2.713-.126.167-1.323.744-.885 1.583a3.52 3.52 0 0 1 .1 1.786c-.44 2.098-1.448 3.926-2.691 5.653-.294.405-.645.797-1.119.996-.272.115-.62.335-.917.084-.348-.297-.147-.63.022-.958.741-1.412 1.483-2.824 2.196-4.25 1.298-2.601.681-4.059-2.11-5.01a14.99 14.99 0 0 0-2.004-.51c-1.071-.206-2.154-.35-3.225-.542-.591-.105-1.219-.28-1.15-1.028.075-.831.774-.828 1.408-.8 1.577.066 3.071.549 4.601.85 1.273.251 2.545 1.342 3.613 1.027 1.157-.339 2.028-1.65 2.985-2.573.71-.685 1.505-1.045 2.52-1.08 1.272-.042 2.54-.234 3.813-.3.555-.028.77-.186.734-.748-.046-.78-.086-1.573.004-2.342.115-.986-.265-1.164-1.215-1.122-2.985.132-5.974.17-8.963.21-.85.01-1.566-.357-1.573-1.277-.007-.894.68-1.265 1.52-1.373.214-.028.436-.039.655-.046 2.878-.094 5.756-.195 8.633-.276.524-.014.882-.017.825-.74-.251-3.185-.23-6.38-.717-9.558-.37-2.422-1.76-3.942-3.795-4.998-1.577-.818-3.258-.86-4.706.36-1.337 1.125-2.179 2.517-2.315 4.313-.064.864.197 1.234.993 1.577 2.11.909 3.655 2.422 4.53 4.537.229.556.182 1.08-.391 1.388-.53.286-.986.049-1.344-.374a4.234 4.234 0 0 1-.312-.437c-1.412-2.234-3.58-3.415-6.103-3.95-4.014-.857-7.49 2.282-6.902 6.124.097.643.254 1.087 1.125 1.024 1.14-.08 2.236.27 3.254.77.688.335 1.294.845.997 1.67-.323.891-1.133.87-1.932.664-.703-.182-1.39-.45-2.104-.538-3.322-.402-7.088 2.045-7.841 5.047-.867 3.471 1.38 7.795 4.738 8.994 2.4.857 4.841.923 7.253-.014.538-.206 1.018-.269 1.355.241.326.497.097.951-.273 1.346-.38.41-.87.654-1.4.787-.739.185-1.488.346-2.24.461-.348.053-.603.115-.764.465-.39.839-.928 1.629-1.215 2.496-.95 2.849-.308 4.956 2.44 6.236 2.244 1.045 4.495 1.36 6.77.003.663-.395 1.441-.496 1.857.378.383.807-.183 1.255-.824 1.6-.445.242-.9.466-1.37.65-.584.232-.734.64-.612 1.193.401 1.821 2.064 3.18 4.006 3.362 2.52.235 4.641-.646 6.551-2.135.764-.598 1.122-1.381 1.27-2.374.365-2.562.307-5.114.142-7.672z" stroke="#000" fill="#060606" fill-rule="nonzero"/></g></svg>