<svg width="200" height="200" viewBox="0 0 200 200" fill="none" xmlns="http://www.w3.org/2000/svg">
<g style="mix-blend-mode:multiply">
<path d="M67.3615 44.8186L18.8183 127.522C7.98405 145.947 21.4917 169.082 43.1603 169.082H166.84C188.508 169.082 202.016 145.947 191.182 127.522L115.905 44.8186C105.211 26.3938 78.1957 26.3938 67.3615 44.8186Z" fill="#20BEFF"/>
</g>
<path d="M44.577 94.2559L56.4782 107.207L93.9323 43.1503H112.834H133.137L143.988 59.9522L153.789 43.1503L174.791 47.0008L182.142 59.9522L163.94 94.2559L182.142 128.91L172.691 142.211L155.189 143.961L142.938 128.91L134.537 145.361H112.834L101.983 127.86H87.6316L76.0804 143.961H17.274L8.87311 127.159L26.375 94.2559H44.577Z" fill="white"/>
<path d="M141.866 58.2869C141.139 59.6523 141.657 61.348 143.023 62.0743C144.388 62.8006 146.084 62.2824 146.81 60.917L141.866 58.2869ZM164.64 45.9505C166.186 45.9505 167.44 44.6968 167.44 43.1502C167.44 41.6036 166.186 40.3499 164.64 40.3499V45.9505ZM152.694 43.8928L150.221 42.5778L152.694 43.8928ZM146.81 60.917L155.166 45.2079L150.221 42.5778L141.866 58.2869L146.81 60.917ZM153.93 45.9505H164.64V40.3499H153.93V45.9505ZM155.166 45.2079C154.923 45.6649 154.447 45.9505 153.93 45.9505V40.3499C152.377 40.3499 150.951 41.2067 150.221 42.5778L155.166 45.2079Z" fill="black"/>
<path d="M133.487 143.611L133.77 146.397C134.644 146.308 135.426 145.814 135.881 145.063L133.487 143.611ZM44.9272 93.9058L47.2751 92.3797C46.7585 91.585 45.875 91.1055 44.9272 91.1055V93.9058ZM47.1297 102.433C47.9726 103.729 49.7071 104.097 51.0038 103.255C52.3005 102.412 52.6684 100.677 51.8256 99.3804L47.1297 102.433ZM112.191 144.399L114.705 143.166L112.191 144.399ZM114.289 145.564L114.573 148.349L114.289 145.564ZM53.1967 110.381L53.1408 107.581L53.1967 110.381ZM54.9713 109.336L52.5492 107.93L54.9713 109.336ZM92.9754 43.8464L90.5532 42.4409L92.9754 43.8464ZM38.35 107.632L35.8246 106.422L38.35 107.632ZM40.286 110.64L40.23 107.84L40.286 110.64ZM16.6605 142.603L19.0525 141.147L16.6605 142.603ZM124.649 128.882L122.248 130.322L124.649 128.882ZM141.687 92.906L139.234 94.2575L141.687 92.906ZM141.699 94.9119L144.166 96.235L141.699 94.9119ZM123.934 60.6888L126.387 59.3373L123.934 60.6888ZM134.786 43.8854L137.238 42.532L134.786 43.8854ZM154.624 73.3277L157.012 74.791L154.624 73.3277ZM150.995 73.2453L148.543 74.5987L150.995 73.2453ZM181.884 60.6851L179.442 59.3146L181.884 60.6851ZM181.836 58.5477L184.214 57.0683L181.836 58.5477ZM163.832 94.9392L161.402 96.3312L163.832 94.9392ZM163.823 92.8673L166.265 94.2377L163.823 92.8673ZM181.963 128.527L184.447 129.819L181.963 128.527ZM181.921 126.514L184.351 125.122L181.921 126.514ZM171.473 141.713L169.052 143.121L171.473 141.713ZM175.152 141.626L177.636 142.918L175.152 141.626ZM151.605 113.731L154 115.183L151.605 113.731ZM155.217 113.764L157.637 112.356L155.217 113.764ZM102.804 127.834L102.861 125.034L102.804 127.834ZM104.647 129.009L102.132 130.241L104.647 129.009ZM86.2953 128.486L88.6406 130.016L86.2953 128.486ZM88.0973 127.533L88.0399 130.333L88.0973 127.533ZM77.0522 142.658L74.7063 141.129L77.0522 142.658ZM8.06189 126.443L10.5134 127.796L8.06189 126.443ZM8.10652 128.55L10.4985 127.094L8.10652 128.55ZM174.487 46.738L172.11 48.2174L174.487 46.738ZM170.913 46.75L168.526 45.2867L170.913 46.75ZM25.426 94.991L22.9745 93.6375L25.426 94.991ZM22.9745 93.6375L5.61039 125.089L10.5134 127.796L27.8775 96.3444L22.9745 93.6375ZM79.3975 144.188L88.6406 130.016L83.9494 126.956L74.7063 141.129L79.3975 144.188ZM88.0399 130.333L102.747 130.633L102.861 125.034L88.154 124.734L88.0399 130.333ZM135.881 145.063L154 115.183L149.211 112.279L131.092 142.159L135.881 145.063ZM152.796 115.172L169.052 143.121L173.893 140.305L157.637 112.356L152.796 115.172ZM177.636 142.918L184.447 129.819L179.478 127.235L172.667 140.334L177.636 142.918ZM184.351 125.122L166.261 93.5471L161.402 96.3312L179.492 127.906L184.351 125.122ZM166.265 94.2377L184.326 62.0556L179.442 59.3146L161.381 91.4967L166.265 94.2377ZM184.214 57.0683L176.866 45.2586L172.11 48.2174L179.459 60.0271L184.214 57.0683ZM168.526 45.2867L152.237 71.8644L157.012 74.791L173.301 48.2134L168.526 45.2867ZM153.447 71.8918L137.238 42.532L132.334 45.2389L148.543 74.5987L153.447 71.8918ZM121.482 62.0402L139.234 94.2575L144.139 91.5546L126.387 59.3373L121.482 62.0402ZM139.23 93.5888L122.131 125.486L127.067 128.132L144.166 96.235L139.23 93.5888ZM122.248 130.322L131.085 145.052L135.888 142.17L127.05 127.441L122.248 130.322ZM5.71451 130.006L14.2685 144.059L19.0525 141.147L10.4985 127.094L5.71451 130.006ZM18.4545 146.412H75.2929V140.811H18.4545V146.412ZM27.2647 96.7061H44.9272V91.1055H27.2647V96.7061ZM42.4018 92.6958L35.8246 106.422L40.8753 108.842L47.4525 95.1159L42.4018 92.6958ZM94.7921 45.6006H132.947V40H94.7921V45.6006ZM40.342 113.439L53.2527 113.181L53.1408 107.581L40.23 107.84L40.342 113.439ZM57.3933 110.741L95.3977 45.2519L90.5532 42.4409L52.5492 107.93L57.3933 110.741ZM102.132 130.241L109.676 145.631L114.705 143.166L107.161 127.776L102.132 130.241ZM114.573 148.349L133.77 146.397L133.203 140.826L114.006 142.777L114.573 148.349ZM122.095 56.8018H106.884V62.4024H122.095V56.8018ZM42.5792 95.4319L47.1297 102.433L51.8256 99.3804L47.2751 92.3797L42.5792 95.4319ZM109.676 145.631C110.579 147.472 112.533 148.557 114.573 148.349L114.006 142.777C114.298 142.748 114.576 142.903 114.705 143.166L109.676 145.631ZM53.2527 113.181C54.9644 113.147 56.5341 112.222 57.3933 110.741L52.5492 107.93C52.672 107.719 52.8963 107.586 53.1408 107.581L53.2527 113.181ZM94.7921 40C93.0448 40 91.4304 40.9299 90.5532 42.4409L95.3977 45.2519C95.2724 45.4678 95.0414 45.6006 94.7921 45.6006V40ZM35.8246 106.422C34.2475 109.714 36.6929 113.512 40.342 113.439L40.23 107.84C40.7513 107.829 41.1007 108.372 40.8753 108.842L35.8246 106.422ZM14.2685 144.059C15.1577 145.52 16.7442 146.412 18.4545 146.412V140.811C18.6988 140.811 18.9254 140.938 19.0525 141.147L14.2685 144.059ZM122.131 125.486C121.316 127.006 121.36 128.843 122.248 130.322L127.05 127.441C127.177 127.652 127.183 127.915 127.067 128.132L122.131 125.486ZM139.234 94.2575C139.12 94.0496 139.118 93.798 139.23 93.5888L144.166 96.235C144.951 94.7711 144.941 93.0093 144.139 91.5546L139.234 94.2575ZM126.387 59.3373C125.525 57.7733 123.881 56.8018 122.095 56.8018V62.4024C121.84 62.4024 121.605 62.2636 121.482 62.0402L126.387 59.3373ZM137.238 42.532C136.375 40.9699 134.731 40 132.947 40V45.6006C132.692 45.6006 132.458 45.462 132.334 45.2389L137.238 42.532ZM152.237 71.8644C152.517 71.4067 153.187 71.4219 153.447 71.8918L148.543 74.5987C150.359 77.8878 155.048 77.9942 157.012 74.791L152.237 71.8644ZM184.326 62.0556C185.201 60.497 185.158 58.5858 184.214 57.0683L179.459 60.0271C179.323 59.8103 179.317 59.5372 179.442 59.3146L184.326 62.0556ZM166.261 93.5471C166.384 93.7608 166.385 94.023 166.265 94.2377L161.381 91.4967C160.537 92.9999 160.545 94.8357 161.402 96.3312L166.261 93.5471ZM184.447 129.819C185.217 128.339 185.181 126.569 184.351 125.122L179.492 127.906C179.374 127.699 179.368 127.446 179.478 127.235L184.447 129.819ZM169.052 143.121C170.994 146.459 175.854 146.344 177.636 142.918L172.667 140.334C172.921 139.845 173.616 139.828 173.893 140.305L169.052 143.121ZM154 115.183C153.725 115.638 153.063 115.631 152.796 115.172L157.637 112.356C155.767 109.142 151.139 109.099 149.211 112.279L154 115.183ZM102.747 130.633C102.485 130.628 102.248 130.476 102.132 130.241L107.161 127.776C106.354 126.13 104.695 125.071 102.861 125.034L102.747 130.633ZM88.6406 130.016C88.5083 130.218 88.2814 130.338 88.0399 130.333L88.154 124.734C86.4626 124.699 84.8735 125.539 83.9494 126.956L88.6406 130.016ZM74.7063 141.129C74.8358 140.931 75.0563 140.811 75.2929 140.811V146.412C76.9486 146.412 78.493 145.575 79.3975 144.188L74.7063 141.129ZM5.61039 125.089C4.76079 126.629 4.80052 128.504 5.71451 130.006L10.4985 127.094C10.6291 127.309 10.6348 127.577 10.5134 127.796L5.61039 125.089ZM176.866 45.2586C174.94 42.1642 170.43 42.1794 168.526 45.2867L173.301 48.2134C173.029 48.6572 172.385 48.6594 172.11 48.2174L176.866 45.2586ZM27.8775 96.3444C27.7543 96.5676 27.5196 96.7061 27.2647 96.7061V91.1055C25.4802 91.1055 23.837 92.0754 22.9745 93.6375L27.8775 96.3444Z" fill="black"/>
<path d="M52.181 104.209C51.8882 104.368 48.9246 104.411 48.0777 103.707C47.65 103.351 47.1233 102.413 46.4707 101.522C46.2736 101.253 46.0812 100.979 45.9118 100.692L45.4556 99.918L50.1695 96.766L51.8707 99.4176C52.3927 100.231 52.9143 101.66 52.9143 101.66C52.9143 101.66 53.3312 103.263 52.7404 103.85C52.5559 104.034 52.4739 104.05 52.181 104.209Z" fill="black"/>
<path d="M145.825 131.381C146.109 131.217 149.038 131.108 149.901 131.79C150.403 132.187 151.062 133.348 151.885 134.317C152.445 135.205 152.632 135.501 152.632 135.501L148.084 138.742L146.306 136.142C145.76 135.344 145.192 133.934 145.192 133.934C145.192 133.934 144.722 132.348 145.285 131.751C145.46 131.565 145.541 131.546 145.825 131.381Z" fill="black"/>
<path d="M123.336 93.2057L125.788 94.5571C126.27 93.6836 126.25 92.62 125.737 91.7649L123.336 93.2057ZM106.582 91.1466L104.111 89.8288L106.582 91.1466ZM120.883 91.8542L101.981 126.158L106.886 128.861L125.788 94.5571L120.883 91.8542ZM125.737 91.7649L117.558 78.1337L112.755 81.0152L120.934 94.6464L125.737 91.7649ZM110.25 78.3181L104.111 89.8288L109.053 92.4644L115.192 80.9537L110.25 78.3181ZM107.817 96.006H123.336V90.4054H107.817V96.006ZM104.111 89.8288C102.619 92.6268 104.646 96.006 107.817 96.006V90.4054C108.874 90.4054 109.55 91.5317 109.053 92.4644L104.111 89.8288ZM117.558 78.1337C115.878 75.3341 111.787 75.4373 110.25 78.3181L115.192 80.9537C114.68 81.914 113.315 81.9484 112.755 81.0152L117.558 78.1337Z" fill="black"/>
<path d="M18.3244 124.009C16.7779 124.009 15.5241 125.263 15.5241 126.809C15.5241 128.356 16.7779 129.61 18.3244 129.61V124.009ZM66.2796 126.809V129.61H67.8953L68.7039 128.211L66.2796 126.809ZM116.357 44.4654C117.083 43.1 116.565 41.4043 115.199 40.678C113.834 39.9517 112.139 40.4699 111.413 41.8353L116.357 44.4654ZM105.134 59.6021L107.558 61.0037L107.583 60.9608L107.606 60.9172L105.134 59.6021ZM18.3244 129.61H66.2796V124.009H18.3244V129.61ZM68.7039 128.211L107.558 61.0037L102.709 58.2006L63.8553 125.408L68.7039 128.211ZM107.606 60.9172L116.357 44.4654L111.413 41.8353L102.662 58.287L107.606 60.9172Z" fill="black"/>
<path d="M150.831 132.902C149.942 131.635 148.196 131.329 146.93 132.217C145.663 133.106 145.357 134.852 146.245 136.118L150.831 132.902ZM154.923 143.611L152.63 145.219L153.515 146.481L155.055 146.408L154.923 143.611ZM146.245 136.118L152.63 145.219L157.215 142.003L150.831 132.902L146.245 136.118ZM155.055 146.408L173.523 145.533L173.258 139.938L154.79 140.813L155.055 146.408Z" fill="black"/>
<path d="M166.995 45.5184C167.282 45.3635 168.405 44.6655 168.454 43.2131C168.489 42.1409 167.189 41.2625 166.257 40.7728C165.666 40.4616 164.997 40.3532 164.329 40.3596L160.067 40.3729L160.039 45.9805C160.039 45.9805 161.108 45.9862 162.158 45.9914C162.508 45.9931 164.745 46.0798 165.112 46.0064C166.211 45.7862 166.695 45.6357 166.859 45.5782C166.906 45.5617 166.951 45.542 166.995 45.5184Z" fill="black"/>
</svg>
