<svg width="200" height="200" viewBox="0 0 200 200" fill="none" xmlns="http://www.w3.org/2000/svg">
<g style="mix-blend-mode:multiply">
<path d="M134.286 34.2535L65.9458 15C57.3666 15 49.3916 19.5094 45.0416 26.8668L13.2625 80.8605C8.9125 88.2179 8.9125 97.2366 13.2625 104.594L45.0416 158.588C49.3916 165.945 57.3666 170.455 65.9458 170.455H134.054C142.633 170.455 150.608 165.945 154.958 158.588L186.738 123.581C191.087 116.223 191.087 107.205 186.738 99.8473L154.958 50.6003C150.608 43.2429 142.5 35.6797 134.286 34.2535Z" fill="#FAE041"/>
</g>
<g clip-path="url(#clip0_155_4656)">
<path d="M146.764 47.3733C147.415 47.3733 148.514 46.8415 148.822 46.8415C149.783 46.7351 150.778 46.9478 151.738 46.6287C152.699 46.416 153.488 44.8205 153.522 41.7359C153.591 38.545 152.767 37.0559 151.841 36.6304C151.293 36.3113 150.675 36.5241 150.092 36.5241C148.239 36.6304 146.42 36.6304 144.568 36.7368C128.477 37.9068 112.386 35.1413 96.3301 37.4813C90.6349 38.3323 84.9054 39.3959 79.2102 40.2468C77.186 40.5659 75.1275 40.2468 73.1033 40.4596C72.3142 40.4596 71.4222 40.885 71.4222 44.076C71.3879 46.9478 72.1426 48.0115 73.0003 48.4369C73.5836 48.6496 74.1668 48.6496 74.7158 49.0751C76.7057 50.777 78.7985 48.1179 80.7541 50.1388C82.4008 49.9261 84.0477 50.0325 85.6945 49.607C97.0163 46.9478 108.372 46.2033 119.729 47.0542C124.394 47.3733 129.026 47.5861 133.692 47.2669C138.015 46.9478 142.372 47.1606 146.764 47.3733Z" fill="#0E0C0C"/>
<path d="M95.5049 175.555C93.1805 175.625 91.353 177.566 91.423 179.89C91.493 182.215 93.4339 184.042 95.7583 183.972L95.5049 175.555ZM135.74 182.768C138.065 182.699 139.892 180.758 139.822 178.434C139.752 176.109 137.811 174.281 135.487 174.351L135.74 182.768ZM95.7583 183.972L135.74 182.768L135.487 174.351L95.5049 175.555L95.7583 183.972Z" fill="black"/>
<path d="M71.4211 80.2461V56.4546C71.4211 50.6411 76.1339 45.9283 81.9474 45.9283H144.053C149.866 45.9283 154.579 50.6411 154.579 56.4546V82.8458L145.688 121.323C145.688 121.323 136.121 139.184 124.768 142.642C118.518 144.545 115.444 145.674 109.078 144.202C103.381 142.885 98.0943 141.082 98.0943 141.082L78.2201 114.564L71.4211 80.2461Z" fill="white"/>
<path d="M117.459 105.316C119.234 105.545 120.493 105.66 121.753 105.946C123.128 106.29 124.158 107.149 124.044 108.637C123.929 110.069 122.784 110.814 121.41 111.1C120.952 111.214 120.436 111.214 119.978 111.214C115.912 111.214 111.904 111.157 107.838 111.1C107.036 111.1 106.235 110.871 105.49 110.642C104.517 110.355 103.772 109.668 103.829 108.58C103.887 107.435 104.688 106.862 105.662 106.576C106.406 106.347 107.265 106.232 108.067 106.232C110.701 106.29 111.789 105.259 111.56 102.453C110.93 95.1803 111.732 87.9076 111.617 80.635C111.56 78.5162 112.305 75.3667 109.9 74.6794C107.953 74.1068 106.693 76.9701 105.376 78.4589C104.631 79.318 104.001 80.2342 103.257 81.1504C102.57 81.9521 101.711 82.4674 100.737 81.8948C99.7637 81.3222 99.7064 80.2914 99.9927 79.318C101.367 74.6222 103.944 70.7854 108.468 68.6667C111.331 67.2923 113.851 68.2086 115.569 70.9C117 73.1333 117.516 75.653 117.516 78.2871C117.516 86.3614 117.459 94.4359 117.459 102.51C117.459 103.312 117.459 104.114 117.459 105.316Z" fill="black"/>
<path d="M47.7368 81.7177H70.3684L78.2631 119.612L56.6842 109.612L47.7368 81.7177Z" fill="white"/>
<path fill-rule="evenodd" clip-rule="evenodd" d="M77.3533 71.7534C77.656 64.7232 77.9587 57.693 76.6707 50.6628C71.2154 49.6548 70.5859 49.8098 70.1663 53.7644C69.7448 58.9972 69.5943 64.2302 69.4426 69.5032C69.4055 70.7934 69.3683 72.0861 69.3271 73.3817C69.1172 78.6544 69.1172 78.6544 61.7735 78.732C60.4136 78.732 59.042 78.7148 57.6665 78.6976C54.904 78.6631 52.1257 78.6284 49.3942 78.732C44.0438 78.9646 42.575 80.2052 43.0996 84.1596C43.729 88.5019 44.4634 92.8441 46.0371 97.0311C49.0794 105.328 53.4857 113.159 63.4521 118.509C65.5563 119.629 67.9982 120.362 70.4188 121.089C74.0323 122.173 77.5984 123.244 79.923 125.566C81.5084 127.149 82.9715 128.784 84.4335 130.419C86.5507 132.785 88.666 135.15 91.1482 137.351C91.3822 137.555 91.6144 137.757 91.8453 137.958C93.3739 139.289 94.8442 140.569 96.3938 141.848C98.3871 143.477 100.695 144.95 103.947 144.872C104.581 141.792 102.242 139.811 99.9031 137.829C99.5337 137.516 99.1643 137.203 98.8066 136.886C92.617 131.458 88.0009 125.41 85.7979 118.432C81.077 103.467 76.6707 88.5019 77.3002 72.9941C77.3177 72.5805 77.3355 72.167 77.3533 71.7534ZM54.4196 91.8832C53.9136 90.2624 53.3697 88.5203 52.7518 86.6408C56.6106 86.6408 59.3942 86.5445 62.2465 86.4457C64.5122 86.3673 66.8214 86.2874 69.7472 86.2531C70.7018 90.3023 71.6071 94.0115 72.5021 97.6788C73.8695 103.281 75.2128 108.786 76.6713 115.253C60.0194 109.821 58.3807 104.572 54.4196 91.8832Z" fill="#0E0C0C"/>
<path d="M179.842 81.7177H157.211L149.316 119.612L170.895 109.612L179.842 81.7177Z" fill="white"/>
<path fill-rule="evenodd" clip-rule="evenodd" d="M149.832 70.1285C149.539 62.9421 149.246 55.7556 150.49 48.5692C155.758 47.5388 156.365 47.6973 156.771 51.7396C157.177 57.0889 157.323 62.4381 157.469 67.8283C157.505 69.1472 157.541 70.4686 157.581 71.793C157.783 77.1828 157.783 77.1828 164.874 77.2621C166.187 77.2621 167.512 77.2446 168.839 77.227C171.506 77.1917 174.189 77.1563 176.826 77.2621C181.993 77.4999 183.41 78.7681 182.904 82.8104C182.296 87.2491 181.587 91.6878 180.067 95.968C177.131 104.449 172.876 112.454 163.253 117.924C161.221 119.068 158.864 119.817 156.526 120.56C153.038 121.669 149.595 122.763 147.35 125.136C145.819 126.755 144.407 128.427 142.995 130.097C140.951 132.517 138.909 134.934 136.512 137.184C136.286 137.392 136.062 137.599 135.839 137.804C134.363 139.165 132.943 140.473 131.447 141.781C129.523 143.446 127.294 144.951 124.154 144.872C123.542 141.724 125.801 139.698 128.059 137.673C128.416 137.353 128.772 137.033 129.118 136.709C135.094 131.16 139.551 124.978 141.678 117.844C146.236 102.547 150.491 87.2491 149.882 71.3967C149.865 70.974 149.848 70.5512 149.832 70.1285ZM171.975 90.7055C172.463 89.0488 172.988 87.2679 173.585 85.3467C169.859 85.3467 167.172 85.2483 164.418 85.1473C162.231 85.0671 160.001 84.9854 157.176 84.9504C156.254 89.0894 155.38 92.8812 154.516 96.6299C153.196 102.357 151.898 107.983 150.49 114.594C166.568 109.042 168.151 103.676 171.975 90.7055Z" fill="#0E0C0C"/>
<path d="M119.839 147.871C119.75 145.548 117.793 143.737 115.47 143.826C113.146 143.916 111.335 145.871 111.424 148.196L119.839 147.871ZM111.424 148.196L112.477 175.564L120.892 175.24L119.839 147.871L111.424 148.196Z" fill="black"/>
</g>
<defs>
<clipPath id="clip0_155_4656">
<rect width="140" height="148.421" fill="white" transform="translate(43 36.4546)"/>
</clipPath>
</defs>
</svg>
