<svg width="48" height="48" viewBox="0 0 48 48" fill="none" xmlns="http://www.w3.org/2000/svg">
<g clip-path="url(#clip0)">
<g style="mix-blend-mode:multiply">
<path d="M43.1838 20.3011C38.5676 17.5502 31.6628 19.714 27.044 16.9665C22.4172 14.2143 20.0712 6.55755 15.447 3.80188C9.2679 0.119599 1.38887 4.50843 1.29274 11.7115C1.29274 11.7115 2.17605 35.4718 12.8048 41.7885C23.4335 48.1052 42.9685 36.4378 42.9685 36.4378C49.2431 32.9638 49.3629 23.9833 43.1838 20.3011Z" fill="#FAE041"/>
</g>
<rect x="14" y="14" width="21.25" height="21.25" fill="white"/>
<path fill-rule="evenodd" clip-rule="evenodd" d="M34.125 12.75H13.875C13.25 12.75 12.75 13.25 12.75 13.875V34.125C12.75 34.625 13.25 35.25 13.875 35.25H34.125C34.625 35.25 35.25 34.625 35.25 34.125V13.875C35.25 13.25 34.625 12.75 34.125 12.75ZM20.25 17.75H17.75V20.25H20.25V17.75ZM30.25 17.75H22.75V20.25H30.25V17.75ZM30.25 22.75H22.75V25.25H30.25V22.75ZM22.75 27.75H30.25V30.25H22.75V27.75ZM17.75 22.75H20.25V25.25H17.75V22.75ZM20.25 27.75H17.75V30.25H20.25V27.75ZM15.25 32.75H32.75V15.25H15.25V32.75Z" fill="#202124"/>
</g>
<defs>
<clipPath id="clip0">
<rect width="48" height="48" fill="white"/>
</clipPath>
</defs>
</svg>
