<svg width="200" height="200" viewBox="0 0 200 200" fill="none" xmlns="http://www.w3.org/2000/svg">
<g style="mix-blend-mode:multiply">
<path d="M144.563 42.1277L67.1564 30.3033C59.6422 29.157 51.9746 31.2981 46.4655 36.0821L21.4709 57.7875C14.3565 63.966 12.0748 73.4495 15.7033 81.7636L47.7192 155.134C52.0531 165.065 63.6197 170.721 75.1247 168.532L159.587 152.458C169.647 150.544 177.274 143.053 178.594 133.787L183.8 97.2829C184.476 92.5373 183.429 87.7203 180.817 83.5655L161.534 52.8893C157.939 47.1698 151.71 43.2192 144.563 42.1277Z" fill="#20BEFF"/>
</g>
<ellipse cx="110" cy="149" rx="11" ry="10" fill="white"/>
<rect x="43" y="42" width="124" height="51" fill="white"/>
<path d="M109.261 164C102.375 163.978 98.2203 160.475 96.419 154.172C94.5014 147.44 99.4188 138.58 106.014 137.125C107.22 136.858 108.687 137.036 109.849 137.494C111.214 138.041 111.178 139.497 109.893 140.287C109.014 140.827 107.997 141.122 107.067 141.588C101.445 144.418 99.7456 151.689 103.813 156.175C104.757 157.216 106.392 158.015 107.786 158.155C111.629 158.539 114.672 156.729 116.924 153.633C118.725 151.15 118.514 148.475 116.524 145.962C114.476 143.376 114.287 141.588 115.928 140.302C117.584 139.001 119.8 139.711 121.587 142.12C124.579 146.154 124.862 151.719 122.022 156.086C118.754 161.125 114.062 163.786 109.261 164Z" fill="black"/>
<path fill-rule="evenodd" clip-rule="evenodd" d="M56.8195 74.3838C56.5728 74.9477 56.3122 75.5432 56.0001 76.1704C56.5815 76.1519 57.0667 76.1529 57.4937 76.1537C58.1308 76.1549 58.6386 76.1558 59.1433 76.0918C61.2965 75.8964 63.4397 75.7061 65.5774 75.5162C69.233 75.1916 72.8725 74.8685 76.5185 74.5235C78.5646 74.3571 79.5527 72.9227 79.7544 71.1948C79.7882 70.786 79.2315 70.2899 78.6841 69.8022C78.4527 69.596 78.223 69.3913 78.0402 69.1954C77.8416 68.976 77.6406 68.7646 77.4423 68.5562C77.1247 68.2223 76.8141 67.8957 76.5313 67.5549C75.7851 66.6498 75.0568 65.742 74.3295 64.8352C73.09 63.2902 71.8533 61.7485 70.5353 60.23C69.2232 58.7672 68.4949 58.9083 67.3186 60.3463C66.2692 61.654 65.2074 62.9506 64.1471 64.2454C62.2035 66.619 60.2647 68.9866 58.415 71.4058C57.7421 72.2747 57.3079 73.2673 56.8195 74.3838ZM70.2345 66.6438C71.0812 67.5871 71.9464 68.5509 72.8673 69.5674C68.5866 70.1801 64.6084 70.8199 60.3676 71.5073C60.5461 71.2784 60.7235 71.051 60.8998 70.825C63.0023 68.1294 64.9537 65.6274 66.983 63.0415C68.0892 64.2539 69.1466 65.4319 70.2345 66.6438Z" fill="black"/>
<path fill-rule="evenodd" clip-rule="evenodd" d="M94.9291 73.0461C94.6477 73.5935 94.3506 74.1717 94.0001 74.7782C94.5814 74.796 95.0656 74.8271 95.4917 74.8545C96.1276 74.8954 96.6343 74.928 97.142 74.8955C99.3032 74.8346 101.454 74.7781 103.599 74.7219C107.268 74.6256 110.921 74.5298 114.581 74.4126C116.634 74.3739 117.709 73.0038 118.018 71.2919C118.077 70.886 117.553 70.3562 117.037 69.8353C116.819 69.6151 116.602 69.3965 116.432 69.1895C116.247 68.9582 116.06 68.7348 115.875 68.5143C115.579 68.1614 115.289 67.8161 115.028 67.4583C114.34 66.5085 113.669 65.557 113 64.6068C111.859 62.9875 110.721 61.3718 109.5 59.7741C108.281 58.2324 107.546 58.3279 106.282 59.6899C105.153 60.9296 104.013 62.1575 102.874 63.3838C100.786 65.6317 98.7038 67.874 96.707 70.1732C95.9813 70.9986 95.4861 71.9622 94.9291 73.0461ZM108.8 66.1567C109.587 67.1509 110.39 68.1667 111.246 69.2386C106.935 69.5835 102.925 69.9743 98.6495 70.3962C98.8419 70.1789 99.0331 69.963 99.2231 69.7483C101.489 67.1889 103.593 64.8134 105.779 62.3589C106.808 63.6378 107.79 64.8794 108.8 66.1567Z" fill="black"/>
<path fill-rule="evenodd" clip-rule="evenodd" d="M134.891 73.1714C134.622 73.7249 134.338 74.3093 134 74.9233C134.582 74.9285 135.067 74.9491 135.493 74.9673C136.13 74.9944 136.637 75.016 137.144 74.9725C139.303 74.8647 141.452 74.7617 143.596 74.6589C147.262 74.4831 150.912 74.3082 154.569 74.1117C156.62 74.0286 157.665 72.6354 157.937 70.9172C157.987 70.5101 157.451 69.9918 156.924 69.4822C156.701 69.2668 156.48 69.053 156.306 68.8497C156.116 68.6224 155.924 68.4031 155.734 68.1868C155.43 67.8403 155.133 67.5014 154.865 67.1493C154.156 66.2147 153.465 65.2779 152.775 64.3424C151.599 62.7483 150.426 61.1576 149.171 59.5868C147.92 58.0719 147.186 58.1832 145.952 59.5723C144.851 60.8362 143.737 62.0886 142.625 63.3392C140.587 65.6318 138.553 67.9188 136.607 70.2607C135.899 71.1017 135.425 72.0757 134.891 73.1714ZM148.61 65.983C149.418 66.9599 150.243 67.9581 151.122 69.0112C146.82 69.4495 142.819 69.927 138.553 70.4416C138.741 70.2201 138.928 70.0001 139.113 69.7814C141.323 67.1735 143.375 64.7529 145.508 62.2516C146.564 63.5079 147.572 64.7279 148.61 65.983Z" fill="black"/>
<path d="M86.2639 123.341C86.391 125.737 87.3878 127.767 87.9626 129.943C88.0913 130.456 88.3315 130.945 88.3607 131.508C88.4379 132.168 87.8976 132.828 86.9644 133.316C85.7208 133.927 84.7052 134.122 84.0053 133.829C83.4649 133.609 83.211 133.217 83.0566 132.777C82.4733 131.212 81.9019 129.672 81.3186 128.107C81.0441 127.422 80.8313 126.738 80.5568 126.053C79.6662 122.605 78.2285 119.426 76.6792 116.272C75.473 112.433 74.3663 108.545 73.0109 104.78C70.7032 98.4466 68.694 91.967 66.9456 85.3896C66.8169 84.8761 66.7259 84.3138 66.7585 83.7514C66.8047 83.0913 67.6779 82.4804 68.8186 82.163C69.9096 81.87 70.7244 81.8947 71.1636 82.286C71.7246 82.7996 72.2101 83.411 72.4726 84.0712C73.2601 86.0519 73.8984 88.1058 74.5864 90.1353C77.0897 97.4953 79.581 104.831 82.1341 112.166C82.2885 112.607 82.2439 113.144 82.8958 113.34C83.4759 116.91 85.1246 120.016 86.2639 123.341Z" fill="black"/>
<path d="M126.922 122.847C126.701 125.216 125.628 127.182 124.969 129.313C124.821 129.816 124.562 130.289 124.511 130.845C124.408 131.496 124.921 132.176 125.832 132.704C127.048 133.369 128.053 133.61 128.762 133.352C129.31 133.159 129.578 132.783 129.749 132.354C130.392 130.829 131.022 129.329 131.665 127.805C131.966 127.139 132.205 126.47 132.505 125.804C133.529 122.428 135.087 119.343 136.755 116.289C138.108 112.539 139.364 108.737 140.863 105.067C143.412 98.8961 145.669 92.5661 147.67 86.1269C147.819 85.6238 147.932 85.0705 147.921 84.5115C147.901 83.8548 147.054 83.208 145.929 82.8396C144.853 82.4977 144.04 82.4839 143.587 82.8512C143.007 83.3341 142.499 83.9174 142.211 84.5597C141.349 86.4864 140.632 88.4929 139.866 90.4728C137.082 97.6524 134.31 104.808 131.477 111.961C131.306 112.391 131.329 112.926 130.672 113.089C129.953 116.602 128.188 119.603 126.922 122.847Z" fill="black"/>
<path d="M111.466 122.519C110.903 124.654 111.276 126.666 111.203 128.71C111.18 129.191 111.269 129.675 111.137 130.176C111.022 130.774 110.317 131.231 109.286 131.447C107.924 131.699 106.898 131.638 106.314 131.22C105.86 130.903 105.729 130.501 105.708 130.078C105.597 128.57 105.492 127.085 105.381 125.576C105.315 124.911 105.307 124.261 105.24 123.596C105.374 120.362 104.909 117.239 104.33 114.112C104.274 110.462 104.327 106.792 104.108 103.172C103.712 97.0773 103.643 90.9223 103.851 84.7411C103.875 84.2604 103.949 83.7453 104.14 83.2585C104.373 82.6889 105.382 82.3517 106.562 82.3338C107.688 82.3259 108.459 82.5341 108.767 82.9785C109.156 83.5584 109.445 84.2068 109.507 84.8472C109.694 86.7682 109.717 88.7196 109.795 90.6608C110.084 97.7026 110.369 104.72 110.713 111.752C110.734 112.174 110.538 112.637 111.105 112.958C110.64 116.228 111.328 119.335 111.466 122.519Z" fill="black"/>
<path d="M46.123 86.9018C45.3877 88.9418 45.5946 90.9325 45.3554 92.921C45.2925 93.3881 45.3424 93.8678 45.1692 94.3464C45.0061 94.9209 44.2667 95.3129 43.2218 95.4457C41.8437 95.5889 40.8265 95.4522 40.278 95.0001C39.8523 94.6565 39.7548 94.2545 39.7676 93.841C39.7809 92.3608 39.7967 90.9046 39.8101 89.4245C39.7979 88.7712 39.8434 88.1361 39.8312 87.4829C40.2288 84.3385 40.02 81.2571 39.6985 78.1632C39.941 74.5986 40.2938 71.0225 40.3709 67.4751C40.4744 61.5007 40.9087 55.4918 41.6211 49.4784C41.684 49.0112 41.7995 48.5144 42.0303 48.054C42.3087 47.516 43.3411 47.2633 44.5187 47.3348C45.6411 47.4121 46.3927 47.6734 46.663 48.1302C47.0034 48.7251 47.2386 49.3795 47.2483 50.0088C47.2773 51.8967 47.1409 53.8018 47.0597 55.7011C46.7728 62.5916 46.4834 69.4581 46.2516 76.3429C46.2388 76.7563 46.0055 77.1927 46.544 77.5488C45.8132 80.7036 46.2449 83.786 46.123 86.9018Z" fill="black"/>
<path d="M170.117 83.3734C169.487 85.6118 169.796 87.7681 169.66 89.9356C169.621 90.445 169.696 90.9646 169.547 91.4898C169.414 92.1189 168.694 92.567 167.656 92.7427C166.284 92.9398 165.259 92.8219 164.687 92.3473C164.244 91.9868 164.125 91.553 164.117 91.1034C164.053 89.495 163.994 87.9125 163.931 86.3041C163.885 85.5947 163.898 84.9034 163.852 84.1941C164.087 80.7661 163.719 77.4249 163.237 74.0734C163.296 70.1936 163.464 66.298 163.357 62.4418C163.152 55.9481 163.276 49.4072 163.678 42.8528C163.717 42.3434 163.807 41.8002 164.014 41.2931C164.265 40.7002 165.284 40.3946 166.466 40.4368C167.593 40.487 168.359 40.7483 168.653 41.2363C169.024 41.8724 169.293 42.5762 169.336 43.2596C169.462 45.3097 169.424 47.3835 169.441 49.4494C169.51 56.9437 169.576 64.412 169.7 71.8985C169.708 72.348 169.497 72.8291 170.055 73.1998C169.486 76.6491 170.078 79.9848 170.117 83.3734Z" fill="black"/>
<path d="M63.9904 46.0948C58.7464 45.4426 53.4265 45.7382 48.2102 45.584C46.9862 45.541 45.7043 45.6123 44.4742 45.4586C42.9877 45.3192 42.1114 44.5908 41.9889 43.5429C41.912 42.1595 42.4976 41.1278 43.8159 40.555C44.8199 40.1107 45.9065 39.9948 46.9992 39.9896C50.9182 39.9383 54.7732 39.8906 58.6922 39.8394C60.4259 39.7985 62.0985 39.8166 63.8322 39.7758C72.0764 40.0393 80.2868 39.694 88.5551 39.2346C97.9469 39.3233 107.345 39.5226 116.727 39.4453C132.535 39.2885 148.361 39.4637 164.138 39.9192C165.362 39.9622 166.653 40.057 167.822 40.2695C169.187 40.5268 169.63 41.5568 169.181 42.7474C168.73 43.8826 167.873 44.6518 166.603 44.9444C164.952 45.3137 163.167 45.5794 161.497 45.6167C156.488 45.7285 151.47 45.6743 146.456 45.6754C128.261 45.6873 110.131 45.6957 91.9397 45.7629C90.847 45.7681 89.742 45.552 88.68 46.1106C80.4815 45.5115 72.2193 46.0816 63.9904 46.0948Z" fill="black"/>
<path d="M62.3298 96.1465C56.9858 95.517 51.5665 95.8356 46.2517 95.704C45.0047 95.6663 43.6988 95.7431 42.4452 95.5948C40.9305 95.4618 40.0361 94.7371 39.909 93.6897C39.8277 92.3066 40.422 91.2723 41.7639 90.6937C42.7858 90.245 43.8925 90.1244 45.0058 90.1145C48.9984 90.0462 52.9257 89.9819 56.9184 89.9136C58.6845 89.8653 60.3886 89.8761 62.1548 89.8278C70.5546 90.0556 78.9186 89.6748 87.3414 89.1795C96.9099 89.2275 106.485 89.3862 116.044 89.2683C132.148 89.043 148.272 89.1497 164.347 89.5369C165.594 89.5746 166.909 89.6638 168.101 89.8713C169.492 90.1227 169.945 91.1508 169.491 92.3434C169.034 93.4807 168.162 94.2536 166.869 94.5517C165.188 94.9282 163.37 95.2017 161.669 95.2462C156.566 95.3797 151.454 95.3472 146.345 95.37C127.808 95.4607 109.337 95.5476 90.8038 95.6936C89.6906 95.7035 88.5643 95.4921 87.4836 96.0554C79.1296 95.4918 70.7133 96.0977 62.3298 96.1465Z" fill="black"/>
<path d="M59.9146 71.6396L66.9146 63.1396L72.9146 69.6396L59.9146 71.6396Z" fill="black" stroke="black"/>
<path d="M99 70.5L106 62L112 68.5L99 70.5Z" fill="black" stroke="black"/>
<path d="M139 70.5L146 62L152 68.5L139 70.5Z" fill="black" stroke="black"/>
<path d="M139 70.5L146 62L152 68.5L139 70.5Z" fill="black" stroke="black"/>
</svg>
