<!DOCTYPE svg PUBLIC "-//W3C//DTD SVG 1.1//EN" "http://www.w3.org/Graphics/SVG/1.1/DTD/svg11.dtd">
<!-- Uploaded to: SVG Repo, www.svgrepo.com, Transformed by: SVG Repo Mixer Tools -->
<svg fill="#f73426" width="800px" height="800px" viewBox="0 0 24 24" role="img" xmlns="http://www.w3.org/2000/svg" stroke="#f73426">
<g id="SVGRepo_bgCarrier" stroke-width="0"/>
<g id="SVGRepo_tracerCarrier" stroke-linecap="round" stroke-linejoin="round"/>
<g id="SVGRepo_iconCarrier">
<title>PyTorch icon</title>
<path d="M12.005.04l-7.03 7.03a9.832 9.832 0 0 0 0 13.975 9.833 9.833 0 0 0 13.976 0c3.97-3.887 3.972-10.171.084-13.976l-1.738 1.737c2.895 2.895 2.895 7.608 0 10.503-2.894 2.894-7.608 2.894-10.503 0C3.9 16.414 3.9 11.7 6.794 8.806l4.632-4.631.58-.663zm3.556 3.886a1.323 1.323 0 0 0-1.323 1.323 1.323 1.323 0 0 0 1.323 1.323 1.323 1.323 0 0 0 1.323-1.323 1.323 1.323 0 0 0-1.323-1.323z"/>
</g>
</svg>