<svg width="200" height="200" viewBox="0 0 200 200" fill="none" xmlns="http://www.w3.org/2000/svg">
<g style="mix-blend-mode:multiply">
<path d="M58.4568 17H106.099C120.256 17 132.271 27.3468 134.321 41.3053L148.732 139.432C151.799 160.312 131.766 177.123 111.639 170.559L81.9683 160.883C80.7153 160.474 79.435 160.153 78.1369 159.921L33.5089 151.939C9.65777 147.674 1.67181 117.589 20.2866 102.132H20.2879C26.9278 96.6181 30.7003 88.4013 30.5456 79.7901L29.939 45.9281C29.6542 30.0361 42.5054 17 58.4568 17Z" fill="#FAE041"/>
</g>
<path fill-rule="evenodd" clip-rule="evenodd" d="M71.4655 59.9304V170.93H109.062V121.987L123.658 125.159L150.196 170.93H182.042L186.465 163.679L163.465 125.159L150.196 116.548L167.004 107.032L178.504 84.8255L170.1 62.1664L150.196 49.9304H81.4655C75.9427 49.9304 71.4655 54.4076 71.4655 59.9304ZM107.482 87.4974L107.581 89.0568C107.916 94.3224 112.285 98.4216 117.561 98.4216H128.87C132.481 98.4216 135.812 96.4747 137.584 93.328L138.098 92.4145C140.069 88.9136 139.754 84.573 137.298 81.3938L136.217 79.9949C134.174 77.3505 130.944 75.9015 127.611 76.1331L116.769 76.8862C111.282 77.2674 107.133 82.0082 107.482 87.4974Z" fill="white"/>
<path d="M145.519 119.004L146.464 115.117C144.445 114.626 142.385 115.763 141.726 117.734C141.066 119.705 142.026 121.853 143.935 122.676L145.519 119.004ZM155.444 123.285L153.859 126.958L155.444 123.285ZM108.465 129.744H113.726V121.744H108.465V129.744ZM121.979 133.837C126.007 139.669 129.519 145.894 133.248 152.74C136.957 159.547 140.886 166.979 145.655 174.978L152.526 170.882C147.861 163.055 144.038 155.823 140.273 148.913C136.53 142.042 132.848 135.497 128.562 129.291L121.979 133.837ZM186.351 158.3L167.836 128.869L161.064 133.129L179.58 162.56L186.351 158.3ZM157.028 119.612L147.104 115.331L143.935 122.676L153.859 126.958L157.028 119.612ZM144.574 122.89C146.188 123.283 147.948 123.177 149.552 122.894C151.218 122.601 153.026 122.06 154.875 121.327C158.574 119.861 162.699 117.522 166.557 114.42C174.213 108.262 181.396 98.5883 181.215 86.14L173.216 86.2561C173.348 95.3494 168.102 102.91 161.543 108.186C158.293 110.8 154.862 112.727 151.928 113.89C150.46 114.472 149.182 114.836 148.164 115.016C147.083 115.206 146.56 115.14 146.464 115.117L144.574 122.89ZM145.71 56.9386C147.341 56.8607 149.903 57.3285 152.985 58.6086C156.006 59.8635 159.278 61.7978 162.294 64.365C168.331 69.5029 173.08 76.921 173.216 86.2561L181.215 86.14C181.038 73.9335 174.788 64.4927 167.479 58.2727C163.823 55.161 159.836 52.7916 156.054 51.2206C152.332 49.6747 148.546 48.794 145.328 48.9477L145.71 56.9386ZM167.836 128.869C165.252 124.762 161.484 121.535 157.028 119.612L153.859 126.958C156.83 128.239 159.342 130.391 161.064 133.129L167.836 128.869ZM113.726 129.744C117.132 129.744 120.206 131.269 121.979 133.837L128.562 129.291C125.136 124.331 119.468 121.744 113.726 121.744V129.744Z" fill="black"/>
<path d="M68.1862 82.94C68.8808 78.2352 68.4965 73.5033 68.6248 68.8445C68.6627 67.7511 68.5701 66.6109 68.7338 65.5072C68.879 64.1755 69.6997 63.3628 70.8905 63.2087C72.4635 63.081 73.6424 63.5591 74.3059 64.7104C74.8204 65.5868 74.9621 66.5508 74.9779 67.5251C75.0715 71.0181 75.1606 74.4541 75.2543 77.9471C75.3164 79.4915 75.3109 80.9841 75.373 82.5285C75.1477 89.8923 75.6145 97.1999 76.2118 104.554C76.1957 112.934 76.0537 121.324 76.2264 129.689C76.5474 143.78 76.491 157.902 76.1153 171.992C76.0774 173.085 75.9813 174.241 75.75 175.293C75.4697 176.521 74.302 176.96 72.9436 176.611C71.6482 176.257 70.7654 175.525 70.4211 174.406C69.9861 172.949 69.6677 171.368 69.6103 169.881C69.4379 165.418 69.4543 160.941 69.4077 156.468C69.2299 140.242 69.0568 124.073 68.8161 107.852C68.8003 106.878 69.0362 105.883 68.3912 104.96C68.9986 97.6225 68.2755 90.2783 68.1862 82.94Z" fill="black"/>
<path d="M136.85 48.4968C140.25 49.3556 143.563 48.9226 146.874 49.103C147.652 49.1546 148.45 49.0503 149.248 49.2526C150.205 49.4342 150.862 50.4216 151.089 51.8485C151.336 53.7329 151.114 55.1419 150.365 55.9298C149.795 56.5409 149.126 56.705 148.438 56.7183C145.974 56.8104 143.55 56.8973 141.086 56.9895C139.998 57.0549 138.941 57.0398 137.854 57.1053C132.617 56.7932 127.489 57.3103 122.341 57.9833C116.405 57.9159 110.451 57.6977 104.545 57.8564C94.5991 58.1599 84.5941 58.0112 74.5798 57.4803C73.8018 57.4287 72.974 57.3069 72.2064 57.0239C71.3092 56.6812 70.8825 55.2804 70.9949 53.6557C71.1171 52.1065 71.5477 51.0536 72.3065 50.6477C73.2949 50.1352 74.3828 49.763 75.4303 49.7027C78.5728 49.5219 81.7448 49.5672 84.9071 49.5372C96.3788 49.4175 107.811 49.303 119.273 49.108C119.961 49.0946 120.689 49.3828 121.278 48.6157C126.534 49.3853 131.663 48.5616 136.85 48.4968Z" fill="black"/>
<path d="M135.086 75.1105L137.447 71.8819L135.086 75.1105ZM136.057 97.717L133.508 94.6345L136.057 97.717ZM108.465 101.93H135.45V93.9304H108.465V101.93ZM138.607 100.8C139.372 100.166 141.45 98.3752 143.371 96.0122C145.157 93.8141 147.465 90.3384 147.465 86.4304H139.465C139.465 87.4112 138.743 89.0217 137.163 90.9662C135.716 92.7458 134.09 94.1537 133.508 94.6345L138.607 100.8ZM147.465 86.4304C147.465 84.2767 146.718 82.335 145.85 80.7777C144.972 79.2 143.839 77.7798 142.751 76.598C140.578 74.2382 138.246 72.4661 137.447 71.8819L132.725 78.3391C133.344 78.7925 135.202 80.2106 136.865 82.0165C137.695 82.9176 138.39 83.824 138.861 84.6698C139.343 85.5359 139.465 86.1144 139.465 86.4304H147.465ZM134.522 70.9304H114.965V78.9304H134.522V70.9304ZM137.447 71.8819C136.552 71.2274 135.518 70.9304 134.522 70.9304V78.9304C133.934 78.9304 133.29 78.7526 132.725 78.3391L137.447 71.8819ZM135.45 101.93C136.537 101.93 137.667 101.576 138.607 100.8L133.508 94.6345C134.103 94.1425 134.809 93.9304 135.45 93.9304V101.93Z" fill="black"/>
<path d="M109.515 72.8358C109.243 72.972 107.495 73.9228 107.516 75.8755C107.528 77.0075 108.513 77.8671 109.427 78.4219C110.394 79.0084 111.544 79.1508 112.674 79.1384L117.159 79.0891L119.657 79.0006L119.314 71.0221C119.314 71.0221 118.547 71.0427 117.561 71.074C116.738 71.1002 115.914 70.998 115.091 70.9795C114.858 70.9743 114.636 70.9848 114.466 71.0221C112.58 71.4377 109.927 72.6451 109.587 72.8018L109.584 72.8028C109.561 72.8138 109.538 72.824 109.515 72.8358Z" fill="black"/>
<path d="M77.4709 176.971C75.6171 176.327 73.923 176.673 72.1754 176.549C71.764 176.512 71.3558 176.596 70.9208 176.444C70.4041 176.309 69.9736 175.555 69.729 174.462C69.4339 173.018 69.4256 171.936 69.748 171.329C69.992 170.858 70.3272 170.729 70.6859 170.716C71.9664 170.635 73.2264 170.558 74.5068 170.477C75.0697 170.422 75.624 170.429 76.1869 170.374C78.9528 170.591 81.5889 170.173 84.2219 169.635C87.3316 169.661 90.4649 169.803 93.5392 169.656C98.7136 169.381 103.959 169.453 109.243 169.817C109.654 169.853 110.098 169.943 110.524 170.157C111.023 170.416 111.37 171.488 111.455 172.734C111.527 173.923 111.395 174.732 111.034 175.046C110.562 175.443 110.026 175.733 109.484 175.784C107.856 175.936 106.194 175.915 104.543 175.952C98.554 176.092 92.5858 176.229 86.6091 176.427C86.2503 176.44 85.8443 176.222 85.6035 176.813C82.7872 176.246 80.1779 176.899 77.4709 176.971Z" fill="black"/>
<path d="M152.569 176.843C150.807 176.203 149.22 176.55 147.571 176.428C147.183 176.393 146.8 176.476 146.387 176.326C145.897 176.191 145.472 175.44 145.213 174.35C144.898 172.91 144.862 171.832 145.15 171.226C145.368 170.756 145.68 170.627 146.018 170.613C147.222 170.531 148.407 170.453 149.61 170.37C150.139 170.315 150.661 170.321 151.19 170.266C153.801 170.479 156.273 170.059 158.739 169.519C161.668 169.542 164.623 169.68 167.515 169.529C172.381 169.249 177.323 169.314 182.309 169.671C182.697 169.707 183.117 169.796 183.524 170.008C184.001 170.266 184.355 171.335 184.467 172.578C184.566 173.763 184.462 174.57 184.13 174.884C183.696 175.281 183.199 175.571 182.689 175.622C181.161 175.775 179.594 175.756 178.04 175.794C172.403 175.942 166.786 176.085 161.162 176.29C160.824 176.304 160.436 176.087 160.225 176.676C157.558 176.113 155.117 176.768 152.569 176.843Z" fill="black"/>
<path d="M110.292 97.4469C109.676 98.591 109.996 99.3759 109.871 100.32C109.835 100.544 109.912 100.733 109.767 101.002C109.637 101.308 108.923 101.743 107.89 102.175C106.525 102.73 105.784 102.688 105.211 102.689C104.768 102.694 104.719 102.413 104.708 102.23C104.637 101.587 104.218 101.443 104.147 100.799C104.097 100.521 104.106 100.231 104.057 99.9535C104.274 98.4538 103.89 97.1988 103.393 95.9787C103.431 94.3533 103.578 92.6835 103.452 91.1248C103.214 88.5091 103.304 85.7601 103.67 82.9093C103.706 82.6851 103.793 82.4293 103.997 82.1478C104.243 81.8158 105.258 81.3366 106.435 80.9453C107.557 80.5762 108.321 80.4195 108.616 80.5197C108.99 80.6545 109.261 80.8526 109.307 81.1207C109.443 81.9251 109.416 82.7962 109.444 83.6451C109.551 86.7218 109.655 89.7891 109.817 92.8436C109.828 93.0266 109.896 92.6368 110.395 93.1348C109.847 94.7584 110.236 96.0584 110.292 97.4469Z" fill="black"/>
<path d="M104.798 131.48C105.593 129.16 105.256 126.959 105.456 124.731C105.512 124.207 105.43 123.676 105.618 123.132C105.789 122.482 106.662 121.995 107.914 121.777C109.566 121.524 110.797 121.607 111.477 122.072C112.005 122.426 112.14 122.867 112.143 123.328C112.192 124.975 112.237 126.597 112.286 128.245C112.33 128.971 112.303 129.68 112.346 130.406C112.006 133.932 112.394 137.346 112.917 140.767C112.782 144.75 112.515 148.753 112.579 152.705C112.718 159.36 112.46 166.075 111.867 172.814C111.812 173.338 111.695 173.899 111.438 174.427C111.126 175.044 109.894 175.396 108.474 175.396C107.119 175.386 106.203 175.146 105.857 174.657C105.421 174.018 105.109 173.306 105.07 172.606C104.952 170.507 105.032 168.378 105.046 166.26C105.087 158.573 105.133 150.914 105.109 143.237C105.106 142.776 105.367 142.275 104.703 141.915C105.444 138.356 104.788 134.955 104.798 131.48Z" fill="black"/>
<path d="M183.962 165.629C184.618 165.809 185.672 165.909 186.771 165.231C187.553 164.748 187.908 163.901 188.058 163.097C188.305 161.78 187.742 160.487 187.037 159.346L185.401 156.698L184.259 154.965L177.579 159.339C177.579 159.339 177.971 159.948 178.463 160.7C178.776 161.179 179.046 161.697 179.457 162.096C180.336 162.951 181.887 164.231 182.72 164.908C183.096 165.213 183.495 165.5 183.962 165.629Z" fill="black"/>
</svg>
