<svg width="200" height="200" viewBox="0 0 200 200" fill="none" xmlns="http://www.w3.org/2000/svg">
<g clip-path="url(#clip0_155_4610)">
<path d="M183.947 160.336L181.355 167.444C179.276 173.148 175.719 178.198 171.048 182.076C164.48 187.531 156.112 190.339 147.583 189.95L144.69 189.818C139.951 189.602 135.284 188.581 130.889 186.797L75.5671 164.352C69.0507 161.708 62.8313 158.385 57.0123 154.436L38.1458 141.634C24.6093 132.448 15.1503 118.383 11.7485 102.382L11.5611 101.5C10.564 96.8103 10.1699 92.012 10.3882 87.2221C11.0113 73.552 16.5892 60.5762 26.0802 50.7182L51.0255 24.8085C57.1464 18.451 64.9287 13.9389 73.4872 11.7855C92.0002 7.12758 111.495 14.0923 122.866 29.4265L174.857 99.5421C183.206 110.801 187.714 124.447 187.714 138.464L187.714 139.008C187.714 146.283 186.439 153.501 183.947 160.336Z" fill="#FAE041"/>
<path d="M66.79 40.357L18.8999 67.9859C13.1975 71.2758 9.6842 77.3587 9.6842 83.942V104.273C9.6842 105.672 11.1835 106.561 12.4111 105.888L45.6415 87.6907C46.8691 87.0184 48.3684 87.9067 48.3684 89.3064V163.908C48.3684 164.553 48.7056 165.151 49.2574 165.485L67.9337 176.777C68.0911 176.872 68.2618 176.944 68.4401 176.988L70.0132 177.382L69.5526 110.375V41.9526C69.5526 40.5348 68.0181 39.6485 66.79 40.357Z" fill="white"/>
<path d="M72.8374 174.095C71.2766 172.789 68.9531 172.996 67.6477 174.558C66.3422 176.118 66.5493 178.442 68.11 179.747L72.8374 174.095ZM65.8684 158.039C65.8684 160.074 67.5179 161.724 69.5526 161.724C71.5873 161.724 73.2368 160.074 73.2368 158.039H65.8684ZM69.5526 176.921L68.5107 180.455L69.5526 176.921ZM45.6416 87.6907L47.4111 90.9221L45.6416 87.6907ZM49.1018 165.487L51.2686 162.507L49.1018 165.487ZM66.79 40.357L64.9489 37.1658L66.79 40.357ZM12.4111 105.888L10.6415 102.657L12.4111 105.888ZM20.7409 71.1771L68.631 43.5482L64.9489 37.1658L17.0588 64.7947L20.7409 71.1771ZM52.0526 164.028V89.3064H44.6842V164.028H52.0526ZM43.8719 84.4593L10.6415 102.657L14.1807 109.12L47.4111 90.9221L43.8719 84.4593ZM13.3684 104.273V83.942H6V104.273H13.3684ZM65.8684 41.9526V110.375H73.2368V41.9526H65.8684ZM65.8684 110.375V158.039H73.2368V110.375H65.8684ZM70.4737 176.921C68.11 179.747 68.1088 179.746 68.1075 179.745C68.107 179.745 68.1058 179.743 68.105 179.743C68.1034 179.741 68.1016 179.74 68.0999 179.739C68.0966 179.736 68.0932 179.733 68.0898 179.73C68.083 179.724 68.0761 179.718 68.069 179.712C68.055 179.7 68.0404 179.687 68.0251 179.674C67.9951 179.647 67.9601 179.615 67.9218 179.577C67.8572 179.515 67.7306 179.387 67.5915 179.203C67.4937 179.074 67.1616 178.627 66.9869 177.94C66.8905 177.561 66.8126 176.994 66.9472 176.328C67.0904 175.618 67.4401 174.974 67.942 174.473C68.8328 173.582 69.8533 173.465 70.0946 173.44C70.4506 173.404 70.7073 173.437 70.7661 173.444C70.9022 173.462 70.886 173.474 70.5945 173.387L68.5107 180.455C68.9305 180.579 69.385 180.696 69.8272 180.753C70.039 180.779 70.4076 180.815 70.8438 180.77C71.1653 180.738 72.2341 180.601 73.1512 179.684C74.3427 178.493 74.3508 176.999 74.1278 176.123C73.9443 175.402 73.5907 174.92 73.4681 174.758C73.3042 174.541 73.1496 174.384 73.063 174.299C73.0138 174.251 72.9695 174.21 72.9329 174.177C72.9143 174.161 72.897 174.146 72.8811 174.132C72.8732 174.126 72.8656 174.119 72.8583 174.113C72.8546 174.11 72.8511 174.106 72.8476 174.104C72.8459 174.102 72.8441 174.101 72.8424 174.099C72.8415 174.099 72.8403 174.097 72.8399 174.097C72.8387 174.096 72.8374 174.095 70.4737 176.921ZM70.5945 173.387C67.3665 172.436 63.2913 170.297 59.5091 167.999C55.7929 165.741 52.6245 163.494 51.2686 162.507L46.935 168.467C48.3793 169.518 51.7279 171.893 55.6829 174.296C59.5719 176.659 64.3219 179.22 68.5107 180.455L70.5945 173.387ZM52.0526 89.3064C52.0526 85.1075 47.5548 82.4425 43.8719 84.4593L47.4111 90.9221C46.1835 91.5944 44.6842 90.706 44.6842 89.3064H52.0526ZM44.6842 164.028C44.6842 165.742 45.4793 167.408 46.935 168.467L51.2686 162.507C51.7881 162.885 52.0526 163.471 52.0526 164.028H44.6842ZM68.631 43.5482C67.403 44.2567 65.8684 43.3704 65.8684 41.9526H73.2368C73.2368 37.6992 68.6331 35.0403 64.9489 37.1658L68.631 43.5482ZM10.6415 102.657C11.8691 101.985 13.3684 102.873 13.3684 104.273H6C6 108.471 10.4979 111.136 14.1807 109.12L10.6415 102.657ZM17.0588 64.7947C10.2159 68.7425 6 76.042 6 83.942H13.3684C13.3684 78.6753 16.179 73.809 20.7409 71.1771L17.0588 64.7947Z" fill="black"/>
<path d="M83.3802 40.3929L130.14 67.8551C135.446 70.9711 138.845 76.5305 139.202 82.6731L140.275 101.194C140.36 102.66 138.779 103.631 137.509 102.892L106.861 85.0466C105.633 84.3315 104.092 85.2174 104.092 86.6385V98.4544C104.092 99.131 104.463 99.7532 105.058 100.075L120.165 108.241C120.76 108.563 121.132 109.185 121.132 109.861V133.329C121.132 134.719 119.652 135.608 118.425 134.956L105.639 128.162C104.412 127.51 102.932 128.399 102.932 129.789V165.763C102.932 166.401 102.602 166.994 102.059 167.329L83.4166 178.865C82.1894 179.625 80.6052 178.742 80.6052 177.299V109.684V47.5132V41.9813C80.6052 40.5572 82.1522 39.6717 83.3802 40.3929Z" fill="white"/>
<path d="M78.7632 65.4737C78.7632 63.439 80.4127 61.7895 82.4474 61.7895C84.4821 61.7895 86.1316 63.439 86.1316 65.4737H78.7632ZM86.1316 47.5132C86.1316 49.5478 84.4821 51.1974 82.4474 51.1974C80.4127 51.1974 78.7632 49.5478 78.7632 47.5132H86.1316ZM107.481 128.162L109.209 124.909L107.481 128.162ZM120.267 134.956L118.538 138.21L120.267 134.956ZM122.008 108.241L120.256 111.482L122.008 108.241ZM142.117 101.194L145.796 100.981L142.117 101.194ZM106.9 100.075L108.652 96.8339L106.9 100.075ZM103.901 167.329L101.963 164.197L103.901 167.329ZM85.2588 178.865L87.1975 181.999L85.2588 178.865ZM131.983 67.8551L133.848 64.6783L131.983 67.8551ZM130.116 71.0319L83.3567 43.5697L87.0881 37.2161L133.848 64.6783L130.116 71.0319ZM83.3202 175.733L101.963 164.197L105.84 170.463L87.1975 181.999L83.3202 175.733ZM138.439 101.407L137.365 82.8864L144.722 82.4599L145.796 100.981L138.439 101.407ZM120.256 111.482L105.149 103.316L108.652 96.8339L123.759 105L120.256 111.482ZM119.29 133.329V109.861H126.658V133.329H119.29ZM101.09 165.763V129.789H108.459V165.763H101.09ZM109.209 124.909L121.996 131.703L118.538 138.21L105.752 131.416L109.209 124.909ZM102.25 98.4544V86.6385H109.618V98.4544H102.25ZM110.557 81.8627L141.205 99.7085L137.498 106.076L106.85 88.2304L110.557 81.8627ZM86.1316 109.684V177.299H78.7632V109.684H86.1316ZM86.1316 65.4737V109.684H78.7632V65.4737H86.1316ZM86.1316 41.9813V47.5132H78.7632V41.9813H86.1316ZM102.25 86.6385C102.25 82.3753 106.873 79.7176 110.557 81.8627L106.85 88.2304C108.078 88.9454 109.618 88.0595 109.618 86.6385H102.25ZM101.09 129.789C101.09 125.62 105.529 122.953 109.209 124.909L105.752 131.416C106.979 132.068 108.459 131.178 108.459 129.789H101.09ZM126.658 133.329C126.658 137.498 122.219 140.166 118.538 138.21L121.996 131.703C120.769 131.051 119.29 131.941 119.29 133.329H126.658ZM123.759 105C125.545 105.965 126.658 107.832 126.658 109.861H119.29C119.29 110.538 119.661 111.16 120.256 111.482L123.759 105ZM145.796 100.981C146.051 105.38 141.305 108.294 137.498 106.076L141.205 99.7085C139.936 98.9693 138.354 99.9405 138.439 101.407L145.796 100.981ZM105.149 103.316C103.363 102.351 102.25 100.484 102.25 98.4544H109.618C109.618 97.7778 109.247 97.1556 108.652 96.8339L105.149 103.316ZM101.963 164.197C101.42 164.532 101.09 165.125 101.09 165.763H108.459C108.459 167.677 107.468 169.455 105.84 170.463L101.963 164.197ZM87.1975 181.999C83.5158 184.277 78.7632 181.629 78.7632 177.299H86.1316C86.1316 175.856 84.5474 174.973 83.3202 175.733L87.1975 181.999ZM83.3567 43.5697C84.5846 44.291 86.1316 43.4055 86.1316 41.9813H78.7632C78.7632 37.7089 83.4041 35.0524 87.0881 37.2161L83.3567 43.5697ZM133.848 64.6783C140.215 68.4175 144.294 75.0886 144.722 82.4599L137.365 82.8864C137.081 77.9722 134.361 73.5248 130.116 71.0319L133.848 64.6783Z" fill="black"/>
<path d="M67.5168 165.389C67.9129 165.961 68.6823 166.752 69.9191 166.787C70.9598 166.816 71.7846 165.938 72.3266 165.116C72.8981 164.248 73.0694 163.198 73.0983 162.159L73.2129 158.026L73.2207 155.724L65.8845 155.755C65.8845 155.755 65.8679 157.131 65.8637 158.513C65.8622 158.973 66.0641 159.633 66.1505 160.115C66.3864 161.43 66.8011 163.21 67.0273 164.154C67.1315 164.589 67.2621 165.021 67.5168 165.389Z" fill="black"/>
<path d="M83.5167 55.9134C83.0836 55.8993 80.4364 54.6587 79.9472 53.2958C79.6629 52.5037 79.027 50.0695 78.7843 48.4137C78.7785 47.0327 78.7767 46.5722 78.7767 46.5722L86.1388 46.125L86.3107 50.2662C86.3634 51.5368 86.0125 53.5053 86.0125 53.5053C86.0125 53.5053 85.429 55.6034 84.3805 55.8773C84.053 55.9629 83.95 55.9275 83.5167 55.9134Z" fill="black"/>
</g>
<defs>
<clipPath id="clip0_155_4610">
<rect width="200" height="200" fill="white"/>
</clipPath>
</defs>
</svg>
