<svg width="200" height="200" viewBox="0 0 200 200" fill="none" xmlns="http://www.w3.org/2000/svg">
<g style="mix-blend-mode:multiply">
<path d="M47.8595 72.7549C-11.5852 92.2705 2.58022 179.289 65.2018 179.289H114.052C129.768 179.289 144.736 172.644 155.201 161.025L175.703 138.256C213.294 96.509 170.803 32.3924 117.208 49.9868L47.8595 72.7549Z" fill="#20BEFF"/>
</g>
<path d="M21.5 114.234L35.4187 107.5C36.3232 107.062 37.412 107.363 37.9627 108.204L46.5 121.234L30 129.234L21.5 114.234Z" fill="white"/>
<path d="M56 104L46 84L59.5 79L71 97L56 104Z" fill="white"/>
<circle cx="126.5" cy="92.5" r="5.5" fill="white"/>
<ellipse cx="119.5" cy="129" rx="6.5" ry="7" fill="white"/>
<ellipse cx="159.5" cy="112" rx="6.5" ry="7" fill="white"/>
<path d="M66.0963 146.863L60.7984 135.888C60.3469 134.953 60.6864 133.828 61.5799 133.298L71.8817 127.193C72.791 126.655 73.9627 126.916 74.5562 127.791L81.7488 138.391C82.4169 139.375 82.0829 140.722 81.0322 141.28L68.8357 147.759C67.8335 148.292 66.5897 147.885 66.0963 146.863Z" fill="white"/>
<path d="M49.2057 85.8087C50.7641 88.536 52.1667 91.0296 53.4914 93.4452C54.0369 94.5361 54.5823 95.627 54.3486 96.8738C54.1927 97.8868 53.7252 98.8218 52.7901 99.2894C51.855 99.679 50.842 99.5231 49.9849 98.8998C49.6732 98.666 49.3615 98.3543 49.1277 98.0426C47.1017 94.3802 44.842 90.7179 43.4394 86.7438C42.4264 83.7048 43.1277 81.6009 45.9329 80.1983C49.1277 78.5619 52.4784 77.1593 55.8291 75.7567C58.3226 74.7437 60.5824 75.2892 62.2967 77.471C63.1538 78.5619 64.0889 79.6528 64.7902 80.8217C67.2837 84.9516 69.6993 89.0815 72.037 93.3672C73.7513 96.5621 73.2059 99.4452 70.1669 101.16C65.959 103.575 61.5174 105.367 56.8421 106.77C56.2966 106.926 55.6732 106.848 55.0499 106.77C53.3356 106.614 52.4005 104.666 53.2576 103.186C53.8031 102.25 54.5044 101.627 55.4395 101.237C57.7772 100.069 60.1148 98.9777 62.4525 97.7309C65.3357 96.2504 65.4136 95.9387 64.0889 93.1335C63.4655 91.8867 62.8421 90.562 62.2188 89.3153C58.0109 80.51 59.7252 80.8217 49.2057 85.8087Z" fill="#202124"/>
<path d="M42.7322 120.479C41.4646 118.648 40.4787 117.31 39.5632 115.972C39.1407 115.408 38.7182 114.775 38.3661 114.141C37.7323 112.803 38.2252 110.69 39.1407 110.197C39.9858 109.775 41.8167 110.127 42.6618 110.972C42.8027 111.113 42.9435 111.183 43.0139 111.324C44.7745 113.859 46.6759 116.324 48.2956 118.929C49.7744 121.324 48.7885 123.789 46.6054 124.915C43.1548 126.605 39.8449 128.507 36.3942 130.056C31.7464 132.169 28.8591 131.324 26.0422 127.31C23.3662 123.436 21.1127 119.282 19.2817 114.915C18.7183 113.577 19 112.38 20.1268 111.606C21.0422 110.972 21.9577 110.479 23.0141 110.056C24.7746 109.352 26.1126 108.437 25.9014 106.183C25.7605 104.915 27.2394 104.634 28.7182 104C27.8028 105.056 27.169 105.69 26.676 106.465C26.4647 106.676 26.4647 107.169 26.5352 107.451C26.7464 108.155 27.3098 108.014 27.8028 107.803C28.8591 107.451 29.845 106.958 30.9013 106.746C32.0281 106.535 33.7182 107.592 33.9295 108.648C34.1407 109.704 34.0703 110.761 33.1548 111.606C31.8168 112.944 30.1971 113.577 28.4366 114.211C25.338 115.197 25.338 115.338 27.4506 118.155C28.8591 120.056 30.1971 121.958 31.6055 123.859C32.9436 125.69 33.4365 125.831 35.1971 124.915C37.5914 123.577 39.8449 122.169 42.7322 120.479Z" fill="#202124"/>
<path d="M67.3746 132.051C66.83 132.284 66.2076 132.44 65.663 132.673C63.5623 133.529 63.4067 133.918 64.3403 135.785C64.8849 136.875 65.5074 137.886 66.052 138.975C66.9856 140.687 66.83 142.476 66.5966 144.266C66.5188 144.966 65.8964 145.666 64.9628 145.9C63.9513 146.133 62.7843 146.289 62.2397 145.277C60.2169 141.854 58.194 138.353 56.4046 134.774C55.3932 132.673 56.4046 130.728 58.0384 129.406C61.6951 126.605 65.5852 124.115 69.8642 122.404C71.8871 121.626 73.9099 121.937 75.3103 123.648C79.1226 128.239 82.7014 133.062 85.5023 138.431C86.4359 140.298 86.0469 142.087 84.413 143.254C80.8342 145.9 76.6329 147.3 72.3539 148.234C71.6537 148.389 70.6422 148 70.1754 147.533C69.4752 146.678 69.7864 145.511 70.4088 144.733C71.0312 143.955 71.8093 143.332 72.6651 142.865C74.0655 142.087 75.5437 141.465 76.9441 140.687C78.8892 139.598 79.0448 138.82 77.8777 136.875C76.9441 135.319 75.9327 133.84 74.9213 132.362C73.2097 129.795 73.2097 129.717 70.0976 130.884C69.164 131.273 68.3082 131.662 67.3746 132.129C67.3746 132.129 67.3746 132.051 67.3746 132.051Z" fill="#202124"/>
<path fill-rule="evenodd" clip-rule="evenodd" d="M126.823 117.38C122.614 114.546 118.162 114.951 113.629 116.327C108.691 118.432 105.696 126.122 107.558 132.031C109.258 137.211 113.71 141.016 118.324 141.178C127.309 141.421 134.594 130.979 131.113 122.641C130.223 120.456 128.766 118.756 126.823 117.38ZM114.734 130.296C114.557 130.032 114.382 129.771 114.195 129.522C113.71 128.712 113.629 127.903 114.033 127.174C115.571 124.26 118.89 123.046 121.966 124.26C124.314 125.15 125.204 127.741 123.828 129.845C123.261 130.736 122.533 131.464 121.723 132.112C119.619 133.731 117.514 133.569 115.652 131.545C115.304 131.147 115.016 130.718 114.734 130.296Z" fill="#202124"/>
<path fill-rule="evenodd" clip-rule="evenodd" d="M146.106 114.314C147.182 123.462 156.061 129.112 164.223 125.614C169.425 123.731 174.088 116.646 173.999 110.906C173.909 106.78 172.384 103.282 168.797 100.951C164.043 97.8115 158.931 97.2734 153.819 100.143C148.348 103.193 145.389 107.767 146.106 114.314ZM156.4 109.154C156.604 109.011 156.793 108.877 156.958 108.753C158.662 107.946 159.918 107.498 161.443 107.856C164.851 108.664 166.017 111.085 164.402 114.045C164.043 114.673 163.685 115.211 163.236 115.749C162.07 117.274 160.546 118.17 158.483 117.812C155.972 117.363 154.357 115.749 153.55 113.507C153.281 112.789 153.64 111.623 154.178 110.996C154.868 110.236 155.718 109.636 156.4 109.154Z" fill="#202124"/>
<path fill-rule="evenodd" clip-rule="evenodd" d="M117.37 88.4752C115.741 91.0808 115.481 93.8167 117.044 96.9435C117.056 96.9643 117.067 96.9851 117.079 97.006C117.788 98.2961 118.63 99.8284 120.041 100.982C123.428 103.848 127.532 103.848 130.919 100.917C133.134 99.028 134.697 96.6178 135.544 93.8819C136.912 89.5175 135.153 85.8696 130.919 84.1108C125.968 82.0263 120.171 83.9154 117.37 88.4752ZM130.072 92.7745C129.681 94.4682 128.704 95.7058 127.467 96.6178C126.49 97.1389 125.643 97.0738 124.861 96.8132C123.754 96.4224 122.907 95.5104 122.19 94.6636C121.93 94.3379 121.865 93.6865 121.995 93.2956C123.037 90.5597 125.708 89.3221 128.444 90.1037C129.747 90.4946 130.333 91.5368 130.072 92.7745Z" fill="#202124"/>
<path d="M104.346 40.493C109.386 42.5069 113.557 45.6752 117.109 49.6082C119.13 51.906 120.635 54.3799 120.692 57.5146C120.71 59.1408 118.949 60.5445 117.289 60.3367C115.175 59.9519 113.492 58.8391 111.919 57.4395C107.929 53.9328 103.578 51.1028 98.538 49.0889C95.027 47.6872 91.4412 47.0581 87.5719 47.3559C78.864 47.9504 70.8443 50.4955 63.8995 56.2426C61.9094 57.9183 59.8497 59.6454 57.7126 61.1222C56.599 61.9452 55.3178 62.6871 54.0082 63.245C52.0439 64.0818 50.0177 62.5051 50.3684 60.504C50.4509 60.0331 50.5334 59.5623 50.6648 59.1577C51.6831 56.4583 52.9669 53.9725 55.1865 52.0248C59.855 47.8574 64.5932 43.6386 70.2 41.0321C81.7617 35.562 93.2047 35.6104 104.346 40.493Z" fill="#202124"/>
<path d="M118.238 63.0561C117.93 61.5515 116.936 61.0962 116.208 60.4375C108.835 53.7597 107.995 50.7693 100.61 44.1044C99.9845 43.5366 97.7621 42.4781 97.7621 42.4781C96.6745 41.2084 96.7118 41.7956 97.8431 40.3065C98.9113 38.9005 100.984 40.5803 102.381 41.1508C104.314 41.9423 104.094 40.8391 105.667 42.1806C112.239 47.7744 114.407 47.9454 120.565 54.0057C121.167 54.5994 121.718 55.8674 122.801 55.2182C123.6 54.7445 123.093 53.6085 123.088 52.7796C123.061 49.7492 122.987 46.7232 123.42 43.6841C123.657 42.0144 124.222 40.4851 126.181 40.2551C128.146 40.0305 128.996 41.4713 129.181 43.0292C129.966 49.6714 130.169 56.4111 129.824 63.162C129.693 65.7277 127.188 66.9462 124.951 67.4516C118.581 68.8759 112.156 69.0556 105.745 69.3169C103.959 69.3879 102.741 68.3618 102.938 66.4827C103.13 64.6101 104.594 63.8117 106.314 63.7055C110.207 63.4554 114.09 63.2774 118.238 63.0561Z" fill="#202124"/>
</svg>
